<?xml version="1.0" encoding="UTF-8"?><svg id="Layer_1" xmlns="http://www.w3.org/2000/svg" viewBox="0 0 255 90"><defs><style>.cls-1{fill:#74c3a2;}.cls-1,.cls-2,.cls-3,.cls-4,.cls-5,.cls-6,.cls-7,.cls-8,.cls-9,.cls-10,.cls-11,.cls-12,.cls-13,.cls-14,.cls-15,.cls-16,.cls-17,.cls-18,.cls-19,.cls-20,.cls-21,.cls-22,.cls-23,.cls-24,.cls-25,.cls-26,.cls-27{isolation:isolate;}.cls-1,.cls-4,.cls-5,.cls-10,.cls-11,.cls-14,.cls-15,.cls-17,.cls-18,.cls-22,.cls-23,.cls-25,.cls-26,.cls-27{opacity:.8;}.cls-2{fill:#76bda1;}.cls-2,.cls-3,.cls-6,.cls-8,.cls-9,.cls-12,.cls-13,.cls-16,.cls-19,.cls-21,.cls-24{opacity:.5;}.cls-3,.cls-4{fill:#b4e7d1;}.cls-5,.cls-6{fill:#82c1a8;}.cls-7{fill:#34d958;opacity:.3;}.cls-8{fill:#80bea5;}.cls-9{fill:#59a887;}.cls-10{fill:#7ab59d;}.cls-11{fill:#6fa68f;}.cls-12{fill:#73ab94;}.cls-13,.cls-14{fill:#5aa285;}.cls-15{fill:#76b098;}.cls-16{fill:#4d7a68;}.cls-17{fill:#4d9577;}.cls-18{fill:#74bb9e;}.cls-19{fill:#5b8c78;}.cls-20{opacity:.2;}.cls-20,.cls-21,.cls-22{fill:#81a395;}.cls-23{fill:#6b9f8a;}.cls-24,.cls-25{fill:#576d64;}.cls-26{fill:#8ac8ad;}.cls-27{fill:#bdebd6;}</style></defs><path class="cls-7" d="M227.98,13.92c.62-.02,1.19,0,1.83-.36.18-.1,1.05-.53,1.17-1.36.06-.39-.05-.79.04-1.17.11-.52.6-.94,1.14-.95.54-.02,1.06.36,1.21.87.29-.4.67-.72,1.1-.95.26-.04.45-.33.39-.59.51.19,1.08-.04,1.62-.08.55-.05,1.24.28,1.16.83,1.05.15,2.36.19,2.89-.73.35-.6.4-1.59,1.1-1.64.16.52.92.34,1.4.09.48-.24,1.3-.29,1.32.25.61-.58,1.65-.48,2.34.02.69.49,1.11,1.27,1.51,2.02,2.57,4.89,4.86,10.05,5.52,15.54.54.3.04,1.08-.51,1.39-.54.31-1.25.46-1.51,1.03-.07.14-.1.31-.19.42-.37.47-1.09-.03-1.44-.51-.57.23-.62.99-.88,1.54-.36.77-1.31,1.22-2.14,1,.41.61-.28,1.36-.9,1.78l-.41.28c-.46.32-.99.64-1.55.57-.27-.04-.54-.17-.8-.1-.46.13-.51.74-.69,1.18-.37.93-1.74,1.26-2.5.6-.22-.19-.38-.45-.6-.65-.8-.74-2.15-.56-2.97.14-.83.71-1.2,1.8-1.4,2.88-.2,1.07-.23,2.17-.54,3.21-.24.82-.92,1.31-1.6,1.82-6.35,4.77-13.74,7.79-13.74,7.79l-4.94,2.28-2.25-.07-4.34,3.11-.86,1.6-3.09-.1-1.83,1.56-2.46.73-2.48,1.54s-1.25.94-1.73.93l-2.41-.08-.77.62-2.07-.06-1.2.77-4.08.68-1.65.76-3.61-.11-1.33,2.39-1.76-.06-2.32.74-4.97,3.09-4.89.66-3.29,1.52-3.34,3.14-2.46.73-4.13,2.3-7.42,3.82-3.27.71-4.91,1.47-14.28-.45-2.76.72c-.53-.24-1.36-.57-2.41-.89-1.89-.58-2.23-.4-4.03-.94-1.95-.58-2.16-.96-3.22-.91-1.06.05-1.08.44-2.46.73-1.55.32-2.83.09-4.05-.13-1.33-.24-1.69-.47-3.22-.91-1.27-.36-2.48-.56-4.84-.96-4.41-.74-4.61-.55-6.46-1.01-1.16-.29-2.84-.8-4.81-1.77-.92-.14-2.34-.41-4.03-.94-1.17-.37-1.97-.71-2.41-.89-3.24-1.31-6.57-1.66-8.86-1.9-2.58-.27-4.54-.24-6.48-.2-4.53.08-5.4.55-7.29-.23-1.37-.57-2.01-1.27-4-1.75-1.88-.45-2.88-.2-3.24-.1-1.2.34-1.42.94-2.48,1.54-.8.46-1.66.69-5.7.63-4.5-.07-4.13-.37-5.67-.18-2.73.33-2.87,1.13-5.72,1.44-1.48.16-2.61.06-4.86-.15-3.19-.3-4.78-.45-6.46-1.01-1.73-.58-3.54-1.82-7.17-4.28-.75-.51-1.55-1.18-3.17-2.53-.74-.62-1.18-1.01-1.57-1.67-.55-.93-.66-1.83-.73-2.46-.07-.61,0-.74.1-3.24.05-1,.06-1.5.05-1.62-.17-1.3-.78-1.61-1.52-3.29-.44-1-.7-1.61-.73-2.46-.03-.75.16-.98.91-3.22.75-2.25.86-2.89.91-3.22.11-.76.23-1.52.08-2.43-.28-1.72-1.09-1.7-1.52-3.29-.4-1.5.29-1.64.15-4.86-.03-.66-.07-1.03.05-1.62.22-1.06.68-1.3.89-2.41.04-.23.05-.69.05-1.62.01-1.74-.08-1.9.08-2.43.25-.83.58-.77.86-1.6.23-.67.13-1.01.08-2.43-.05-1.53-.08-2.29.1-3.24.17-.9.31-1.65.89-2.41,0,0,.21-.27,1.67-1.57.21-.37.5-.93.86-1.6.78-1.47.74-1.45.86-1.6.34-.43.78-.71,3.29-1.52,1.19-.38,1.78-.57,2.46-.73.75-.19,2.18-.51,4.08-.68,2.03-.2,4.43-.42,7.29.23.76.17.49.16,3.22.91,2.6.71,3.32.85,4.03.94,1.37.17,2.42.13,3.24.1,1.24-.05,1.94-.17,4.89-.66,3.97-.65,3.9-.62,4.08-.68,2.4-.91,2.32-2.1,4.96-3.09.71-.27,1.81-.67,3.27-.71,1.37-.03,1.84.29,3.24.1,1.12-.15,1.95-.51,2.46-.73.51-.23,1.49-.67,2.48-1.54.51-.45.46-.52.84-.78.16-.12,1.24-.88,2.46-.73,1.37.16,1.52,1.33,3.19,1.72.69.16,1.22.09,1.62.05,2.43-.24,5.11.16,8.1.26,3.71.12,6.86-.3,17.88-1.06,3.61-.25,9.48-.63,14.61-.35,3.95.21,5.92.32,7.27,1.04.65.35,1.77,1.05,3.22.91.97-.1,1.28-.5,2.46-.73,1.4-.29,2.54-.04,3.24.1,2.16.46,3.59,1.61,4.79,2.58,2.13,1.75,1.63,2.13,3.93,4.18,2.15,1.93,4.36,3.17,4.76,3.39,1.77.99,2.05.87,3.19,1.72,1.89,1.42,2.05,2.45,3.16,2.53.92.07,1.06-.62,3.29-1.52.43-.17,1.36-.54,2.46-.73.34-.06,1.75-.29,4.05.13,3.07.56,3.53,1.51,6.43,1.82.99.11,1.78.09,2.43.08,2.31-.06,4.04-.46,4.89-.66,5.76-1.37,10.64-2.91,10.64-2.91,5.83-1.84,5.82-2.02,7.37-2.2,1.95-.22,2.44,0,8.1.26,2.58.11,1.65.04,7.29.23,8.46.29,8.09.4,9.73.31,4.4-.24,5.13-.89,8.13-.56,1.07.12,2.3.35,4.05.13,1.64-.21,1.81-.57,3.44-.63Z"/><path class="cls-14" d="M246.91,9.57c.54.5.85,1.19,1.12,1.88,1.71,4.17,3.26,8.4,4.66,12.69.16.5.32,1.02.27,1.54,0,.07-.03.15-.09.2-.12.09-.28-.05-.37-.17-.4-.6-.67-1.29-.92-1.97-1.23-3.25-2.47-6.51-3.99-9.64-.46-.96-.95-1.9-1.27-2.91-.15-.46-.36-1.05-.33-1.54.04-.57.53-.42.9-.08Z"/><path class="cls-4" d="M243.99,9.63c.22.38.26.83.32,1.26.24,1.82.74,3.61,1.46,5.29.78,1.79,1.81,3.47,2.44,5.33.27.84.47,1.7.89,2.48.49.91,1.27,1.65,1.76,2.55.07.12.13.26.11.41-.03.23-.26.38-.48.44-.97.28-1.87-.58-2.4-1.43-1.67-2.71-1.9-6.07-3.16-9.01-.77-1.8-1.93-3.44-2.53-5.32-.18-.57-.58-1.62-.19-2.19.46-.66,1.41-.45,1.77.19h0Z"/><path class="cls-13" d="M240.96,12.15c2.08,5.27,3.32,10.91,6.15,15.82.13.23.27.47.29.73.05.62-.6,1.13-1.23,1.08-.62-.05-1.14-.52-1.43-1.08-.29-.55-.39-1.17-.52-1.78-.73-3.46-2.33-6.65-3.54-9.96-.53-1.44-1.11-2.99-1.41-4.49-.09-.45-.26-1.5.25-1.69.65-.24,1.26.93,1.43,1.35v.02Z"/><path class="cls-2" d="M236.09,10.71c.66.03,1.18.63,1.4,1.26.22.63.24,1.31.41,1.96.22.81.67,1.54,1.06,2.28.57,1.06,1.03,2.17,1.49,3.28.69,1.66,1.38,3.32,2.07,4.97.42,1.01.84,2.03.96,3.11.04.42.05.87.19,1.27.3.88,1.24,1.62.99,2.51-.2.72-1.21,1-1.86.63-.74-.42-1-1.35-1.2-2.18-1.12-4.55-2.79-8.95-4.96-13.1-.41-.78-3.18-6.12-.56-6Z"/><path class="cls-5" d="M237.14,20.86c.68,1.81,1.33,3.65,1.92,5.5.33,1.02.65,2.06.79,3.13.09.64.09,1.31-.21,1.88-.29.57-.99.97-1.59.75-.11-1.02.29-2.02.34-3.04.15-2.88-2.32-5.26-2.73-8.1-.14-.96-.04-1.96-.37-2.88-.43-1.18-1.5-1.99-2.26-2.99-.66-.88-1.49-2.51-1.26-3.67.32-1.58,1.4,0,1.71.7,1.28,2.88,2.55,5.76,3.67,8.71Z"/><path class="cls-17" d="M232.74,20.44c-.13-.53-.42-1.2-.96-1.13-.13.8-.09,1.62.11,2.4.16.61.41,1.18.51,1.79.13.76.03,1.54.05,2.31.02,1.08.27,2.13.53,3.18.3,1.23.96,3.68,2.58,3.8,1.25.1.89-1.23.66-2.06-.97-3.49-2.61-6.75-3.47-10.31h0Z"/><path class="cls-19" d="M231.6,16.59c-.17-.22-.38-.47-.67-.46-.38.01-.57.45-.65.83-.26,1.36-.03,2.76.19,4.13.28,1.7.56,3.39.85,5.09.26,1.57.52,3.14,1.08,4.63.37.99.87,1.93.99,2.98-.35.15-.66-.26-.81-.61-.55-1.26-1.11-2.52-1.53-3.82-.31-.97-.55-1.96-.76-2.94-.72-3.33-1.22-6.71-1.49-10.11-.02-.26-.04-.54.03-.79.2-.68,1.02-1,1.71-.85.69.14,1.24.65,1.7,1.17,1.59,1.83,2.39,4.18,3.03,6.49.57,2.08,1.26,4.18,1.73,6.28-1.14-1.9-1.81-4.08-2.56-6.16-.75-2.08-1.73-3.92-2.84-5.84v-.02Z"/><path class="cls-6" d="M225.48,20.56c-.1.48-.19,1-.53,1.36-.33.36-.9.49-1.36.31-.14-.05-.27-.15-.28-.29,0-.15.15-.25.27-.32.64-.42,1.02-1.14,1.24-1.87.21-.73.26-1.5.36-2.25.09-.63.24-1.3.69-1.75.23-.23.93-.64,1.21-.31.28.33-.32,1.07-.45,1.32-.57,1.2-.91,2.49-1.16,3.8Z"/><path class="cls-6" d="M226.88,21.91c-.62.85-.53,2.04-.18,3.03.34.99.9,1.92,1.14,2.94.19.79.2,1.67.7,2.31.39-1.45.38-2.5-.07-3.89-.16-.5-1.75-4.16-1.58-4.39Z"/><path class="cls-6" d="M228.24,32.08c.18-.5.92-1.01,1.25-1.45.65-.87,1.2-.11,1.67.66.3.49.28.95.44,1.45.12.38.38.73.56,1.09.34.7.74,1.44.6,2.25-.1.56-.88,1.81-1.58,1.69-.03-1.4.06-2.81-.24-4.13-.16-.7-.59-.8-1.09-1.13-.5-.33-.85-.46-1.48-.3-.6.16-1.1.61-1.67.87-1.09.48-2.11.7-3.06,1.49-.39.33-.8.52-1.28.74-.65.3-1.09.74-1.67,1.11-1.55,1-3.12,1.93-4.77,2.76-2.09,1.05-4.04,3.4-6.49,3.47,1.33-.92,2.75-1.66,4.13-2.51,1.01-.62,1.85-1.35,2.95-1.74,1.35-.48,2.78-1.23,3.86-2.13.53-.45,1.17-.78,1.76-1.14,1.01-.62,1.84-.87,2.99-1.18.89-.23,1.43-.72,2.16-1.27.27-.2.72-.8.97-.6h0Z"/><path class="cls-25" d="M245.67,8.5c-.41.81-.18,2.75.4,3.48-.79-.18-1.41-2.37-1.37-3.1.07-1.41,1.39-1.62,2.09-.53,1.13,1.74,2.04,3.57,2.96,5.43s1.58,4.02,2.24,5.94c.4,1.16.93,2.49,1.13,3.66.13.78.48,3.43-.8,3.08-.69-.19-.93-1.21-1.25-1.76-.42-.74-.86-1.44-1.08-2.24-.18-.65-.27-1.42-.55-2.05-.24-.53-.6-.94-.8-1.52-.62-1.8-1.2-3.44-2.13-5.1-.16-.29-.36-.56-.51-.85,1.79,1.67,2.44,4.53,3.45,6.75.52,1.14.72,2.27,1.15,3.44.27.74.73,2.11,1.41,2.5,1.2.69.94-1.58.96-2.27.04-1.26-.5-1.87-1.01-2.95-.97-2.04-1.47-4.32-2.54-6.33-.68-1.29-1.07-2.72-1.73-3.97-.35-.68-1.35-2.14-2.29-1.99-.04.11-.1.24.27.37h0Z"/><path class="cls-15" d="M224.8,14.91c-1.41.09-2.19.73-3.5,1.05-1.15.29-2.52.19-3.7.22-2.57.06-4.53.43-6.03,2.62,2.55.22,5.68.81,8.1.05,1.64-.52,4.78-2.26,5.12-3.94Z"/><path class="cls-16" d="M203.04,24.5c2.92.07,5.47-1.05,8.11-2.02,1.44-.52,2.19-.88,3.76-1.04,1.15-.12,2.8-.86,3.87-.36-1.81.48-2.82,1.01-4.26,2.1-.91.69-1.75,1.87-2.72,2.33-1.12.54-2.67.17-3.9.32-.99.12-2.39.79-3.28.54.85-.35,2.1-.73,2.54-1.42-1.56-.14-2.89-.25-4.14-.45l.02.02Z"/><path class="cls-3" d="M216.89,24.64c.55.08,1.1.03,1.62-.13-.02-.25.11-.59.08-.84.48-.35,1.02-.81,1.62-1-.15.97-.03,1.81-.76,2.53-.49.49-1.51.8-2.13,1.12-1.87.99-3.91,1.72-5.8,2.72-2.19,1.16-4.7.77-7,2.04-1.51.83-3.04,1.41-4.73,1.77-1.98.43-4.49.26-6.25,1.3,1.89-1.38,3.78-1.15,5.75-1.95,1.45-.59,3.12-1.79,4.37-2.62,1.35-.9,2.61-1.49,4.41-1.66,1.25-.11,1.8.13,2.98-.5.71-.38,1.23-.71,1.91-1.01,1.17-.52,3.54-.9,3.93-1.78h0Z"/><path class="cls-11" d="M206.76,19.71c-6.23-.66-12.14,3-17.71,5.06-1.89.7-3.55,1.85-5.4,2.62-1.85.77-4.32.86-6.22,1.7-1.32.58-1.65.95-3.27.91-1.74-.04-2.16.67-3.28-1.16-.84-1.38-.99-2.64-2.7-3.19-1.4-.46-2.63.1-3.91.62,2.08.45,3.79,1.22,5.41,2.81,1.17,1.15,2.08,2.26,3.6,2.99,1.67.8,4.43.93,6.24.54,1.81-.4,3.25-1.97,5.01-2.75,1.53-.67,3.36-.97,4.64-2.09.65-.57.9-1.26,1.67-1.68.64-.35,1.41-.63,2.06-1,3.31-1.88,6.23-3.71,9.93-4,2.14-.17,3.24-.17,5.21-.91,1.56-.59,3.39-.66,4.8-1.76-2.38-.03-4.53,1.54-6.1,1.31h0Z"/><path class="cls-12" d="M196.02,15.49c-1.88-.06-3.79-.33-5.53.35-1.41.56-2.76,1.84-4.23,2.19-2.31.55-4.58.74-6.91,1.56-1.39.49-2.66,1.41-4.08,1.77-1.42.36-3.22.09-4.76.04-1.55-.06-4.36.96-5.53-.01.74-1.18,4.89-.67,6.28-1.04,2.37-.64,4.76-1.34,7.11-2.02,1.96-.56,3.83-1.44,5.86-1.72,1.76-.24,3.26-1.11,5.03-1.32,2.04-.25,4.56-.93,6.78.21h0Z"/><path class="cls-23" d="M160.96,21.39c-3.73,2.67,3.25,6.26,4.06,8.56-2.83-2.7-5.54-5.59-8.53-8-1.45-1.17-3.01-.98-2.2,1.42.59,1.76,1.82,3.41,2.43,5.25.22.67.96,2.03.93,2.71-.04.92-.91,1.24-.81,2.24-.13-1.12-.72-2.49-1.67-3.13-.23,1.13.23,2.36.14,3.55-.06,0-.34-.01-.39,0-1.72-3.35-.27-7.51-1.32-11.06-.43-1.47-.76-2.31-2.38-2.44-1.51-.13-1.65.71-2.83,1.35-1.5.8-2.07-.13-3.49-.37,2.46-.34,4.2-3.12,6.76-3.07,1.09.02,1.61.89,3.03,1,1.42.11,2.97-.13,4.21.16.48.12.99.6,1.5.76.76.23,1.4-.18,1.9.63-.62-.05-1.23.26-1.34.44h0Z"/><path class="cls-8" d="M125.14,8.79c-.14-.35-.11-.72-.35-1.07,2.7-.34,5.85,3.44,7.67,5.2,1.37,1.32,2.78,2.76,4.21,3.98,1.24,1.07,2.51,1.56,3.55,2.87,1.12,1.43,2.29,2.9,2.94,4.58-1.32-1.7-2.19-3.31-4.11-4.34-1.57-.84-3.12-1.79-4.47-3-1.22-1.09-2.12-2.41-3.3-3.57-1.18-1.16-2.55-1.58-3.88-2.35-.91-.52-2.3-1.68-2.24-2.31h0Z"/><path class="cls-9" d="M129.07,16.96c-1.07.33-3.59.78-2.55,2.76.58,1.11,2.4.9,2.97,2.3-1.68-.88-2.52-2.6-4.03-3.72-1.41-1.04-2.69-1.57-3.46-3.27-.62-1.38-.2-2.86-.48-4.27-.28-1.4-1.19-2.54-1.65-3.75,1.88.76,3.73,5.44,4.66,7.28.47.92.83,2.39,2.17,2.27,1.07-.09,1.44-1.52,2.83-.74-.37.45-.9.92-.47,1.15h0Z"/><path class="cls-21" d="M65.33,6.01c-1.11.35-1.16,1.77-2.05,2.43-.75.55-2.27.51-3.18.66-2.05.33-4.31.21-6.2.68,4.8.78,7.07-3.79,11.44-3.78h0Z"/><path class="cls-21" d="M61.47,5.59c-1.46.89-2.37,2.25-4.1,2.56-1.92.34-3.64.4-5.13-.92,1.36.83,2.8-.18,4.13-.61,1.33-.43,3.62-.98,5.11-1.03h0Z"/><path class="cls-26" d="M11.61,15.69c.28,2.56-3.95,3.21-3.91,5.85.02,1.23.69,2.2.55,3.48-.16,1.4-.7,2.24-1.22,3.56-.95,2.45-.16,4.54,2.15,6.82,2.31,2.29,4.99,3.23,4.46,6.29-.22,1.24-1.06,2.37-1,3.65.04.94,2.59,3.54-.11,3.59,0,1.8-4.67,1.48-5.13,3.46-.38,1.66,1.29,2.68,1.84,4.12.86,2.23.51,6.17-1.12,8-1.33-1.1-1.03-2.77-1.69-4.04-.78-1.48-.93-2.93-1.83-4.33-.96-1.51-1.98-2.18-2.02-3.9-.05-1.94.35-2.76,1.51-4.33.72-.98,2.98-4.54.49-5.02.76-2.13-2.73-4.14-2.17-6.41.57-2.27,2.03-3.74,1.41-6.14-.34-1.3-.34-1.45.41-2.66.48-.78.87-1.72.97-2.69.19-2.01-.65-4,1.16-5.64.37-.34,1.21-.48,1.52-.79.35-.36.26-1.1.65-1.41.39-.31,3.08-1.44,3.1-1.46h-.02Z"/><path class="cls-15" d="M12.36,16.07c.14,1.4-2.05,2.21-3.13,3.32-1.32,1.35-1.48,2.89-1.53,4.45-.05,1.56-.08,3.22-.92,4.68-.84,1.46-1.4,2.85-1.29,4.53.2,3.06,3.99,5.84,6.01,8.66.68.94.89,1.96.73,2.98-.12.76-.75,2.82-1.88,3.41-.45.23-1.15-.07-1.55.15-.47.25-.5.54-.73.84-.64.82-.88,1.54-1.03,2.43-.39,2.12-.22,3.47,1.31,5.48.88,1.16,1.22,2.63,1.38,3.86.16,1.22-1.42,1.07-1.92,2.09-.62-.04-1.21-.1-1.85-.16-.14-1.17,2.1-2.17,2.38-3.38.46-2-2.21-3.96-2.7-5.93-.49-1.97,2.19-3.23,2.66-4.99.39-1.44.19-2.78-.26-4.15-.52-1.58-.46-3.03-1.42-4.58-.59-.95-.29-.9.1-1.78.31-.7.05-1.66-.3-2.31-.68-1.29-1.5-2.01-1.45-3.33.03-.94-.07-1.86-.11-2.79-.06-1.75.95-2.97,1.66-4.57.79-1.79,1.68-3.61,2.68-5.39.45-.79,1.03-1.41,1.67-2.18.33-.4,1.02-1.92,1.53-1.3h0Z"/><path class="cls-27" d="M23.82,41.4c9.96.31,14.68-1.06,23.25-5.65,7.14-3.82,15.17-2.97,23.42-4.01,8.41-1.07,17.7-7.93,25.83-3.92,7.14,3.53,9.5,11.79,17.17,13.93,8.42,2.33,19.84,1.52,28.55,2.06-6.61-.21-12.34.93-18.49.72-4.73-.16-10.96-3.58-14.23.05-8.38,9.3,12.44,17.56,18.57,18.42,8.59,1.2,6.7,4.26,11.35,10.09-2.79-5.54-5.03-8.35-11.39-8.82-5.81-.43-8.17.93-13-3.47-2.87-2.61-6.71-6.74-8.02-10.39-1.66-4.6.16-9.08-2.5-13.51-5.65-9.42-14.89-10.75-24.28-8.63-4.38.99-8.83,2.84-13.49,3.19-4.91.38-10.45-.93-14.92,1.01-4.27,1.85-6.55,5.12-11.32,6.17-4.77,1.06-11.34,3.59-16.47,2.75h0Z"/><path class="cls-20" d="M194.14,57.22c-2.98-.45-3.77,1.83-6.1,2.53-1.83.56-5,.01-6.92-.14-4.35-.36-7.94-2-12.42-2.16,3.49,2.18,7.98,1.64,10.59,4.58.53-.92.99-.76.83-1.88-.14-.12-.15-.11-.02.02,3.07,2.09,11.61.3,14.03-2.95h0Z"/><path class="cls-18" d="M170.69,65.06c.41,2.24-3.97,1.16-5.45,1.43-1.7.33-3.84,1.26-5.21,2.42-1.01.86-2.1,2.42-3.01,3.41-1.5,1.62-2.51,2.11-4.8,2.89-2.15.73-5.4,2.82-7.31.74,2.52-1.06,4.86-1.32,7.11-3.05,1.97-1.51,3.37-1.63,2.73-4.34-.54-2.32-.92-3.73.35-5.91.45-.78,1.48-1.61,1.68-2.47.3-1.21-.51-2.15-.27-3.38.77.05,1.57-.02,2.23-.17-.1,1.73-1.64,4.4-2.2,6.23-.65,2.13-1.08,3.67-.4,5.82,1.18-.34,1.83-1.7,2.92-2.16,1.09-.45,2.7-.57,3.81-.83,2.51-.57,5.14-.28,7.83-.67v.02Z"/><path class="cls-21" d="M210.96,51.5c-1.75-.06-3.15-.28-4.77-.73-1.25-.36-2.21-.82-3.57-.47,1.12.64,2.86.71,4.15,1.01.6.14,1.24.56,1.86.59.82.05,1.16-.47,2.35-.4h0Z"/><path class="cls-22" d="M204.77,55.05c-1.38-.41-1.84-.34-2.65.74-.74.98-1.13,1.01-2.45.97.31-.01,1.49-.82,1.56-1.47.09-.91-.93-1.14-1.68-1.25.63-.23,1.22.48,1.91.44.54-.03,1.17-.6,1.76-.66,1.46-.15,2.27.16,2.81,1.48-.66-.1-1.2-.47-1.27-.25h0Z"/><path class="cls-10" d="M54.73,72.25c-3.3-2.44-5.83-4.22-9.78-2.28-2.55,1.26-4.88,2.15-7.82,1.85.06-.06.13-.11.21-.12-1.66-.51-2.68-1.62-4.52-1.33-1.57.25-3.21.52-4.75.81.69-1.2,5.55-2.34,6.97-2.5,1.51-.17,2.67.12,4.1-.45,1.77-.71,1.75-1.19,2.57-2.62.69-1.19,1.25-2.17,1.86-3.32.99,1.01,1.47,2.15,2.7,3.01,1.23.87,2.48,1.25,3.74,1.84,2.69,1.26,3.98,3.84,6.82,4.71,1.06.33,3.47,1.06,4.42.8-2.58-.27-5.21-.12-6.52-.41h0Z"/><path class="cls-10" d="M24.42,12.51c2.14.08,3.67,1.16,5.69,1.7,1.6.43,3.36.47,5.04.5,3.12.07,6.32-1.66,9.33-2.33-2.39,1.22-3.94,2.91-6.67,2.92-3.42.01-5.74,3.06-8.87,4.04.25-.66,1.06-.92,1.65-1.17.79-3.05-3.62-.13-4.54.32-2.15,1.05-3.85.79-6.03.35,1.67-.82,2.93-1.19,3.55-2.92.46-1.3.31-2,.86-3.4Z"/><path class="cls-20" d="M114.9,80.08c-3.32-.1-6.41-.02-9.28.53-2.87.55-3.34-.68-6.12-1.6-2.51-.83-4.56-.44-6.98-1.78-2.64-1.45-4.22-2.41-7.34-2.58-.86-1.28-4.68-.4-6.45-1.05,4.4.66,8.15-1.83,12.59-.11,1.47.57,2.63,1.8,4.01,2.54,1.55.84,3.19,1.03,4.76,1.77.01-.35.14-.76.14-1.11,2.89-.82,5.67,1.2,8.49,1.85,1.13.26,2.77.93,3.97.86,1.55-.08,1.64-.58,3.12-1.03-.6.18-1.47.71-2.31.8.06.47-.3.63,1.4.88v.02Z"/><path class="cls-1" d="M133.73,40.61c-3.66-.12-7.41-.05-11.06-.35-1.72-.14-3.48-.37-5.16-.78-2.17-.53-2.1-.83-3.06-2.41-3.5-5.73-6.8-11.98-12.89-14.81-4.03-1.88-8.56-2.14-12.17-4.76,4.88,3.74,11.54,2.88,17.37,3.05.89,2.25,1.93,5.3,3.62,7.07.8.84,1.78,1.26,2.53,2.2,1.13,1.43,1.38,2.3,3.05,3.2,2.03,1.09,4.27,1.97,6.31,2.96,2.24,1.08,3.55,3.21,6.09,3.55.92.12,1.18-.21,2.08.02.85.22,1.61.72,3.31,1.05h0Z"/><path class="cls-24" d="M240.7,10.22c.06.79.29,1.32.67,2,.38.68.45,1.48.82,2.11-.17-1.55-1.72-3.8-1.01-5.38-.05.44-.97,1.23-.48,1.27Z"/><path class="cls-24" d="M249.64,27.8c-.52-.11-.68.38-1.15.14-.31-.16-.82-.76-1.07-1.02-.6-.63-.91-1.55-1.31-2.31.65.61,1.15,1.4,1.83,1.98.38.33,1.06,1.13,1.7,1.21Z"/><path class="cls-14" d="M244.62,31.99c-1.35,1.35-3.1-.07-3.74-1.42-.38-.81-.35-1.66-.49-2.52-.13-.8-.49-1.56-.67-2.37-.29-1.25-.14-2.48-.72-3.67-.33-.67-.76-1.29-1.02-2-.6-1.58-1.57-3.14-2.1-4.69-.47-1.41-1.99-3.38-.73-4.53-.6-.2-1.34-.03-1.94.15.96,1.04,1.97,2.7,2.31,4.14.24,1.02.5,1.29,1.03,2.21.61,1.03.72,2.34,1.16,3.47,1.32,3.42,2.26,6.98,3.02,10.5.48,2.21,2.43,2.68,3.9.72h0Z"/><path class="cls-14" d="M237.77,10.63c-.06.67.13,1.16.44,1.73.34.59.41,1.15.58,1.79.18.71.56,1.37.78,2.07.2.62.44,1.22.68,1.83.46,1.13.73,2.38,1.31,3.45.54.98,1,1.95,1.17,3.08.12.8.4,1.38.63,2.15.21.7.09,1.41.35,2.12.26.71.47,1.63,1.13,2.09.67.46,1.06.54,1.8.52.02-.3-.05-.7.11-.95-.63.21-.79.03-1.1-.47-.31-.5-.56-1.06-.89-1.56-.33-.5-.68-.92-.95-1.43-.44-.82-.72-1.76-1.09-2.61-.73-1.65-.91-3.44-1.79-5.04-.49-.89-.89-2.04-1.13-3.05-.32-1.28-.72-2.62-.71-3.94,0-.38.27-1.66-.1-1.96-.32-.26-1.29-.11-1.22.19Z"/></svg>