<?xml version="1.0" encoding="UTF-8"?><svg id="Layer_2" xmlns="http://www.w3.org/2000/svg" viewBox="0 0 516.82 470.3"><defs><style>.cls-1{fill:#29472a;}.cls-2{fill:#a9722a;}.cls-3{fill:#1c1652;}.cls-4{fill:#520c2b;}.cls-5{fill:#52140b;}.cls-6{fill:#93341f;}</style></defs><g id="Layer_2-2"><path class="cls-6" d="M514.27,248.03c-2.88-10.05-9.33-17.28-18.13-22.94-4.46-2.87-8.92-5.73-13.38-8.6-4.16-2.67-8.38-5.38-13.1-6.85-5.2-1.62-10.75-1.66-16.2-1.68-8.24-.03-16.73,0-24.35,3.15-8.7,3.6-15.6,11.3-18.21,20.35-1.19,4.12-1.53,8.45-2.84,12.53-1.31,4.08-3.89,8.09-7.91,9.57-3.2,1.18-3.39,1.61-8.35,4.81-7.63,4.65-11.82,13.6-12.93,22.47-.4,3.16-.55,6.41.21,9.51,1.53,6.23,6.46,10.95,9.84,16.39,5.93,9.55,7.71,22.26,16.88,28.77,4.79,3.4,10.85,4.45,16.7,4.95,6.57.56,15.06-.95,21.09-3.66l8.65-4.73c.09,0,.17,0,.26,0-.87,2.66-4.39,3.14-6.59,4.87-.9.7-1.58,1.64-2.26,2.55-1.25,1.7-2.49,3.4-3.74,5.1-.95,1.3-1.91,2.6-2.78,3.96-2.25,3.47-3.98,7.28-5.11,11.26-.11.39-.22.8-.15,1.2.1.56.52,1,.96,1.36,3.03,2.45,7.35,2.24,11.23,1.88,3.02-.27,6.1-.58,8.89-1.76,4.96-2.1,8.4-6.68,12.89-9.67,2.7-1.8,5.77-3.03,8.25-5.12,2.59-2.18,4.38-5.17,5.71-8.28,3.19-7.42,4.05-15.83,2.41-23.74l.25-.14c6.31,2.94,8.67,10.46,12.09,16.52.43.77.72,1.99,1.6,2.08,3.7.37,4.75-.48,5.59-3.4.84-2.92.96-5.66-.96-8.01-1.89-2.31-3.64-4.25-5.96-6.13-2.22-1.79-7.55-3.42-4.78-4.54,6.17-2.49,15.58-13.75,20.3-18.43,1.75-1.73,3.25-4.5,4.33-6.71,1.32-2.69,1.77-4.8,1.89-7.79.43-10.45.57-21.09-2.31-31.14Z"/><path class="cls-4" d="M163.78,151.29c-.39-.63-.98-1.12-1.66-1.41-4.44-1.91-8.81-3.96-9.66-6.81-.83-2.78-1.17-4.88-1.26-6.4-.07-1.14.48-2.23,1.42-2.88,9.8-6.86,5.7-1.61,7.25-6.38.51-1.56,1.56-7.23,4.79-10.31.18-.17,4.47-4.22,10.02-6.94,8.53-4.18,17.68-3.32,24.66-4.01,13.25-1.3,25.14-1.11,35.18-.3,34.19,1.05,66.57,15.39,96.41,32.12,22.38,12.55,43.02,28.93,55.46,51.38,5.11,9.22,7.17,14.68,8.89,23.31,1.19,5.96.6,14.13-.38,20.13-.99,6-4.47,11.94-10.09,14.24-2.56,1.05-5.43,1.31-7.8,2.73-2.35,1.41-3.92,3.77-5.58,5.95-9.98,13.05-27.57,21.32-43.24,16.41-6.95-2.18-12.93-6.65-18.48-11.36-17.09-14.52-29.86-32.23-40.83-51.79-3.1-5.53-6.31-12.54-11.55-16.1-11.93-8.1-15.96-5.93-31.41-12.11-7.96-3.18-7.63-3.28-16.65-4.78-3.82-.64-11.25-1.85-17.17-2.97-4.92-.93-10.49-1.41-16.34-4.34-1.15-.57-5.33-2.34-8.73-8.41-1.4-2.5-2.16-7.21-3.23-8.95Z"/><path class="cls-3" d="M176.07,193.44c15.75-1.81,18.35-.75,27.13,2.07,4.78,1.53,7.83,2.58,14.1,4.83,9.72,3.48,19.48,1.63,26.14,9.52,2.6,3.08,4.19,6.9,5.25,10.79,3.06,11.28,1.76,23.69-3.55,34.1-5.32,10.41-14.61,18.73-25.54,22.86-3.54,1.34-7.3,2.29-10.02,5.17-1.24,1.31-2.07,3-2.1,4.81-.09,5.47,6.09,7.73,11.14,8.81,11.94,2.56,22.85.99,33.6-4.8,8.01-4.32,19.1-14.65,27.52-18.1,4.67-1.91,10.42-2.51,15.47-2.55,2.35-.02,5.47.88,8.49,2.21,1.29.48,3.8,1.64,8.06,3.79,2.79,1.41,7.75,5.87,9.5,8.19,3.37,4.46,4.81,5.71,3.65,15.77-.7,6.06-6.7,10.11-9.55,15.5-2.22,4.2-3.03,8.97-3.75,13.66-.49,3.14-1,6.43-2.87,9-1.43,1.96-3.54,3.33-5.71,4.41-12.89,6.45-27.99,3.9-42.37,2.83-11.59-.86-23.29-2.47-34.77-4.41-7.79-1.32-15.67-3.99-22.76-7.84-10.14-4.86-14.33-10.25-24.57-11.05-1.59-.12-3.73-.76-10.22,5.03-3,2.68-5.24,6.14-6.37,10-2.25,7.7-5.51,15.09-9.69,21.93-4.13,6.75-9.31,13.11-16.22,16.98-6.9,3.87-15.77,4.87-22.71,1.06-4.3-2.36-7.5-6.29-10.42-10.23-3.05-4.13-5.97-8.47-7.49-13.38-.94-3.03-1.32-6.21-2.13-9.28-1.63-6.23-3.87-10.23-5.81-16.37-2.12-6.7-.41-15.79.92-22.99.75-4.03-.11-.15.79-4.15,6.08-27.17,4.95-22.69,11.23-34.02,5.11-9.22,10.2-12.88,16.18-22.13,5.73-8.85,19.79-33.61,28.91-38.9,6.24-3.62,12.81-7.9,19.72-10l10.83-3.12Z"/><path class="cls-5" d="M134.2,405.04c5.48-2.54,8.54-3.59,13.07-4.95,1.14-.34,6.77-1.26,8.28-1.36,18.1-1.21,35.29.94,53.15.75q22.76-.25,33.91-1.12l3.09-.58c1.62-.04,15.83-5.43,13.21-4.84-14.84,3.39-23.54,4.05-80.64-2.83-5.94-.72-6.3-.18-16.97-2.75-1.51-.36-2.17-2.11-1.31-3.4,4.09-6.09,6.8-11.83,9.89-19.42.88-2.17,2.2-4.53,2.96-6.76,1-2.95,6.03-7.47,9.14-7.33,2.42.11,3.35.26,5.61,1.05,17.95,6.23,33.54,11.99,51.42,16.11,8.54,1.97,18.56,2.81,26.91,4.12,6.16.96,11.23,2.22,17.26,2.28,11.09.12,15.85.48,25.74-4.03,3.12-1.42,6.56-4.51,8.04-5.92,5.19-4.94,4.87-16.12,8.06-26.89,2.31-7.8,8.98-17.95,15.16-22.11,2.94-1.98,11.03-6.68,21.92-3.44,8.72,2.6,17.06,12.26,22.55,19.64,6.25,8.39,6.02,8.49,12.43,19.51,1.8,3.09,3.96,5.95,6.41,8.56,3.47,3.71,6.44,8.38,6.52,13.49.16,9.85-6.09,18.86-10.76,27.4-4.25,7.79-4.85,8.71-7.36,12.02-6.06,8-13.31,12.61-23.19,13.19-11.18.66-20.13-5.7-28.18-10.96-7.17-4.69-7.92-6.75-13.35-8.9-12.35-4.88-29.79,1.17-42.62,4.59-10.25,2.73-17.92,5.86-26.71,11.8-14.2,9.61-27.7,26.08-42.48,34.77-10.61,6.24-21.73,10.81-33.91,12.64-6.5.98-15.3,1.12-21.86.66-6.88-.48-14.24-2.35-20.69-4.78-10.12-3.82-15.41-8.3-23.12-16.2-5.87-6.02-3.01-7.08-1.36-7.04,9.65.27,19.41-3.13,29.2-3.4,5.91-.16,11.79.81,17.68,1.32,10.83.93,21.76.24,32.52-1.35,9.5-1.41,19.01-3.56,27.54-7.98,13.9-7.2,29.98-20.52,44.67-27.86-6.91,3.45-24.5,6.82-35.47,10.42-5.62,1.85-9.46,3.75-15.02,5.99-19.04,7.67-34.62,13.04-54.67,8.7-25.13-5.44-28.63-8.64-30.24-9.55,0,0-5.79-2.96-7.72-6.12-.57-.93,1.22-2.74,2.23-3.14l9.06-4.02Z"/><path class="cls-1" d="M478.1,196.05c4.78.8,10.99,4.79,14.64,6.44,1.96.89,1.25-7.48.68-9.56-3.7-13.57-9.58-18.85-18.07-30.26-3.68-4.93-7.89-9.46-12.61-13.4-3.2-2.67-7.71-7.23-10.68-8.96-8.79-5.12-15.07-10.31-22.17-15.92-4.88-3.86-9.54-8.01-13.85-12.5-5.29-5.5-10.7-10.83-16.26-15.9-1.64-1.5-3.35-3.01-5.32-3.67,25.96,1.05,51.82,5,77.17,11.78,8.1,2.17,16.35,4.73,23.14,10.6l5.13,4.46c.68.59,5.39,3.33,5.33,2.33-.6-9.88-1.11-23.7-4.33-34.76-3.67-12.62-14.18-19.56-21.43-29.42-1.42-1.93-2.77-4.04-4.61-5.27-1.78-1.19-3.85-1.45-5.86-1.7-14.94-1.82-29.87-3.63-44.81-5.45-8.83-1.07-23.32-1.48-32.19-.92-6.3.4-13.07.81-18.84,2.28-7.31,1.87-27.7,5.41-41.02,6.47-15.14,1.2-29.84-2.88-43.49-10.4-6.82-3.76-13.27-8.45-19.95-12.57-8.73-5.39-17.88-9.81-27.38-12.64-8.63-2.57-17.48-3.81-26.3-5.04-5.72-.8-11.57-1.59-17.22-.02-7.19,2-13.65,7.98-17.31,16.01-1.84-.11-3.58-1.61-4.87-3.22-1.3-1.62-2.23-3.63-3.06-5.67-1.8-4.39-3.28-9.1-5.94-12.73-3.65-4.99-9.44-7.38-14.8-6.1-.29.07-.64.22-.71.58-.04.2.03.41.12.59.44.9,1.3,1.32,1.89,2.05.79.99,1.86,1.57,2.97,1.8,2.15.44,2.54.91,4,1.48,3.01,1.17,5.02,6.23,6.77,9.51,1.93,3.62,3.26,9.22,5.58,12.46,1.31,1.84,4.1,2.71,5.88,3.79.19.12.24.3.3.52.06.22.07.45.07.67,0,.23,0,.47-.06.68-.07.22-.23.42-.45.49-.12.04-.24.03-.36.03-.48-.02-.97-.03-1.43-.16-4.39-1.14-8.08-5.05-10.87-9.45-2.77-4.37-5.51-10.17-9.53-11.54,0,0-.21-.06-.15.3.23,1.4.93,2.5,1.19,3.97.07.38.18.75.36,1.07l4.63,7.66c2.94,4.86,4.9,9.27,15.64,12.35-2.81,1.52-10.74-1.21-12.94-3.82-1.87-2.23-3.36-4.98-5.3-7.09-.43-.47-1.22-.12-1.2.52.36,10.27,4.34,14.47,19.59,14.59.57.47-1.04,1.42-1.83,1.72-.22.08-.3.13-1.85.15-4.56.04-3.62-.27-6.5-.08-2.52.16-4.5-.02-7.3-.64-1.19-.26-1.74-.37-2.1-.71-4.04-3.94-4.34-6.24-10.14-9.46-.37-.2-.86-.02-.96.38-.16.65-.12,1.37.07,2.02.29,1,.88,1.89,1.47,2.75.91,1.33,1.84,2.64,2.79,3.94,1.01,1.37,2.05,2.75,3.43,3.74,3.18,2.28,7.48,2.11,11.33,1.61,3.5-.46,7.04-.5,10.55-.17,1.31.13,1.69.24,1.96.71.12.21-.06.46-.3.43-1.77-.21-3.44.42-4.98,1.4-1.24.79-2.15,1.99-2.71,3.34-.76,1.81-2.52,7.84-2.37,9.83.09,1.15.51,2.31,1.24,3.18.2.24.49.17.62-.11.68-1.54,1.28-2.7,1.19-4.39-.11-2.04,1.01-7.24,2.27-8.85.59-.75,1.51-1.18,2.46-1.23,2.57-.13,1.97.12,3.18,1.09-2.65,1.32-2.9,1.96-3.8,3.93-2.04,4.44.3,9.69-.53,14.5-.53,3.06-2.34,5.97-1.95,9.05.03.2.06.41.18.58.26.39.84.44,1.25.24.38-.18.65-.52.89-.87,1.65-2.4,2.7-5.17,2.78-8.08.14-5.17-1.44-8.67-.29-13.4.18-.76.46-2.04,1.02-2.58.56-.54,1.72-.09,1.74.25.96,4.72,1.27,10.18,3.11,14.46,2.43,5.66,9.17,10.63,13,11.47,17.82,3.94,22.43,3.36,42.06,1.27,4.46-.48,9.77-.75,14.53-.23,4.6.5,15.51,1.93,20.04,3.38,20.76,6.62,30.72,7.18,50.27,15.82,11.26,4.97,23.04,8.79,45.62,28.69,11.52,10.15,27.64,25.35,35.58,39.81,4.03,9.51,8.07,19.02,12.1,28.53.14.34.31.7.63.87.37.2.83.08,1.24-.04,5.45-1.66,5.54-4.29,15.51-6.92,5.72-1.51,12.65-1.42,20.19-1.33,10.82.12,16.08.93,23.61,2.64Z"/><path class="cls-2" d="M41.83,285.49c-5,1.68-8.89,6.16-10.12,11.29-1.24,5.13.1,10.76,3.28,14.97,2.3,3.05,5.7,5.45,9.5,5.78,3.58.31,7.09-1.21,10.03-3.26,4.48-3.11,8.14-7.74,9.04-13.11s-1.43-11.43-6.27-13.96c4.06-2.52,6.88-7.21,7.32-11.96-3.24,1.71-6.2,3.95-8.72,6.61-.2-1.78-.55-3.55-1.04-5.28-1.18,1.32-2.37,2.65-3.55,3.97.34-4.81-1.18-9.61-3.59-13.78-2.41-4.17-6.56-8.11-7.8-14.04-1.59,1.95-2.43,7.85-2.44,10.37,1.89-.01,2.22.82,4.01,2.73,4.01,4.28,5.68,9.55,5.74,15.41-1.82-2.34-3.94-4.43-6.3-6.22-.59,3-.07,6.2,1.43,8.86.38.67.21,1.38-.52,1.62Z"/><path class="cls-2" d="M119.48,126.11c5.91-7.53,14.43-12.83,23.18-16.9,8.19-3.82,22.15-8.42,30.31-12.28-2.55-7.92-5.75-8.45-9.65-11.66-10.95,1.94-20.85,7.14-30.31,13.05-9.64,4.92-21.96,3.31-32.87,2.08l5.4-3.51c-2.96-.87-5.93-1.73-8.89-2.6,1.88-.98,3.76-1.97,5.64-2.95.68-.36,1.4-.75,1.78-1.41.38-.65.37-1.44.34-2.19-.1-3.1-.35-6.19-.73-9.27-5.16,3.12-9.71,7.26-13.31,12.1-1.59-3.77-3.95-7.21-6.91-10.04-6.65-6.36-18.2-5.92-26.79-2.66-8.6,3.26-15.47,10.75-18.01,19.59-.95,3.3-1.32,6.76-1.1,10.19.45,6.83,3.39,13.54,8.43,18.17,3.04,2.8,6.76,4.79,10.62,6.26,7.91,3.01,17.03,3.83,24.74.33,7.71-3.5,13.41-12,11.95-20.34,4.46,1.97,8.79,4.1,13.25,6.07-1.74-4.9-5.03-9.24-9.28-12.24,7.16.61,15.53,2.29,22.77,1.42-2.77,2.62-5.14,5.74-7.11,9.02,0,0,0,0,0,0-.07.11-.13.24-.2.35-.54.92-1.07,1.84-1.55,2.77-.19.37-.34.74-.52,1.11-2.93,6.07-5.05,12.91-7.53,19.58-.95,1.41-4.13,3.84-14.85,4.75-8.49.72-16.78,3.28-24.53,6.83,2.64-3.13,4.28-7.09,4.6-11.18-4.24,2.51-8.14,5.58-11.57,9.11.21-2.07.42-4.13.63-6.2-2.41,1.69-4.09,4.37-4.57,7.28-9.61-9.35-21.02-5.73-27.49,2.86-3.97,5.27-4.8,11.46-5.66,18-.27,2.03.53,3.81.96,5.84.34,1.64.97,3.22,2.01,4.54,5.86,7.49,13.47,12.25,22.97,12.43,9.51.18,18.06-3.87,24.21-11.12,1.16-1.36,2.54-3.41,3.21-5.07,1.8-4.44,1.24-9.27-1.1-13.45-1.72-3.07-4.19-5.92-7.51-7.1,8.92-4.96,24.34-5.9,34.41-7.6-1.08,2.11-2.27,4.14-3.63,6.06-1.49,2.1-3.1,4.1-4.74,6.09-4.47,2.4-8.06,6.13-9.7,11-.35,1.05-.96,5.88-1.13,6.96-1.93,2.26-1.26,1.56-3.75,3.61-7.02,5.78-13.26,11.38-18.65,19.32-.72,1.06-1.4,2.06-2.06,3.04,0,0,0,0,0,0-5.18,3.14-10.89,2.8-15.58,3.89-4.69,1.09-9.24,3.26-12.51,6.79.16-1.77.32-3.54.48-5.31-1.6.82-3.12,1.77-4.57,2.84.22-3.66-.16-7.35-1.13-10.88-3.17,3.57-4.67,8.83-3.73,13.52-5.15-1.8-11.17.63-14.48,4.96-3.31,4.33-4.19,10.16-3.4,15.56.52,3.55,1.8,7.15,4.47,9.55,2.84,2.55,6.91,3.39,10.71,2.99,5.25-.55,10.27-3.42,13.17-7.83,2.9-4.41,3.52-10.31,1.33-15.11-.32-.7.08-1.31.83-1.49,2.97-.72,5.66-2.53,7.45-5-2.92-.5-5.9-.62-8.85-.35,4.32-3.96,9.32-6.35,15.18-6.34,2.62,0,3.46-.32,4.74,1.06,0,0,0,0,0,0-8.37,12.9-9.25,16.43-12.97,30.44-7.01,26.39-3.89,38.67-.38,54.18.19.85,1.43.75,1.48-.11.97-15.09-.1-4.27,1.16-22.92.42-6.28,1.11-11.64,2.46-18.45.77-3.88.12-3.83,2.51-11.6,2.71-8.82,1.7-8.63,7.62-20.23,2.84-5.56,7.43-12.75,12.27-18.81.02.18.03.37.07.55.67,3.54,4.04,6.11,6.13,9.04.8,1.12,1.46,2.3,2.03,3.51-3.76-.35-7.69.83-10.72,3.14-4.12,3.13-6.63,8.1-7.38,13.22-.74,5.12.17,10.39,1.95,15.25,2.43,6.61,8.37,11.76,15.15,13.69,6.78,1.93,14.42.5,20.04-3.75,5.86-4.43,7.93-12.96,6.84-20.23-.5-3.36-2.02-6.78-4.44-9.17-2.13-2.1-3.96-4.78-6.93-5.16,3-3.58,6.65-6.62,10.7-8.93-3.93-1.3-8.47-.56-11.78,1.91,2.11-2.54,3.3-5.83,3.31-9.13-2.64,2.75-5.29,5.49-7.93,8.24.69-2.9-.59-5.98-2.59-8.19-2-2.21-4.64-3.71-7.23-5.18.32,1.55.52,3.11.61,4.69-.68-.9-1.31-1.83-1.82-2.84-.87-1.71.21-5.41.94-7.18.47-1.12,1.17-1.91,1.76-2.63,3.1-2.58,6.44-4.89,9.26-7.77.11-.11.21-.23.31-.34.07.18.13.36.2.54,2.21,5.57,5.69,10.53,9.13,15.43,1.5,2.14,3.04,4.32,5.13,5.9,1.61,1.22,3.5,2.03,5.43,2.61,10.23,3.1,22.31-.63,28.64-9.25,6.33-8.62,6.13-21.59-.8-29.73,4.76.19,9.54-2.17,12.28-6.06,2.74-3.89,3.35-9.19,1.56-13.6-5.4,5.57-12.16,9.8-19.53,12.22.37-4.03,1.24-8.01,2.59-11.82-1.65.9-3.3,1.79-4.95,2.69,2.4-6.18,5.59-12.05,9.46-17.43-5.56,3.57-10.62,7.91-14.99,12.86-2.19-7.94-3.16-17.19.78-24.35.71-1.17,1.61-2.52,2.81-4.15ZM122.15,105.5c-.08.06-.15.13-.22.19.05-.09.11-.16.22-.19ZM111.42,160.58c-1.19-.43-2.42-.76-3.67-.99-8.02-.81-5.57-.76-3.71-4.25.2-.38.4-.76.64-1.12,1.41-2.14,3.4-4.86,4.39-6.99,0,0,0,0,0,0,1.34,4.37,2.55,8.79,2.35,13.36Z"/></g></svg>