<svg width="1380" height="1763" viewBox="0 0 1380 1763" fill="none" xmlns="http://www.w3.org/2000/svg">
<path d="M707.37 1191.12C709.373 1197.52 710.692 1204.12 712.035 1210.69C713.354 1217.17 714.65 1223.67 715.97 1230.15C719.056 1245.48 722.001 1262.15 714.933 1276.1C713.072 1279.79 709.019 1283.59 705.32 1281.73C704.025 1281.09 703.106 1279.84 702.281 1278.66C689.959 1261.14 679.781 1240.67 681.148 1219.29C681.572 1212.86 683.009 1206.52 684.022 1200.16C685.601 1190.08 686.048 1179.86 686.472 1169.66C686.567 1167.21 686.684 1164.72 686.166 1162.31C684.564 1154.68 677.543 1149.69 671.747 1144.48C665.951 1139.28 660.65 1131.32 663.76 1124.16C667.907 1129.98 678.085 1129.76 681.996 1123.78C680.771 1137.77 680.818 1145.69 690.477 1156.35C699.148 1165.92 703.53 1178.75 707.37 1191.12Z" fill="#F9DBD9"/>
<path opacity="0.5" d="M699.408 1200.3C700.633 1204.9 700.892 1209.7 701.151 1214.46C701.434 1219.55 702.636 1225.03 703.437 1230.07C703.955 1233.42 705.651 1234.86 706.405 1236.62C707.112 1238.27 709.492 1239.94 709.492 1239.94C712.46 1246.49 715.405 1253.23 717.054 1260.6C718.704 1267.97 716.654 1276.69 710.293 1280.78C709.515 1281.28 708.667 1281.7 707.748 1281.68C706.311 1281.61 705.227 1280.45 704.308 1279.35C698.489 1272.35 693.141 1263.68 689.654 1255.3C688.146 1251.7 689.89 1248.87 690.007 1245.67C690.054 1244.16 691.232 1242.44 692.104 1241.24C693.895 1238.79 694.672 1235.73 695.002 1232.71C696.039 1223.41 693.282 1214.18 691.444 1205.01C690.691 1201.27 692.128 1187.89 691.821 1181.23C691.704 1178.89 698.701 1197.62 699.431 1200.33L699.408 1200.3Z" fill="#061163"/>
<path opacity="0.5" d="M675.894 1127.81C675.375 1128 674.857 1128.19 674.339 1128.26C673.561 1128.37 672.76 1128.26 671.959 1128.12C670.546 1127.9 669.085 1127.67 667.883 1126.87C667.341 1126.51 666.729 1126.02 666.14 1126.3C665.409 1125.05 664.184 1124.13 662.794 1123.76C662.865 1125.29 661.875 1126.8 662.229 1128.3C662.512 1129.55 663.642 1130.45 664.067 1131.65C664.585 1133.13 663.972 1134.9 664.75 1136.26C665.033 1136.74 665.457 1137.11 665.857 1137.51C666.87 1138.53 667.671 1139.7 668.731 1140.67C669.792 1141.63 671.182 1142.34 672.595 1142.11C672.972 1141.59 672.902 1140.88 672.642 1140.29C672.383 1139.7 671.959 1139.23 671.629 1138.69C670.758 1137.23 670.64 1135.35 671.347 1133.77C672.218 1133.67 673.019 1134.29 673.679 1134.85C674.739 1135.75 675.799 1136.64 676.695 1137.7C677.119 1138.2 677.496 1138.74 678.014 1139.14C678.721 1139.68 679.687 1139.96 680.182 1140.72C680.464 1141.14 680.747 1141.52 681.053 1141.92C684.046 1145.76 682.231 1141.63 682.349 1141.05C682.467 1140.46 682.231 1139.87 682.066 1139.3C681.195 1136.01 681.313 1132.8 681.595 1129.06C681.713 1127.5 682.655 1125.48 681.949 1123.95C681.03 1124.35 680.182 1125.55 679.263 1126.14C678.226 1126.8 677.072 1127.31 675.917 1127.74L675.894 1127.81Z" fill="#E22C0E"/>
<path d="M665.53 1130.05C666.92 1132.31 667.391 1135.18 669.393 1136.92C668.922 1135.75 669.205 1134.31 668.498 1133.25C668.121 1132.66 667.462 1132.26 667.037 1131.69C666.543 1131.04 666.354 1130.21 666.048 1129.46C665.294 1127.57 664.516 1128.44 665.506 1130.07L665.53 1130.05Z" fill="#E22C0E"/>
<path d="M679.804 1130.66C679.969 1129.6 680.157 1128.56 680.322 1127.5C680.251 1128.87 679.026 1129.88 678.626 1131.18C678.461 1131.72 678.437 1132.28 678.414 1132.82C678.39 1133.91 678.037 1135.53 678.532 1136.48C680.039 1135.6 679.568 1132.17 679.804 1130.66Z" fill="#E22C0E"/>
<path d="M677.333 1131.65C677.333 1131.18 677.357 1130.71 677.522 1130.26C677.758 1129.6 678.323 1128.96 678.111 1128.28C677.546 1128.63 676.956 1129.01 676.627 1129.58C676.32 1130.12 676.25 1130.75 676.203 1131.37C676.132 1132.26 676.061 1133.16 675.991 1134.05C675.92 1134.83 675.731 1136.57 676.862 1135.7C677.71 1135.04 677.31 1132.57 677.333 1131.65Z" fill="#E22C0E"/>
<path d="M667.932 1130.33C668.309 1131.04 668.851 1131.67 669.417 1132.26C669.676 1132.52 669.959 1132.8 670.336 1132.85C669.864 1132.07 669.37 1131.32 668.875 1130.54C668.521 1130 668.003 1128.82 667.414 1128.56C667.414 1129.15 667.673 1129.81 667.956 1130.31L667.932 1130.33Z" fill="#E22C0E"/>
<path d="M701.716 1270.82C702.282 1272 702.494 1273.34 702.494 1274.64C701.716 1273.53 700.609 1272.66 699.761 1271.6C699.243 1270.94 697.782 1268.72 699.148 1268.37C700.209 1268.09 701.363 1270.09 701.716 1270.82Z" fill="#331612"/>
<path d="M715.498 1269.15C715.381 1270.12 715.593 1271.1 715.828 1272.05C715.875 1272.21 715.923 1272.38 716.064 1272.45C716.276 1272.54 716.488 1272.31 716.606 1272.09C717.265 1270.82 718.043 1266.21 716.064 1265.76C716.017 1266.91 715.663 1268 715.498 1269.15Z" fill="#331612"/>
<path d="M685.126 1230.33C683.289 1227.63 682.488 1224.38 681.215 1221.38C679.943 1218.39 681.192 1216.16 678.082 1215.17C679.401 1217.76 675.137 1220.09 674.383 1222.89C673.629 1225.69 673.299 1229.16 675.467 1231.11C676.221 1231.79 677.21 1232.19 678.011 1232.83C681.31 1235.37 679.425 1235.44 684.019 1243.29C687.435 1249.13 687.129 1233.28 685.15 1230.36L685.126 1230.33Z" fill="#E22C0E"/>
<path d="M720.305 1220.54C720.116 1217.57 720.988 1214.44 721.388 1211.4C721.789 1208.36 723.792 1206.83 721.812 1204.9C721.624 1207.61 717.218 1208.22 715.333 1210.43C713.449 1212.65 711.587 1215.54 712.365 1217.99C712.648 1218.84 713.213 1219.52 713.566 1220.35C714.98 1223.67 713.472 1223.1 713.449 1231.51C713.449 1237.75 720.54 1223.79 720.328 1220.58L720.305 1220.54Z" fill="#E22C0E"/>
<path d="M895.502 708.924C901.839 706.687 908.366 705.132 914.892 703.554C921.324 702 927.756 700.469 934.211 698.914C949.407 695.264 965.994 691.707 980.177 698.278C983.923 700.021 987.881 703.907 986.161 707.676C985.572 708.995 984.371 709.937 983.216 710.832C966.159 723.786 946.062 734.714 924.646 734.126C918.19 733.937 911.829 732.736 905.421 731.959C895.29 730.758 885.041 730.687 874.839 730.64C872.389 730.64 869.892 730.616 867.512 731.205C859.95 733.066 855.214 740.273 850.219 746.255C845.224 752.238 837.45 757.82 830.193 754.97C835.871 750.613 835.282 740.438 829.133 736.764C843.175 737.47 851.091 737.14 861.387 727.083C870.622 718.086 883.298 713.234 895.502 708.924Z" fill="#9C9AE2"/>
<path d="M904.973 716.53C909.52 715.141 914.302 714.717 919.061 714.269C924.15 713.798 929.569 712.409 934.588 711.419C937.91 710.784 939.276 709.041 941.02 708.216C942.645 707.439 944.224 705.013 944.224 705.013C950.656 701.81 957.276 698.63 964.603 696.699C971.907 694.768 980.695 696.511 985.03 702.705C985.548 703.459 986.019 704.307 986.019 705.225C986.019 706.662 984.889 707.792 983.828 708.758C977.043 714.811 968.585 720.487 960.315 724.279C956.758 725.928 953.883 724.279 950.679 724.279C949.171 724.279 947.404 723.172 946.179 722.348C943.658 720.652 940.572 719.993 937.556 719.757C928.226 719.074 919.109 722.16 910.014 724.326C906.292 725.221 892.886 724.279 886.242 724.821C883.91 725.009 902.381 717.331 905.043 716.53H904.973Z" fill="#0C397A"/>
<path opacity="0.5" d="M833.373 742.674C833.585 743.168 833.773 743.686 833.868 744.228C834.009 745.005 833.915 745.806 833.821 746.607C833.656 748.02 833.467 749.504 832.713 750.729C832.383 751.27 831.912 751.93 832.218 752.472C830.993 753.249 830.122 754.521 829.815 755.91C831.347 755.793 832.878 756.711 834.362 756.311C835.611 755.981 836.459 754.827 837.637 754.356C839.098 753.791 840.912 754.356 842.232 753.484C842.703 753.178 843.056 752.731 843.433 752.33C844.399 751.294 845.553 750.446 846.472 749.363C847.391 748.279 848.074 746.843 847.768 745.453C847.25 745.1 846.519 745.194 845.954 745.476C845.389 745.759 844.917 746.207 844.376 746.536C842.938 747.455 841.053 747.643 839.475 747.007C839.357 746.136 839.923 745.335 840.465 744.629C841.313 743.545 842.161 742.438 843.197 741.52C843.692 741.072 844.211 740.672 844.588 740.154C845.106 739.423 845.365 738.458 846.095 737.94C846.52 737.657 846.873 737.351 847.273 737.021C850.996 733.889 846.944 735.843 846.355 735.749C845.766 735.655 845.2 735.914 844.611 736.102C841.36 737.115 838.132 737.115 834.386 736.95C832.807 736.88 830.758 736.032 829.273 736.786C829.698 737.681 830.946 738.505 831.559 739.376C832.266 740.389 832.807 741.52 833.302 742.65L833.373 742.674Z" fill="#385AA5"/>
<path d="M835.988 752.965C838.179 751.482 841.053 750.916 842.703 748.844C841.525 749.338 840.087 749.126 839.051 749.857C838.462 750.257 838.108 750.916 837.543 751.364C836.907 751.882 836.082 752.118 835.328 752.447C833.491 753.272 834.362 754.025 835.964 752.965H835.988Z" fill="#0C397A"/>
<path d="M836.085 738.67C835.025 738.529 833.964 738.411 832.928 738.27C834.294 738.27 835.354 739.494 836.65 739.848C837.192 739.989 837.758 739.989 838.299 739.989C839.383 739.989 841.009 740.271 841.928 739.753C841.009 738.293 837.593 738.882 836.061 738.693L836.085 738.67Z" fill="#0C397A"/>
<path d="M837.168 741.097C836.697 741.097 836.226 741.097 835.778 740.955C835.118 740.743 834.459 740.202 833.799 740.437C834.176 740.979 834.553 741.544 835.142 741.874C835.684 742.156 836.32 742.204 836.956 742.227C837.851 742.274 838.746 742.298 839.642 742.345C840.419 742.368 842.163 742.51 841.244 741.426C840.561 740.626 838.11 741.097 837.168 741.097Z" fill="#0C397A"/>
<path d="M836.202 750.542C836.909 750.118 837.522 749.576 838.087 748.987C838.346 748.728 838.605 748.422 838.653 748.045C837.899 748.54 837.145 749.058 836.414 749.576C835.896 749.953 834.718 750.518 834.482 751.107C835.071 751.107 835.708 750.801 836.226 750.494L836.202 750.542Z" fill="#0C397A"/>
<path d="M975.301 711.561C976.479 710.949 977.822 710.666 979.165 710.643C978.057 711.49 977.233 712.645 976.173 713.54C975.536 714.105 973.322 715.659 972.898 714.27C972.568 713.21 974.571 711.938 975.277 711.561H975.301Z" fill="#331612"/>
<path d="M973.201 697.925C974.167 698.019 975.157 697.76 976.099 697.477C976.264 697.43 976.429 697.383 976.476 697.218C976.547 697.006 976.311 696.794 976.099 696.7C974.803 696.088 970.162 695.475 969.785 697.477C970.94 697.477 972.047 697.807 973.201 697.901V697.925Z" fill="#331612"/>
<path d="M935.531 729.672C932.892 731.603 929.688 732.522 926.719 733.911C923.751 735.301 921.512 734.123 920.617 737.279C923.162 735.866 925.636 740.035 928.463 740.695C931.29 741.354 934.753 741.542 936.638 739.329C937.298 738.551 937.675 737.562 938.264 736.714C940.667 733.323 940.832 735.207 948.489 730.331C954.19 726.704 938.382 727.576 935.531 729.695V729.672Z" fill="#0C397A"/>
<path d="M924.433 694.909C921.465 695.215 918.308 694.438 915.245 694.155C912.182 693.873 910.58 691.941 908.742 693.967C911.452 694.038 912.229 698.442 914.514 700.232C916.8 702.022 919.768 703.788 922.171 702.917C923.02 702.611 923.679 701.998 924.48 701.622C927.755 700.091 927.237 701.622 935.648 701.339C941.891 701.127 927.685 694.556 924.457 694.885L924.433 694.909Z" fill="#0C397A"/>
<path opacity="0.7" d="M1284.31 626.04L1286.17 595.986L1283.82 558.09L1281.46 520.194L1276.3 489.198L1272.77 470.215L1274.09 448.946L1264.19 418.257L1265.25 401.205L1261.72 382.104L1240.82 300.564L1202.6 269.875L1165.71 255.79L1075.33 266.672L1024.91 242.294L963.917 236.147L884.99 214.714L854.998 165.654L777.98 113.673L727.278 94.0061L623.213 59.2187L560.307 45.8643L544.734 30.7434L487.742 1.16109L478.2 0.572266L468.07 11.7363L449.127 50.669L435.038 87.5527L429.172 106.065L405.376 184.826L390.25 238.149L378.47 275.763L379.695 294.111L372.651 331.418L370.154 371.387L360.612 410.909L350.175 426.783L339.007 454.411L330.785 472.782L316.248 516.708L312.431 540.072L311.701 551.825L302.889 579.594L296.858 600.461L300.84 612.497L300.109 624.25L292.476 633.223L286.751 649.381L282.651 677.432L277.232 726.657L277.963 752.66L272.379 766.462L273.698 783.066L265.052 846.235L272.402 879.727L266.819 893.529L259.327 937.902L255.062 968.309L250.515 1003.43L250.963 1034.14L253.766 1064.99L243.329 1080.87L232.02 1110.85L219.227 1126.58L207.471 1163.61L198.518 1193.73L192.486 1214.6L166.476 1215.33L152.222 1216.81L128.261 1222.4L113.866 1226.21L99.6123 1227.7L85.0757 1233.87L72.8716 1240.18L60.2433 1253.56L52.3035 1267.22L42.314 1276.03L36.8716 1287.5L29.5209 1291.76L7.63349 1302.19L0 1311.17L6.17276 1325.7L21.4633 1345.53L34.8455 1358.15L38.8271 1370.19L59.1124 1385.62L65.5915 1395.46L83.9684 1403.68L88.2328 1411.03L111.157 1421.89L145.555 1438.19L149.112 1456.98L147.628 1480.79L159.102 1486.23L178.068 1485.06L195.267 1474.32L207.612 1465.65L222.455 1454.77L237.581 1439.2L262.272 1421.86L283.876 1416.14L306.141 1399.65L323.834 1380.86L349.114 1354.1L372.18 1324.85L408.18 1277.53L423.47 1259.61L443.897 1234.93L494.905 1249.91L520.467 1256.22L532.365 1254.59L551.025 1258.13L588.344 1265.17L597.603 1268.11L618.171 1278.83L655.208 1290.58L699.595 1298.07L706.074 1307.92L704.166 1338.46L708.43 1345.81L704.896 1364.47L684.611 1386.79L678.155 1414.7L672.289 1433.22L664.491 1444.52L640.977 1480.82L627.902 1501.24L611.457 1537.98L596.614 1586.62L584.857 1623.64L575.457 1660.81L573.996 1684.31L575.315 1700.92L579.132 1715.31L585.164 1732.2L594.423 1735.14L598.687 1742.49L609.855 1752.62L617.488 1760.18L628.42 1760.86L638.716 1761.5L654.101 1762.46L673.349 1756.57L692.739 1748.35L709.797 1739.97L721.836 1735.99L744.171 1718.49L770.912 1706.01L802.506 1691.45L821.755 1685.56L831.603 1679.08L854.079 1659.25L876.273 1644.11L889.207 1626.04L892.435 1612.08L888.901 1592.98L897.571 1567.56L906.83 1532.75L918.422 1498.08L923.699 1488.97L930.39 1494.1L941.322 1494.78L949.286 1495.28L959.275 1486.47L969.571 1472.95L978.1 1449.89L988.678 1431.66L1014.69 1393.15L1043.48 1347.74L1075.21 1293.08L1088.29 1272.66L1098.42 1261.49L1101.65 1247.53L1111.94 1234.01L1125.3 1208.88L1145.14 1155.84L1163.66 1123.95L1174.24 1105.72L1186.42 1061.65L1205.95 1013.32L1234.29 937.219L1269.99 819.078L1280.54 763.423L1284.5 700.043L1286.57 666.716L1284.38 625.946L1284.31 626.04ZM170.481 1340.09L169.28 1359.47L163.107 1382.7L159.573 1401.35L156.793 1408.25L149.583 1410.16L142.374 1412.07L133.115 1409.12L126.212 1406.34L119.45 1401.21L112.83 1393.72L106.209 1386.23L88.5626 1366.26L77.6778 1351.42L70.9161 1346.28L66.5103 1341.29L64.6019 1334.08L71.8113 1332.18L83.3794 1332.91L83.1202 1337.1L87.9736 1337.92L92.6856 1338.21L97.6804 1333.8L111.652 1337.03L128.403 1333.35L135.612 1331.45L149.725 1332.32L170.74 1335.99L170.481 1340.11V1340.09ZM740.448 1625.86L733.969 1654.21L732.933 1670.68L736.773 1684.71L736.302 1692.11L729.093 1694.02L702.493 1704.17L670.758 1721.08L645.784 1743.12L638.574 1745.03L627.69 1730.19L628.797 1712.29L639.281 1695.52L653.983 1687L673.82 1668.18L691.585 1651.6L706.875 1633.67L727.161 1611.35L744.784 1593.56L740.401 1625.9L740.448 1625.86Z" fill="white"/>
<path d="M909.255 497.82C921.459 492.614 933.639 487.386 945.844 482.181C957.812 477.07 970.11 471.723 979.228 462.443C988.04 453.47 993.176 441.576 1000.79 431.566C1005.99 424.712 1012.33 418.824 1018.62 412.982C1027.5 404.739 1036.39 396.472 1045.27 388.229C1046.75 394.093 1040.79 398.851 1036.01 402.525C1014.52 419.083 1004.3 445.862 993.011 470.522C981.702 495.158 966.2 520.831 940.543 529.639C947.752 539.296 937.668 553.734 925.865 556.254C914.061 558.774 902.092 554.181 890.194 552.062C878.956 550.06 867.459 550.319 856.056 550.578C843.404 550.86 830.469 551.214 818.642 555.689C806.815 560.164 796.072 569.632 793.645 582.068C792.938 585.742 792.962 589.511 792.302 593.185C790.771 601.734 785.658 609.177 780.687 616.29C764.101 640.055 747.491 663.82 730.904 687.584C733.119 665.445 755.336 651.549 766.975 632.565C782.383 607.434 778.567 574.178 793.362 548.67C804.011 530.299 825.522 514.754 845.336 507.406C866.399 499.61 887.438 507.17 909.255 497.82Z" fill="#E6EFED"/>
<path d="M510.831 111.978C525.014 92.7589 548.998 78.6508 552.485 55.0273C554.275 65.367 556.042 75.6831 557.833 86.0228C558.398 89.2966 559.082 92.806 561.438 95.1377C563.723 97.3752 567.045 98.0583 570.131 98.8591C584.055 102.557 596.566 111.342 604.765 123.213C610.961 132.21 614.637 142.644 618.241 152.96C624.603 171.19 630.964 189.419 637.325 207.626C639.398 213.561 641.495 219.732 640.835 225.997C640.105 233.086 635.935 239.281 631.883 245.145C619.89 262.48 607.733 279.697 595.435 296.797C588.65 306.241 580.427 316.487 568.836 317.641C564.006 298.351 555.83 279.909 544.781 263.399C542.66 260.219 540.304 257.016 536.865 255.32C533.236 253.53 528.995 253.719 525.037 252.965C500.346 248.207 497.378 207.649 495.187 188.101C492.242 161.816 494.645 133.906 510.807 111.978H510.831Z" fill="#E7F2F1"/>
<path d="M1054.25 487.078C1029.06 498.266 1006.51 515.318 988.915 536.515C987.807 537.834 986.7 539.248 986.37 540.943C985.946 543.181 986.936 545.395 987.949 547.444C993.179 557.972 999.281 569.654 995.818 580.889C1007.74 584.54 1019.05 574.553 1027.88 565.744C1052.27 541.414 1082.17 518.804 1116.61 517.72C1102.12 518.38 1088.03 525.21 1078.54 536.162C1073.99 541.391 1070.48 547.491 1065.6 552.39C1056.39 561.646 1043.13 565.909 1033.61 574.836C1027.13 580.912 1022.72 588.803 1016.83 595.444C1010.94 602.086 1002.65 607.692 993.839 606.608C983.331 605.313 975.98 594.644 974.873 584.116C973.765 573.587 977.347 563.201 980.881 553.214C983.896 544.688 987.195 535.785 994.027 529.874" fill="#D4E2DB"/>
<path d="M1049.3 283.583C1046.1 291.331 1048.12 300.187 1046.59 308.431C1045.3 315.379 1041.55 321.573 1037.87 327.603C1027.18 345.102 1016.48 362.602 1005.81 380.102C1013.35 375.462 1021.26 370.704 1030.08 370.092C1036.3 369.668 1042.49 371.364 1048.71 371.175C1079.39 370.233 1096.23 326.543 1126.93 327.202C1134.23 327.367 1141.33 330.193 1148.63 330.264C1165.57 330.382 1178.74 316.18 1189.55 303.131C1196.67 294.535 1204.16 285.019 1204.44 273.855C1204.49 272.159 1204.26 270.252 1202.96 269.168C1201.78 268.179 1200.13 268.155 1198.6 268.014C1187.98 267.025 1179.64 258.122 1169.22 255.743C1162.06 254.118 1154.61 255.72 1147.45 257.321C1127.14 261.843 1104.88 269.922 1084.05 270.157C1070.43 270.322 1056.51 266.083 1049.28 283.583H1049.3Z" fill="#E8FCFC"/>
<path d="M497.591 19.6034C499.594 22.2177 502.492 24.149 504.164 26.9989C507.251 32.2041 505.46 38.8224 503.316 44.4751C494.787 67.0622 481.924 87.7415 469.154 108.232C457.091 127.593 444.251 147.73 424.437 159.036C418.877 162.215 412.303 165.23 410.301 171.307C410.866 165.419 416.262 161.132 417.934 155.456C418.665 152.912 418.618 150.227 418.665 147.589C418.994 132.209 423.282 117.253 427.523 102.462C429.384 96.0086 431.246 89.5551 433.884 83.4078C436.146 78.1791 438.974 73.1859 441.023 67.863C445.123 57.1465 445.924 45.2994 450.683 34.842C453.392 28.9067 457.303 23.6309 461.167 18.4022C466.256 11.5248 473.748 1.30285 483.007 0.101658C493.939 -1.33506 492.361 12.8202 497.568 19.6034H497.591Z" fill="#EEEDEE"/>
<path d="M411.43 253.719C416.142 234.877 411.43 237.232 429.053 265.543C430.183 267.356 430.914 269.429 432.351 271.007C435.909 274.893 441.916 274.822 447.147 275.411C463.662 277.248 478.011 288.342 487.623 301.885C497.236 315.427 502.819 331.349 508.285 347.035C499.026 345.387 490.78 338.91 486.963 330.336C485.503 327.062 484.654 323.506 482.77 320.444C478.859 314.085 482.016 334.034 475.018 331.443C460.906 326.215 472.639 334.317 458.526 329.088C447.524 350.026 437.864 337.991 451.458 357.351C460.011 369.528 448.466 384.178 445.498 398.757C434.943 402.055 422.998 398.074 414.916 390.537C406.835 383 402.147 372.402 399.626 361.638C397.411 352.17 396.704 342.442 396.021 332.762C394.678 314.108 402.194 290.603 411.406 253.719H411.43Z" fill="#E2EDED"/>
<path d="M432.069 1221.41C438.76 1216.11 445.522 1210.76 453.344 1207.3C460.883 1203.98 469.106 1202.56 476.763 1199.5C508.781 1186.69 523.506 1148.86 552.744 1130.59C560.755 1125.57 569.967 1121.94 576.116 1114.76C586.742 1102.28 585.139 1082.66 595.647 1070.08C601.938 1062.54 611.55 1058.77 619.702 1053.29C627.854 1047.8 635.275 1038.61 633.037 1029.05C606.556 1047.49 578.307 1063.41 548.833 1076.56C528.807 1085.48 508.027 1093.23 490.098 1105.86C478.011 1114.36 467.339 1125 454.098 1131.55C440.15 1138.45 424.224 1140.38 409.993 1146.72C376.42 1161.68 354.863 1199.88 318.721 1206.54C315.8 1220.7 320.323 1237.05 311.818 1248.7C308.119 1253.79 302.512 1257.04 297.187 1260.39C276.407 1273.43 257.96 1289.78 239.606 1306.06C235.201 1309.96 230.536 1314.32 229.593 1320.14C228.886 1324.4 230.371 1328.74 232.303 1332.6C234.753 1337.52 238.169 1342.23 243.14 1344.59C248.111 1346.94 254.826 1346.19 258.054 1341.76C259.962 1339.12 260.386 1335.76 261.447 1332.67C266.512 1317.76 284.677 1312.34 300.368 1310.93C312.313 1309.85 328.357 1310.41 338.465 1302.85C346.192 1297.08 350.857 1286.44 358.467 1279.77C381.957 1259.26 407.637 1240.79 432.069 1221.41Z" fill="white"/>
<path d="M172.528 1293.15C171.609 1295.41 170.643 1297.74 168.852 1299.39C166.002 1302.03 161.761 1302.33 157.873 1302.4C138.436 1302.71 118.952 1300.45 100.104 1295.67C94.52 1294.26 88.7949 1292.61 83.0933 1293.41C77.0619 1294.26 71.7845 1297.76 66.13 1300.03C60.4756 1302.29 53.384 1303.06 48.8133 1299.04C47.7296 1290.13 56.1641 1283.26 63.6562 1278.29C72.0436 1272.73 80.4075 1267.19 88.7949 1261.63C84.4834 1261.89 80.1954 1262.93 76.2373 1264.67C74.4939 1261.52 74.4232 1257.47 76.0489 1254.26C105.051 1240.7 133.489 1229.23 165.931 1235.23C201.177 1241.76 182.329 1269.03 172.551 1293.17L172.528 1293.15Z" fill="white"/>
<path d="M188.766 1360.82C195.763 1363.95 200.546 1371.42 200.499 1379.07C200.475 1382.6 199.509 1386.16 200.122 1389.64C201.276 1396.15 207.425 1400.36 213.033 1403.82C221.373 1396.33 228.252 1387.2 233.129 1377.11C219.441 1375.3 205.988 1371.84 193.124 1366.82" fill="#D6DDD8"/>
<path d="M663.337 1250.09C664.326 1251.86 665.481 1253.84 667.436 1254.29C663.454 1243.26 651.816 1237.02 640.531 1233.82C629.646 1230.73 610.02 1229.98 602.316 1220.46C594.612 1210.95 598.358 1205.44 609.078 1205.41C629.599 1205.39 654.455 1234.24 663.337 1250.12V1250.09Z" fill="#D6DDD8"/>
<path d="M637.822 1198.96C628.351 1190.48 618.927 1180.92 606.652 1177.6C621.943 1175.38 639.024 1173.57 651.464 1182.73C660.134 1189.12 664.752 1199.69 672.715 1206.97C677.521 1211.37 719.034 1231.21 695.121 1236.69C681.409 1239.83 647.317 1207.46 637.822 1198.96Z" fill="#EEEDEE"/>
<path d="M707.582 1294.33C709.349 1285.4 717.831 1279.51 722.26 1271.55C725.7 1265.38 726.572 1258.17 727.396 1251.18C728.527 1241.59 729.658 1232.01 730.789 1222.42C736.514 1173.83 699.548 1128.73 709.915 1080.91C713.661 1063.65 724.805 1048.84 729.54 1031.83C735.006 1012.23 731.59 991.367 728.15 971.323C726.383 961.054 724.404 950.314 717.807 942.259C711.328 934.346 699.996 926.997 702.917 917.199C721.247 922.546 725.983 945.698 728.574 964.587C735.713 1016.71 751.027 1067.73 773.763 1115.18C782.48 1133.34 792.305 1151.13 798.077 1170.42C802.459 1185.11 804.391 1200.42 806.299 1215.66C810.564 1249.67 814.828 1284.15 810.116 1318.11C796.192 1314.82 781.373 1320.14 770.04 1328.88C758.708 1337.62 750.273 1349.46 741.98 1361.12C734.017 1372.36 725.7 1384.56 725.7 1398.34C725.7 1407.45 729.399 1416.12 731.779 1424.93C734.158 1433.74 735.03 1443.82 729.988 1451.4C724.946 1458.98 712.035 1461.34 706.923 1453.78C703.789 1449.16 704.637 1443.02 705.627 1437.53C709.444 1415.95 713.26 1394.38 717.077 1372.78C720.705 1352.34 724.263 1330.9 717.878 1311.14C716.441 1306.69 710.951 1297.58 707.582 1294.33Z" fill="#D6DDD8"/>
<path d="M863.007 1266.65C866.353 1261.24 870.287 1255.94 871.583 1249.72C872.879 1243.5 870.57 1235.94 864.586 1233.58C870.9 1222.56 877.45 1210.39 875.259 1197.88C873.539 1188.03 867.107 1176.26 874.552 1169.45C878.557 1165.8 884.753 1165.94 889.63 1163.49C902.612 1156.94 899.266 1138.05 894.036 1124.65C885.766 1121.19 880.23 1112.24 880.913 1103.43C881.738 1111.96 886.143 1120.08 892.882 1125.52C898.371 1123.57 901.01 1117.21 900.892 1111.46C900.774 1105.72 898.63 1100.23 897.523 1094.6C894.437 1078.98 898.819 1060.92 888.782 1048.46C885.06 1043.84 878.698 1040.52 873.091 1042.6C870.712 1043.47 868.78 1045.19 866.848 1046.81C851.463 1059.72 832.473 1068.46 812.518 1071.8C811.411 1050.98 811.481 1030.09 812.777 1009.29C813.154 1003.05 816.288 994.713 822.508 995.984C829.269 986.54 837.35 978.014 846.468 970.712C838.952 967.65 830.966 965.719 822.861 964.989C822.437 962.21 822.013 959.43 821.589 956.675C830.801 955.238 837.657 946.9 839.848 938.021C842.039 929.142 840.437 919.768 838.246 910.865C834.641 896.215 829.505 881.918 822.932 868.281C845.549 894.755 855.233 930.249 878.628 956.086C888.829 967.344 901.316 976.412 911.895 987.317C922.473 998.222 931.426 1011.88 931.85 1026.93C932.109 1035.74 929.494 1045.04 933.217 1053.1C937.269 1061.86 947.4 1066.05 953.997 1073.14C960.429 1080.04 963.256 1089.42 965.094 1098.6C971.172 1128.96 968.298 1161 956.918 1189.82C963.232 1186.83 971.101 1191.24 974.235 1197.41C977.392 1203.56 977.086 1210.81 976.709 1217.66C975.978 1231.37 974.046 1247.22 962.243 1254.57C955.128 1259 946.057 1259.12 938.423 1262.6C923.863 1269.24 916.725 1287 901.693 1292.58C901.175 1281.44 892.057 1271.25 880.89 1269.31C868.827 1281.4 859.238 1295.01 849.272 1308.69C848.918 1294.54 855.562 1278.78 863.007 1266.68V1266.65Z" fill="white"/>
<path d="M1056.15 788.177C1068.34 821.151 1076.58 857.446 1067.02 891.267C1062.09 871.106 1057.17 850.945 1052.27 830.784C1047.34 810.646 1042.4 790.391 1034.27 771.313C1022.89 744.604 1003.03 719.992 996.43 691.752C1027.98 702.539 1045.55 759.419 1056.18 788.153L1056.15 788.177Z" fill="white"/>
<path d="M1075.1 801.368C1073.31 809.164 1075.15 817.69 1079.98 824.073C1096.66 782.926 1118.88 744.041 1145.88 708.806C1150.63 702.588 1155.84 695.286 1154.05 687.679C1150.92 674.254 1147.62 662.336 1144.11 649.005C1142.81 644.106 1141.47 639.089 1138.62 634.921C1135.77 630.752 1131.03 627.454 1125.99 627.714C1122.76 630.775 1123.12 636.122 1125.02 640.149C1126.93 644.177 1130.07 647.498 1131.97 651.525C1136.4 660.876 1133.84 673.029 1140.24 681.155C1131.83 691.4 1123.05 702.564 1122.01 715.777C1121.8 718.486 1121.75 721.618 1119.63 723.338C1118.38 724.35 1116.71 724.586 1115.11 724.845C1106.84 726.141 1098.07 729.014 1093.31 735.915C1091.4 738.671 1090.27 741.897 1089.19 745.077C1084.45 758.738 1079.72 772.422 1074.98 786.082C1073.19 791.288 1072.51 796.54 1075.15 801.368H1075.1Z" fill="#D6DDD8"/>
<path d="M582.855 76.0363C590.324 95.6793 615.58 101.968 627.855 119.02C643.311 140.5 633.628 171.237 642.863 196.038C648.918 212.289 663.007 225.573 664.798 242.837C666.8 261.891 653.347 278.614 641.709 293.852C616.664 326.638 596.756 363.003 576.942 399.204C603.235 399.604 629.481 402.501 655.232 407.801C660.792 408.955 666.659 410.203 672.054 408.366C675.871 407.071 679.028 404.362 682.067 401.701C691.703 393.292 701.363 384.907 710.999 376.499C720.4 368.326 730.672 358.034 729.258 345.668C728.905 342.512 727.774 339.498 727.42 336.342C726.03 324.236 735.714 314.037 744.36 305.44C756.918 292.981 769.57 278.331 770.536 260.667C771.36 245.263 763.114 231.014 755.151 217.824C745.538 201.902 735.902 185.981 726.29 170.059C721.79 162.616 717.266 155.127 711.47 148.626C702.941 139.064 692.01 132.045 681.243 125.144C655.656 108.751 630.07 92.3584 604.484 75.9657C596.096 70.5956 586.578 63.1058 576.871 61.4336C579.18 66.0499 581.041 71.0902 582.926 76.0363H582.855Z" fill="#EBF8F8"/>
<path d="M342.518 708.005C346.382 714.882 349.657 722.395 355.736 727.436C362.639 733.183 372.298 734.925 379.013 740.908C388.932 749.764 389.521 764.814 389.356 778.121C384.503 777.179 384.879 770.278 383.372 765.591C381.463 759.656 375.338 756.358 369.754 753.626C359.034 748.421 348.338 743.192 337.618 737.987C327.369 732.994 316.908 727.86 308.945 719.663C301.005 711.49 295.963 699.549 299.003 688.55C307.885 705.343 322.846 718.815 340.469 725.928C340.798 723.785 339.314 721.83 337.924 720.158C330.503 711.09 308.804 685.041 314.6 673.547C325.72 681.955 335.662 695.781 342.542 708.005H342.518Z" fill="#E2EBE6"/>
<path d="M647.41 1544.06C643.122 1556.28 636.502 1567.52 630.894 1579.2C614.944 1612.24 606.934 1649.05 607.735 1685.73C612.305 1682.48 616.852 1679.23 621.423 1675.95C614.496 1691.38 609.266 1707.58 605.873 1724.14C613.695 1730.26 620.434 1737.75 625.687 1746.16C606.274 1735 584.716 1720.75 582.031 1698.54C580.617 1686.81 584.952 1675.25 586.766 1663.59C588.792 1650.52 587.638 1637.09 589.688 1624.02C591.832 1610.38 597.415 1597.54 603.235 1585.01C620.693 1547.4 639.776 1504.89 665.975 1472.64C665.269 1492.64 654.36 1524.34 647.457 1544.06H647.41Z" fill="white"/>
<path d="M789.687 1642.91C795.129 1632.31 792.797 1619.4 796.142 1607.98C799.323 1597.1 807.31 1588.43 813.883 1579.17C820.457 1569.92 825.946 1558.54 823.072 1547.59C818.407 1555.24 813.718 1562.88 809.053 1570.53C800.996 1583.7 792.915 1596.93 786.459 1610.95C779.25 1626.61 765.915 1654 767.917 1670.65C775.928 1665.5 785.375 1651.34 789.711 1642.88L789.687 1642.91Z" fill="#D8D6DD"/>
<path d="M578.256 1027.59C581.814 1024.15 585.442 1020.78 588.623 1016.99C601.887 1001.16 606.057 979.92 613.031 960.465C619.487 942.471 628.675 925.442 640.172 910.156C640.832 923.346 642.741 939.527 635.508 950.596C632.115 955.778 627.285 959.853 623.633 964.869C619.416 970.687 616.989 977.564 614.586 984.324C612.748 989.529 610.887 994.97 611.523 1000.46C612.607 1009.64 620.618 1018.29 617.531 1027.03C619.817 1023.89 617.178 1019.51 614.209 1017.04C611.241 1014.57 607.495 1012.14 607.047 1008.3C605.421 1007.64 603.324 1008.75 602.947 1010.47C595.738 1019.82 589.872 1030.2 585.584 1041.2C583.652 1046.15 580.848 1052.16 575.523 1052.3C577.29 1043.32 578.374 1036.71 578.209 1027.57L578.256 1027.59Z" fill="#DAE1DE"/>
<path d="M856.246 210.123C859.403 218.531 867.909 220.745 875.566 225.432C886.474 232.145 896.463 235.56 908.997 238.198C921.555 240.812 935.173 248.914 946.034 242.084C941.935 251.976 928.764 254.049 918.139 252.612C907.513 251.199 899.408 256.239 889.702 260.738C877.498 266.39 870.382 272.962 864.822 285.209C855.304 306.148 836.998 322.941 815.322 330.642C820.529 326.003 825.076 320.609 828.775 314.697C831.249 310.74 826.348 304.97 828.445 300.801C830.307 297.08 828.94 295.101 830.801 291.38C839.024 274.893 839.943 266.862 835.513 248.985C833.181 239.611 845.197 220.934 842.958 211.536C842.11 207.98 844.937 201.879 846.964 191.634C848.071 185.981 854.856 206.425 856.246 210.123Z" fill="#DFEAE9"/>
<path d="M298.464 1124.67C299.971 1124.32 301.621 1124.06 302.987 1124.77C304.33 1125.48 305.06 1126.94 305.626 1128.33C307.628 1133.2 308.83 1138.41 309.136 1143.66C309.419 1148.32 309.018 1153.03 309.631 1157.67C310.244 1162.31 312.011 1167.05 315.733 1169.9C317.995 1161.96 318.466 1153.53 317.052 1145.38C316.699 1143.4 316.251 1141.4 316.44 1139.4C316.628 1137.53 317.359 1135.77 317.665 1133.91C318.183 1130.82 317.5 1127.69 317.005 1124.6C314.791 1111.23 315.686 1097.49 317.524 1084.07C318.16 1079.48 318.914 1074.86 320.681 1070.6C321.906 1067.65 323.602 1064.92 325.299 1062.21C334.699 1047.09 344.147 1031.9 355.644 1018.33C346.503 1023.68 338.162 1030.42 331 1038.24C319.785 1050.48 311.634 1065.16 303.6 1079.69C301.762 1082.99 299.948 1086.28 298.11 1089.6C296.508 1092.53 294.882 1095.42 293.186 1098.3C288.922 1105.5 284.115 1112.4 278.814 1118.9C276.765 1121.42 274.621 1123.92 273.019 1126.77C271.911 1128.77 271.063 1130.92 270.238 1133.04C268.118 1138.5 266.021 1143.96 263.901 1149.43C262.958 1151.85 261.922 1154.89 264.136 1156.75C267.034 1155.08 267.977 1149.59 269.602 1146.7C271.605 1143.14 274.126 1139.84 277 1136.92C282.843 1131.01 290.288 1126.63 298.393 1124.7L298.464 1124.67Z" fill="#EEEDEE"/>
<path d="M358.727 1104.99C359.057 1093.82 352.743 1083.67 346.641 1074.32C344.874 1071.59 343.083 1068.88 341.316 1066.15C347.089 1065.42 351.494 1071 354.604 1075.92C357.102 1079.88 359.599 1083.83 362.096 1087.77C366.125 1094.17 370.743 1101.03 377.929 1103.38C384.031 1105.36 391.335 1103.85 396.471 1107.69C390.251 1111.39 382.123 1108.54 375.172 1110.59C364.358 1113.79 361.178 1127.29 351.447 1131.13C350.976 1122.44 358.445 1114.15 358.704 1104.99H358.727Z" fill="#D4E0D7"/>
<path d="M305.222 1372.76C303.242 1377.07 299.119 1379.92 295.797 1383.33C292.287 1386.94 289.625 1391.29 286.421 1395.18C283.216 1399.07 279.258 1402.65 274.358 1403.87C271.601 1404.55 268.703 1404.46 265.9 1404.84C262.931 1405.24 259.067 1407.69 256.664 1406.65C265.711 1390.54 288.376 1378.41 305.245 1372.76H305.222Z" fill="#E7E6E2"/>
<path d="M209.709 1423.98C212.913 1423.11 216.282 1422.57 219.227 1421.04C222.243 1419.49 224.693 1417.01 227.049 1414.59C234.965 1406.51 243.023 1398.34 252.8 1392.66C254.661 1391.58 256.664 1390.54 257.96 1388.82C259.161 1387.24 259.68 1385.26 260.763 1383.61C262.154 1381.5 264.392 1380.11 266.559 1378.79C274.994 1373.6 283.405 1368.42 291.839 1363.24C301.146 1357.52 310.499 1351.77 320.677 1347.81C332.221 1343.32 345.792 1340.35 352.365 1329.84C339.949 1335.26 327.486 1340.68 314.528 1344.63C307.46 1346.78 300.132 1348.54 293.889 1352.48C289.177 1355.45 285.29 1359.52 280.837 1362.84C267.054 1373.09 248.135 1375.94 236.638 1388.7C232.68 1393.08 229.9 1398.41 226.106 1402.93C222.007 1407.83 186.879 1430.25 189.965 1434.75C196.279 1430.3 202.004 1426.06 209.662 1423.98H209.709Z" fill="#EEEDEE"/>
<path d="M358.3 1309.87C361.34 1308.29 364.874 1307.44 368.219 1308.2C367.842 1308.93 367.489 1309.66 367.112 1310.39C365.251 1314.09 363.107 1318.07 359.313 1319.72C357.334 1320.56 347.274 1323.2 346.544 1320.02C346.002 1317.71 356.392 1310.88 358.3 1309.89V1309.87Z" fill="#D4E0D7"/>
<path d="M214.964 1239.9C214.093 1238.36 213.221 1236.43 214.187 1234.97C215.271 1233.32 217.697 1233.56 219.653 1233.82C223.729 1234.31 228.017 1233.87 231.621 1231.89C235.226 1229.91 237.959 1226.19 238.171 1222.09C238.407 1217.8 235.933 1213.54 236.828 1209.35C237.182 1207.7 238.053 1206.17 238.289 1204.5C239.043 1199.41 234.048 1194.04 236.569 1189.54C237.818 1191.97 239.114 1194.49 241.281 1196.13C243.449 1197.78 246.771 1198.28 248.844 1196.51C249.975 1195.55 250.54 1194.11 251.082 1192.74C252.778 1188.43 254.498 1183.89 253.768 1179.32C253.415 1177.15 252.496 1174.98 252.873 1172.82C253.25 1170.65 255.771 1168.65 257.585 1169.9C255.936 1175.01 258.786 1180.4 259.187 1185.75C259.894 1195.17 252.025 1204.02 242.718 1205.72C243.048 1211.04 243.025 1216.41 242.624 1221.74C242.247 1226.92 241.093 1232.74 236.71 1235.54C234.402 1237 231.574 1237.35 228.983 1238.22C226.391 1239.09 223.729 1240.84 223.234 1243.52C222.386 1248.4 228.252 1251.55 228.582 1256.15C223.069 1257.32 217.226 1243.92 214.941 1239.99L214.964 1239.9Z" fill="#D4E0D7"/>
<path d="M489.272 970.782C490.733 973.444 493.207 975.94 496.246 975.94C497.848 975.94 499.38 975.234 500.84 974.551C505.835 972.195 510.806 969.84 515.801 967.485C508.215 976.341 500.628 985.22 493.042 994.076C492.17 995.089 491.298 996.125 490.851 997.373C490.168 999.375 490.686 1001.54 490.78 1003.66C490.945 1007.67 489.461 1011.55 488 1015.3C480.72 1033.93 473.299 1052.86 460.977 1068.62C464.911 1047.07 468.846 1025.47 475.325 1004.56C477.728 996.784 480.508 988.8 479.424 980.745C478.953 977.283 477.799 973.938 477.681 970.452C477.586 967.697 478.977 961.384 482.793 961.22C486.61 961.055 487.812 968.144 489.249 970.759L489.272 970.782Z" fill="#EEEDEE"/>
<path d="M556.515 909.028C562.924 903.634 569.874 898.57 574.256 891.434C577.437 886.252 579.039 880.293 580.5 874.405C586.767 849.251 591.219 823.649 593.764 797.859C594.424 791.146 596.002 783.02 602.387 780.854C613.767 803.488 606.746 830.715 598.288 854.574C594.754 864.56 590.984 874.452 587.238 884.344C578.827 906.484 569.544 929.848 550.555 944.004C549.094 943.391 547.657 942.779 546.196 942.166C546.196 942.166 518.183 964.494 525.911 943.556C530.599 930.838 546.432 917.507 556.515 909.004V909.028Z" fill="#D4E0D7"/>
<path d="M565.513 940.917C572.346 935.642 578.895 929.612 582.665 921.84C585.068 916.894 587.424 910.44 592.89 909.922C591.052 913.808 589.992 918.071 589.827 922.358C589.686 926.079 590.181 929.824 589.733 933.522C588.838 940.988 583.937 947.677 577.529 951.61C573.288 954.225 556.089 960.655 551.778 955.52C547.466 950.386 561.697 943.838 565.513 940.894V940.917Z" fill="#D6DDD8"/>
<path d="M297.094 830.855C301.287 834.294 303.502 839.523 305.552 844.516C306.447 846.683 307.342 848.873 308.238 851.04C306.4 852.053 304.232 850.592 302.654 849.203C299.379 846.329 284.348 836.649 284.395 832.033C284.489 825.273 293.583 827.958 297.094 830.832V830.855Z" fill="#D4E0D7"/>
<path d="M319.384 583.644C320.209 582.914 321.151 582.255 321.717 581.289C322.518 579.97 322.494 578.298 322.471 576.767C322.353 568.665 323.177 560.539 324.874 552.602C332.696 561.74 331.753 575.919 338.963 585.552C340.235 587.248 341.743 588.779 342.662 590.71C343.58 592.641 343.722 595.091 342.332 596.692C340.871 598.388 337.761 599.401 338.279 601.568C338.421 602.227 338.915 602.745 339.363 603.24C345.324 609.717 349.211 618.102 350.271 626.84C348.08 624.367 346.337 621.541 344.264 618.973C340.282 614.027 335.193 610.141 330.151 606.278C328.007 604.653 325.698 602.934 322.989 602.84C317.382 602.651 316.416 604.017 314.601 598.2C313.046 593.23 315.662 586.989 319.408 583.668L319.384 583.644Z" fill="#D4E0D7"/>
<path d="M837.917 353.487C848.99 350.025 860.393 346.115 868.734 338.084C877.993 329.157 882.281 316.321 890.15 306.17C908.291 282.758 941.063 277.812 970.514 274.656C968.699 304.191 966.909 333.727 965.095 363.262C964.718 369.503 964.247 376.027 960.901 381.327C958.521 385.072 954.917 387.827 951.312 390.418C906.076 422.874 849.98 439.926 794.331 438.113C784.435 437.783 774.47 436.911 764.716 438.489C757.695 439.62 750.909 442.022 743.841 442.705C736.773 443.388 728.998 442.022 724.145 436.841C707.417 418.964 749.284 389.971 761.629 382.787C785.236 369.009 812.001 361.59 837.917 353.511V353.487Z" fill="#E2EDED"/>
<path d="M1149.22 584.635C1150.8 577.711 1155.13 571.822 1159.25 566.052C1184.25 531.217 1205.53 493.345 1218.48 452.48C1226.02 491.79 1229.06 531.948 1227.55 571.94C1227.32 578.064 1226.97 584.282 1224.89 590.029C1220.02 603.572 1207.48 612.828 1201.21 625.711C1196.15 636.121 1198.95 649.994 1184.39 651.148C1162.18 652.891 1145.52 600.887 1149.22 584.659V584.635Z" fill="#EBEDEA"/>
<path d="M1114.82 382.245C1121.16 375.815 1131.55 376.993 1140.57 377.252C1148.98 377.511 1157.61 376.522 1165.17 372.871C1186.8 362.414 1197 332.054 1220.87 329.369C1221.39 334.433 1221.9 339.497 1222.4 344.561C1224.73 367.572 1226.92 391.643 1218.25 413.076C1210.81 431.518 1195.63 446.379 1177.73 455.094C1158.86 464.303 1111.03 478.435 1104.08 449.371C1101.35 437.971 1107.57 389.546 1114.8 382.245H1114.82Z" fill="#E8FCFC"/>
<path d="M491.913 744.392C490.122 737.232 486.588 730.661 483.785 723.854C478.389 710.735 476.245 694.177 485.599 683.508C489.533 679.009 495.141 676.065 498.462 671.096C500.983 667.327 501.926 662.758 502.821 658.33C503.504 663.841 506.779 668.693 508.004 674.134C508.758 677.455 508.711 680.87 508.64 684.262C508.334 704.658 508.051 725.055 507.745 745.452C507.698 749.385 507.627 753.342 506.661 757.134C504.8 764.482 498.839 773.974 492.101 777.177C491.771 766.108 494.74 755.627 491.936 744.415L491.913 744.392Z" fill="white"/>
<path d="M409.144 683.603C412.042 678.633 415.977 673.829 416.966 668.6C418.568 660.145 413.385 656.541 413.762 647.049C414.704 622.837 393.783 621.424 413.762 599.944C420.453 592.737 400.191 539.837 399.626 531.641C376.914 537.27 406.223 568.878 402.076 581.337C394.513 604.089 386.974 626.817 379.411 649.569C377.998 653.832 376.584 658.213 378.681 662.571C381.626 668.718 391.168 674.135 393.265 680.329C395.291 686.312 390.037 691.87 386.809 697.452C379.458 710.194 374.723 730.968 387.846 743.616C390.791 746.466 385.231 757.535 392.558 753.037C395.88 750.988 410.628 729.437 409.05 726.493C401.346 712.149 401.204 697.193 409.144 683.603Z" fill="white"/>
<path opacity="0.5" d="M165.672 1223.22C157.379 1223.08 149.156 1219.03 141.099 1220.86C136.292 1221.97 132.217 1225.03 127.717 1227.04C114.97 1232.74 99.1145 1229.79 87.4287 1237.45C85.9679 1238.39 84.5779 1239.52 82.9287 1240.04C80.9025 1240.7 78.6643 1240.39 76.6381 1241.1C71.9261 1242.72 69.3109 1249.29 64.3633 1248.87C71.4078 1242.13 70.2298 1239.59 79.2297 1235.87C85.3083 1233.35 96.3815 1227.95 102.79 1226.45C107.525 1225.34 116.855 1224.77 121.567 1223.67C132.499 1221.1 141.075 1213.52 152.266 1214.67C162.892 1215.78 187.606 1212.31 192.318 1214.67C185.25 1217.03 172.551 1223.34 165.695 1223.22H165.672Z" fill="#587264"/>
<path opacity="0.5" d="M409.195 1273.39C409.855 1272.09 410.467 1270.77 411.198 1269.55C412.965 1266.58 415.439 1264.13 417.842 1261.66C423.52 1255.82 428.891 1249.69 433.957 1243.31C438.881 1237.09 444.229 1230.15 452.028 1228.62C446.467 1232.27 442.156 1237.49 437.939 1242.63C430.329 1251.89 422.719 1261.14 415.132 1270.4C413.46 1272.42 411.81 1274.45 410.138 1276.47C402.174 1286.18 394.635 1296.75 385.965 1305.82C387.708 1300.07 393.622 1294.52 397.392 1289.97C401.727 1284.74 406.109 1279.47 409.219 1273.41L409.195 1273.39Z" fill="#587264"/>
<path opacity="0.5" d="M730.177 1692.11C732.439 1691.8 734.842 1691.57 736.727 1690.25C742.287 1686.36 738.988 1677.86 736.703 1671.45C726.101 1641.75 751.852 1607.88 740.567 1578.44C750.509 1602.68 743.96 1630.07 739.483 1655.88C738.517 1661.47 737.646 1667.21 738.871 1672.73C740.096 1678.31 743.418 1683.56 742.923 1689.26C742.028 1699.53 730.106 1704.38 720.258 1707.47C694.978 1715.43 671.771 1732.64 647.033 1739.61C671.135 1720.77 698.748 1696.3 730.177 1692.06V1692.11Z" fill="#587264"/>
<path opacity="0.5" d="M180.281 1299.3C174.745 1314.96 169.208 1330.67 165.58 1346.87C159.666 1373.32 158.889 1400.88 150.619 1426.69C163.106 1411.71 170.48 1392.54 171.211 1373.06C171.635 1361.4 169.915 1349.06 175.192 1338.65C178.632 1331.85 184.805 1326.57 187.373 1319.39C192.462 1305.09 189.258 1288.6 194.37 1273.74C197.81 1263.75 205.938 1252.92 201.132 1242.2C191.449 1258.55 186.713 1281.07 180.281 1299.32V1299.3Z" fill="#587264"/>
<path d="M1066.38 1198.23C1070.53 1185.58 1071.96 1172.23 1080.21 1160.66C1086.67 1151.6 1096.87 1144.25 1105.73 1136.29C1133.22 1111.65 1148.32 1080.02 1147.73 1048.44C1147.62 1041.84 1146.88 1035.01 1150.21 1028.89C1153.67 1022.53 1161.02 1017.77 1167.55 1012.8C1192.83 993.581 1208.4 967.862 1210.78 941.459C1208.42 982.276 1135.88 1003.33 1120.59 1042.67C1113.97 1059.69 1119.06 1078.18 1112.82 1095.28C1104.81 1117.19 1079.31 1134 1070.62 1155.77C1062.28 1176.68 1077.71 1226.4 1045.2 1236.83C1051.84 1224.07 1061.88 1212.03 1066.38 1198.25V1198.23Z" fill="#D6DDD8"/>
<path opacity="0.5" d="M566.879 616.101C571.026 630.751 586.976 624.792 595.198 637.628C602.102 648.415 608.769 667.305 618.759 675.313C647.007 697.994 666.327 731.745 700.253 744.44C674.95 727.647 633.413 680.706 618.759 654.115C595.575 612.026 538.654 536.351 489.178 484.535C496.246 533.996 550.481 558.161 566.879 616.101Z" fill="#85A090"/>
<path opacity="0.5" d="M635.228 581.974C650.166 653.598 712.176 706.38 755.102 765.639C764.762 778.97 774.422 792.3 784.081 805.631C788.252 775.696 756.163 755.275 737.927 731.157C723.838 712.527 709.325 698.56 698.864 677.669C688.121 656.189 681.241 628.043 666.328 609.225C640.93 577.193 583.914 537.907 570.721 502.248C621.116 545.774 628.184 548.129 635.252 581.998L635.228 581.974Z" fill="#85A090"/>
<path opacity="0.5" d="M475.63 1224.89C489.672 1229.32 505.363 1223.83 519.217 1219.19C523.457 1217.76 527.58 1215.9 532.01 1215.12C541.481 1213.45 551.07 1216.86 559.999 1220.23C553.874 1222.89 547.748 1225.58 541.646 1228.24C538.23 1229.72 534.696 1231.3 532.387 1234.05C530.313 1236.53 529.442 1239.66 528.075 1242.53C524.282 1250.57 521.808 1256.99 512.714 1254.71C503.62 1252.43 497.023 1250.75 486.798 1247.64C477.397 1244.79 472.662 1242.93 446.746 1235.87C435.225 1232.74 465.594 1221.74 475.607 1224.92L475.63 1224.89Z" fill="#85A090"/>
<path d="M249.668 922.217C256.005 919.98 262.532 918.425 269.058 916.847C275.49 915.293 281.922 913.762 288.377 912.207C303.573 908.557 320.16 905 334.343 911.571C338.089 913.314 342.047 917.2 340.327 920.969C339.738 922.288 338.537 923.23 337.382 924.125C320.325 937.079 300.228 948.007 278.812 947.419C272.356 947.23 265.995 946.029 259.587 945.252C249.456 944.051 239.207 943.98 229.006 943.933C226.555 943.933 224.058 943.909 221.678 944.498C214.116 946.359 209.38 953.566 204.385 959.548C199.39 965.531 191.616 971.113 184.359 968.263C190.037 963.906 189.448 953.731 183.299 950.057C197.341 950.763 205.257 950.433 215.553 940.376C224.788 931.379 237.464 926.527 249.668 922.217Z" fill="#96C18A"/>
<path opacity="0.5" d="M259.164 929.847C263.711 928.457 268.494 928.033 273.253 927.586C278.342 927.115 283.761 925.725 288.779 924.736C292.101 924.1 293.467 922.357 295.211 921.533C296.837 920.756 298.415 918.33 298.415 918.33C304.847 915.126 311.467 911.947 318.795 910.015C326.098 908.084 334.886 909.827 339.221 916.021C339.74 916.775 340.211 917.623 340.211 918.542C340.211 919.978 339.08 921.109 338.02 922.074C331.234 928.127 322.776 933.804 314.507 937.596C310.949 939.244 308.075 937.596 304.871 937.596C303.363 937.596 301.596 936.489 300.371 935.664C297.85 933.969 294.763 933.309 291.748 933.074C282.418 932.391 273.3 935.476 264.206 937.643C260.483 938.538 247.078 937.596 240.434 938.137C238.101 938.326 256.572 930.648 259.235 929.847H259.164Z" fill="#0B3F05"/>
<path opacity="0.5" d="M187.539 955.99C187.751 956.485 187.939 957.003 188.034 957.545C188.175 958.322 188.081 959.123 187.987 959.923C187.822 961.337 187.633 962.82 186.879 964.045C186.549 964.587 186.078 965.246 186.384 965.788C185.159 966.565 184.288 967.837 183.981 969.227C185.513 969.109 187.044 970.028 188.528 969.627C189.777 969.297 190.625 968.143 191.803 967.672C193.264 967.107 195.078 967.672 196.398 966.801C196.869 966.495 197.222 966.047 197.599 965.647C198.565 964.61 199.72 963.763 200.638 962.679C201.557 961.596 202.24 960.159 201.934 958.769C201.416 958.416 200.685 958.51 200.12 958.793C199.555 959.075 199.083 959.523 198.542 959.853C197.104 960.771 195.22 960.96 193.641 960.324C193.523 959.452 194.089 958.652 194.631 957.945C195.479 956.862 196.327 955.755 197.364 954.836C197.858 954.389 198.377 953.988 198.754 953.47C199.272 952.74 199.531 951.774 200.261 951.256C200.685 950.973 201.039 950.667 201.439 950.337C205.162 947.205 201.11 949.16 200.521 949.066C199.932 948.971 199.366 949.23 198.777 949.419C195.526 950.432 192.298 950.432 188.552 950.267C186.973 950.196 184.924 949.348 183.439 950.102C183.864 950.997 185.112 951.821 185.725 952.693C186.432 953.705 186.973 954.836 187.468 955.967L187.539 955.99Z" fill="#E22C0E"/>
<path d="M190.152 966.258C192.343 964.775 195.217 964.209 196.867 962.137C195.689 962.631 194.252 962.419 193.215 963.149C192.626 963.55 192.272 964.209 191.707 964.657C191.071 965.175 190.246 965.411 189.492 965.74C187.655 966.565 188.526 967.318 190.129 966.258H190.152Z" fill="#E22C0E"/>
<path d="M190.251 951.986C189.191 951.845 188.13 951.727 187.094 951.586C188.46 951.586 189.52 952.811 190.816 953.164C191.358 953.305 191.924 953.305 192.465 953.305C193.549 953.305 195.175 953.588 196.094 953.07C195.175 951.61 191.759 952.198 190.227 952.01L190.251 951.986Z" fill="#E22C0E"/>
<path d="M191.334 954.413C190.863 954.413 190.392 954.413 189.944 954.272C189.284 954.06 188.625 953.518 187.965 953.753C188.342 954.295 188.719 954.86 189.308 955.19C189.85 955.473 190.486 955.52 191.122 955.544C192.017 955.591 192.912 955.614 193.808 955.661C194.585 955.685 196.329 955.826 195.41 954.743C194.727 953.942 192.276 954.413 191.334 954.413Z" fill="#E22C0E"/>
<path d="M190.368 963.856C191.075 963.432 191.688 962.89 192.253 962.301C192.512 962.042 192.771 961.736 192.819 961.359C192.065 961.854 191.311 962.372 190.58 962.89C190.062 963.267 188.884 963.832 188.648 964.421C189.237 964.421 189.874 964.115 190.392 963.809L190.368 963.856Z" fill="#E22C0E"/>
<path d="M329.558 924.924C330.713 924.312 332.032 924.053 333.352 924.006C332.268 924.83 331.443 925.961 330.43 926.856C329.794 927.397 327.627 928.928 327.226 927.586C326.92 926.55 328.852 925.301 329.582 924.924H329.558Z" fill="#331612"/>
<path d="M327.367 911.218C328.333 911.312 329.323 911.053 330.265 910.77C330.43 910.723 330.595 910.676 330.642 910.511C330.713 910.299 330.477 910.087 330.265 909.993C328.969 909.381 324.328 908.768 323.951 910.77C325.106 910.77 326.213 911.1 327.367 911.194V911.218Z" fill="#331612"/>
<path d="M289.697 942.988C287.058 944.92 283.854 945.838 280.885 947.228C277.917 948.617 275.678 947.44 274.783 950.596C277.328 949.183 279.802 953.351 282.629 954.011C285.456 954.67 288.919 954.859 290.804 952.645C291.464 951.868 291.841 950.878 292.43 950.031C294.833 946.639 294.998 948.523 302.655 943.648C308.356 940.021 292.548 940.892 289.697 943.012V942.988Z" fill="#E22C0E"/>
<path d="M278.601 908.202C275.633 908.508 272.476 907.731 269.413 907.448C266.35 907.166 264.748 905.234 262.91 907.26C265.62 907.331 266.397 911.735 268.682 913.525C270.968 915.315 273.936 917.081 276.339 916.21C277.188 915.904 277.847 915.291 278.648 914.915C281.923 913.384 281.405 914.915 289.816 914.632C296.059 914.42 281.853 907.849 278.625 908.178L278.601 908.202Z" fill="#E22C0E"/>
<path d="M386.22 1428.39C389.589 1422.59 393.547 1417.15 397.505 1411.74C401.393 1406.39 405.304 1401.04 409.191 1395.7C418.403 1383.07 428.723 1369.62 443.778 1365.41C447.759 1364.3 453.296 1364.7 454.427 1368.68C454.827 1370.07 454.545 1371.58 454.215 1372.99C449.621 1393.91 441.398 1415.25 424.717 1428.69C419.699 1432.75 414.045 1435.95 408.673 1439.51C400.168 1445.16 392.346 1451.75 384.524 1458.32C382.639 1459.9 380.731 1461.5 379.293 1463.51C374.746 1469.84 375.807 1478.39 375.877 1486.16C375.948 1493.94 373.663 1503.24 366.288 1505.78C367.773 1498.79 360.752 1491.42 353.684 1492.59C364.828 1484.04 370.647 1478.67 371.99 1464.33C373.191 1451.49 379.694 1439.58 386.197 1428.39H386.22Z" fill="#F9DBD9"/>
<path opacity="0.5" d="M398.379 1428.06C400.947 1424.05 404.316 1420.62 407.638 1417.22C411.219 1413.57 414.447 1408.98 417.604 1405C419.701 1402.36 419.63 1400.15 420.408 1398.38C421.138 1396.73 420.761 1393.86 420.761 1393.86C423.565 1387.24 426.557 1380.53 430.892 1374.34C435.227 1368.14 443.026 1363.76 450.329 1365.69C451.225 1365.93 452.12 1366.28 452.709 1366.96C453.628 1368.05 453.51 1369.65 453.321 1371.06C452.073 1380.08 449.316 1389.86 445.476 1398.12C443.827 1401.68 440.575 1402.29 438.125 1404.36C436.994 1405.33 434.921 1405.64 433.437 1405.8C430.421 1406.13 427.641 1407.64 425.191 1409.43C417.628 1414.94 412.68 1423.21 407.167 1430.77C404.905 1433.85 394.091 1441.84 389.379 1446.57C387.73 1448.24 396.801 1430.41 398.332 1428.06H398.379Z" fill="#E22C0E"/>
<path opacity="0.5" d="M360.795 1494.36C361.29 1494.59 361.761 1494.85 362.185 1495.21C362.798 1495.72 363.245 1496.38 363.693 1497.04C364.494 1498.25 365.295 1499.47 365.531 1500.91C365.625 1501.54 365.696 1502.32 366.285 1502.56C365.861 1503.92 366.002 1505.48 366.685 1506.75C367.769 1505.66 369.536 1505.36 370.408 1504.11C371.138 1503.05 371.02 1501.61 371.633 1500.48C372.387 1499.09 374.107 1498.36 374.578 1496.86C374.743 1496.31 374.719 1495.75 374.743 1495.18C374.79 1493.77 375.143 1492.36 375.143 1490.94C375.143 1489.53 374.719 1488 373.612 1487.13C372.976 1487.2 372.505 1487.74 372.245 1488.33C371.986 1488.92 371.916 1489.55 371.751 1490.17C371.256 1491.79 369.937 1493.16 368.311 1493.7C367.651 1493.11 367.557 1492.12 367.533 1491.25C367.463 1489.86 367.416 1488.47 367.604 1487.1C367.698 1486.45 367.84 1485.81 367.769 1485.15C367.698 1484.25 367.251 1483.36 367.486 1482.49C367.628 1481.99 367.698 1481.52 367.793 1481.03C368.594 1476.22 366.779 1480.35 366.285 1480.65C365.79 1480.96 365.507 1481.55 365.201 1482.04C363.363 1484.91 360.913 1487.01 357.968 1489.32C356.719 1490.28 354.622 1490.97 353.986 1492.52C354.905 1492.92 356.366 1492.73 357.403 1493.02C358.604 1493.35 359.735 1493.84 360.842 1494.38L360.795 1494.36Z" fill="#E22C0E"/>
<path d="M369.445 1500.48C370.152 1497.94 371.966 1495.63 371.895 1492.99C371.33 1494.12 370.104 1494.9 369.775 1496.13C369.586 1496.81 369.751 1497.56 369.61 1498.25C369.468 1499.05 368.974 1499.75 368.62 1500.48C367.748 1502.3 368.903 1502.3 369.445 1500.48Z" fill="#E22C0E"/>
<path d="M360.258 1489.56C359.363 1490.14 358.467 1490.71 357.596 1491.3C358.632 1490.43 360.234 1490.66 361.46 1490.07C361.954 1489.84 362.402 1489.46 362.826 1489.11C363.651 1488.4 365.088 1487.58 365.441 1486.56C363.792 1486.05 361.577 1488.71 360.282 1489.56H360.258Z" fill="#E22C0E"/>
<path d="M362.66 1490.71C362.307 1491.02 361.93 1491.32 361.506 1491.51C360.846 1491.77 359.998 1491.79 359.668 1492.4C360.304 1492.59 360.964 1492.76 361.623 1492.62C362.236 1492.5 362.731 1492.1 363.226 1491.72C363.932 1491.18 364.639 1490.61 365.346 1490.07C365.959 1489.6 367.372 1488.57 365.982 1488.33C364.922 1488.17 363.367 1490.12 362.66 1490.71Z" fill="#E22C0E"/>
<path d="M368.034 1498.53C368.293 1497.75 368.411 1496.95 368.458 1496.13C368.481 1495.75 368.481 1495.35 368.269 1495.04C368.01 1495.91 367.774 1496.79 367.562 1497.68C367.397 1498.32 366.879 1499.49 367.091 1500.11C367.539 1499.73 367.822 1499.07 368.01 1498.53H368.034Z" fill="#E22C0E"/>
<path d="M448.796 1378.69C449.291 1377.47 450.116 1376.43 451.105 1375.54C450.823 1376.88 450.917 1378.27 450.728 1379.61C450.611 1380.43 449.951 1383 448.749 1382.22C447.83 1381.64 448.514 1379.42 448.82 1378.69H448.796Z" fill="#331612"/>
<path d="M438.265 1369.67C439.066 1369.11 439.631 1368.28 440.197 1367.46C440.291 1367.32 440.385 1367.15 440.315 1367.01C440.22 1366.8 439.914 1366.8 439.679 1366.87C438.288 1367.25 434.354 1369.79 435.391 1371.56C436.286 1370.83 437.323 1370.35 438.265 1369.67Z" fill="#331612"/>
<path d="M430.161 1418.28C429.407 1421.46 427.546 1424.24 426.203 1427.23C424.86 1430.22 422.386 1430.79 423.729 1433.76C424.766 1431.03 429.337 1432.6 431.928 1431.26C434.52 1429.92 437.276 1427.82 437.253 1424.93C437.253 1423.89 436.876 1422.9 436.805 1421.89C436.452 1417.74 437.771 1419.08 440.457 1410.39C442.46 1403.94 430.986 1414.85 430.161 1418.31V1418.28Z" fill="#E22C0E"/>
<path d="M399.151 1398.97C397.078 1401.14 394.204 1402.58 391.683 1404.37C389.162 1406.16 386.688 1405.68 386.617 1408.44C388.738 1406.74 392.154 1409.57 395.075 1409.48C397.997 1409.38 401.389 1408.77 402.638 1406.56C403.086 1405.78 403.18 1404.88 403.557 1404.08C405.065 1400.81 405.654 1402.29 411.874 1396.64C416.491 1392.45 401.389 1396.64 399.175 1398.97H399.151Z" fill="#E22C0E"/>
<path d="M1337.63 1471.75C1334.06 1473.38 1330.34 1474.64 1326.62 1475.89C1322.96 1477.13 1319.29 1478.36 1315.63 1479.6C1306.97 1482.52 1297.51 1485.45 1288.9 1482.38C1286.63 1481.56 1284.12 1479.5 1284.93 1477.22C1285.2 1476.42 1285.85 1475.8 1286.48 1475.24C1295.73 1466.81 1306.86 1459.4 1319.36 1458.61C1323.12 1458.37 1326.9 1458.75 1330.67 1458.87C1336.63 1459.04 1342.59 1458.54 1348.54 1458.04C1349.97 1457.93 1351.42 1457.8 1352.79 1457.33C1357.09 1455.85 1359.47 1451.41 1362.06 1447.68C1364.65 1443.94 1368.89 1440.27 1373.26 1441.55C1370.19 1444.39 1371.06 1450.28 1374.83 1452.1C1366.62 1452.42 1362.03 1453.02 1356.55 1459.41C1351.64 1465.13 1344.52 1468.62 1337.64 1471.76L1337.63 1471.75Z" fill="#F9DBD9"/>
<path opacity="0.5" d="M1331.71 1467.81C1329.14 1468.85 1326.37 1469.36 1323.64 1469.85C1320.7 1470.39 1317.61 1471.49 1314.76 1472.32C1312.87 1472.87 1312.15 1473.95 1311.18 1474.53C1310.28 1475.07 1309.49 1476.57 1309.49 1476.57C1305.92 1478.78 1302.22 1480.98 1298.06 1482.47C1293.91 1483.96 1288.71 1483.42 1285.87 1480.03C1285.52 1479.62 1285.22 1479.15 1285.17 1478.62C1285.09 1477.8 1285.69 1477.07 1286.26 1476.46C1289.9 1472.58 1294.51 1468.84 1299.14 1466.2C1301.12 1465.06 1302.88 1465.86 1304.75 1465.7C1305.62 1465.62 1306.71 1466.17 1307.47 1466.6C1309.02 1467.46 1310.86 1467.68 1312.63 1467.65C1318.1 1467.57 1323.25 1465.3 1328.43 1463.55C1330.56 1462.84 1338.41 1462.68 1342.26 1462.01C1343.61 1461.77 1333.26 1467.22 1331.74 1467.82L1331.71 1467.81Z" fill="#E22C0E"/>
<path opacity="0.5" d="M1372.03 1448.86C1371.87 1448.58 1371.73 1448.29 1371.65 1447.98C1371.53 1447.53 1371.54 1447.06 1371.55 1446.6C1371.57 1445.75 1371.61 1444.9 1371.98 1444.13C1372.15 1443.8 1372.38 1443.4 1372.17 1443.09C1372.84 1442.58 1373.3 1441.79 1373.4 1440.96C1372.52 1441.11 1371.57 1440.66 1370.73 1440.96C1370.03 1441.22 1369.6 1441.94 1368.92 1442.28C1368.09 1442.68 1367.03 1442.45 1366.29 1443.01C1366.03 1443.21 1365.85 1443.49 1365.65 1443.75C1365.15 1444.41 1364.5 1444.97 1364.03 1445.64C1363.55 1446.32 1363.24 1447.19 1363.47 1447.98C1363.8 1448.16 1364.21 1448.06 1364.53 1447.87C1364.85 1447.67 1365.1 1447.39 1365.38 1447.16C1366.17 1446.55 1367.26 1446.34 1368.22 1446.63C1368.33 1447.14 1368.05 1447.64 1367.76 1448.06C1367.33 1448.75 1366.88 1449.43 1366.33 1450.02C1366.06 1450.3 1365.78 1450.56 1365.59 1450.9C1365.32 1451.35 1365.23 1451.93 1364.83 1452.26C1364.59 1452.45 1364.4 1452.65 1364.19 1452.86C1362.18 1454.88 1364.44 1453.52 1364.78 1453.54C1365.12 1453.56 1365.45 1453.38 1365.77 1453.25C1367.61 1452.5 1369.49 1452.32 1371.68 1452.22C1372.6 1452.18 1373.83 1452.56 1374.66 1452.03C1374.35 1451.53 1373.59 1451.13 1373.19 1450.64C1372.73 1450.08 1372.36 1449.46 1372.01 1448.83L1372.03 1448.86Z" fill="#E22C0E"/>
<path d="M1369.97 1443.01C1368.77 1443.99 1367.13 1444.48 1366.27 1445.76C1366.92 1445.41 1367.77 1445.45 1368.34 1444.98C1368.66 1444.72 1368.84 1444.3 1369.13 1444.03C1369.47 1443.69 1369.95 1443.52 1370.36 1443.29C1371.39 1442.72 1370.84 1442.33 1369.97 1443.01Z" fill="#E22C0E"/>
<path d="M1370.66 1451.33C1371.29 1451.35 1371.91 1451.38 1372.52 1451.4C1371.73 1451.46 1371.05 1450.81 1370.26 1450.68C1369.95 1450.62 1369.61 1450.65 1369.29 1450.68C1368.65 1450.74 1367.69 1450.64 1367.18 1451.01C1367.79 1451.81 1369.75 1451.29 1370.65 1451.32L1370.66 1451.33Z" fill="#E22C0E"/>
<path d="M1369.91 1449.97C1370.18 1449.94 1370.46 1449.92 1370.73 1449.97C1371.13 1450.07 1371.54 1450.35 1371.91 1450.17C1371.67 1449.86 1371.41 1449.56 1371.04 1449.41C1370.71 1449.26 1370.34 1449.28 1369.98 1449.29C1369.46 1449.31 1368.93 1449.34 1368.41 1449.36C1367.96 1449.38 1366.93 1449.4 1367.52 1449.98C1367.97 1450.42 1369.37 1450.01 1369.91 1449.97Z" fill="#E22C0E"/>
<path d="M1369.98 1444.42C1369.6 1444.71 1369.27 1445.05 1368.97 1445.43C1368.83 1445.6 1368.7 1445.79 1368.69 1446.01C1369.11 1445.68 1369.52 1445.34 1369.92 1444.99C1370.21 1444.74 1370.86 1444.35 1370.96 1443.99C1370.62 1444.02 1370.27 1444.24 1369.99 1444.43L1369.98 1444.42Z" fill="#E22C0E"/>
<path d="M1290.99 1474.35C1290.34 1474.76 1289.6 1474.98 1288.82 1475.07C1289.41 1474.53 1289.84 1473.83 1290.38 1473.26C1290.71 1472.9 1291.89 1471.9 1292.21 1472.68C1292.44 1473.27 1291.37 1474.09 1290.98 1474.34L1290.99 1474.35Z" fill="#331612"/>
<path d="M1292.97 1482.21C1292.4 1482.21 1291.85 1482.41 1291.3 1482.61C1291.21 1482.65 1291.11 1482.69 1291.1 1482.78C1291.07 1482.92 1291.22 1483.02 1291.35 1483.07C1292.14 1483.36 1294.88 1483.47 1294.98 1482.28C1294.31 1482.32 1293.65 1482.2 1292.97 1482.21Z" fill="#331612"/>
<path d="M1313.25 1461.74C1314.68 1460.48 1316.51 1459.78 1318.16 1458.81C1319.81 1457.84 1321.18 1458.4 1321.54 1456.53C1320.12 1457.49 1318.48 1455.19 1316.79 1454.96C1315.1 1454.72 1313.07 1454.79 1312.11 1456.18C1311.76 1456.68 1311.6 1457.28 1311.3 1457.78C1310.06 1459.88 1309.89 1458.79 1305.67 1462.03C1302.54 1464.44 1311.7 1463.11 1313.26 1461.73L1313.25 1461.74Z" fill="#E22C0E"/>
<path d="M1321.53 1481.43C1323.25 1481.09 1325.11 1481.38 1326.91 1481.37C1328.72 1481.37 1329.74 1482.43 1330.71 1481.14C1329.12 1481.23 1328.44 1478.73 1327.02 1477.79C1325.59 1476.85 1323.77 1476 1322.42 1476.63C1321.95 1476.85 1321.6 1477.25 1321.15 1477.5C1319.33 1478.55 1319.55 1477.65 1314.67 1478.25C1311.05 1478.69 1319.67 1481.78 1321.52 1481.42L1321.53 1481.43Z" fill="#E22C0E"/>
<path d="M319.901 507.006C327.393 507.006 333.602 512.353 341 512C342.885 511.906 347.254 506.158 349.186 506.205C351.118 506.252 358 512 354.793 506.676C358.869 506.676 362.733 507.312 366.644 507.83C371.356 508.442 376.044 507.359 380.851 507.383C386.458 507.383 392.065 507.618 397.72 507.618C408.039 507.618 418.17 508.278 428.419 507.618C433.79 507.288 438.997 508.066 444.345 507.854C448.492 507.689 452.756 507.076 457.115 506.888C457.044 505.286 455.301 504.91 454.028 504.203C450.447 502.201 446.819 500.152 443.191 498.103C438.243 495.3 433.131 492.379 427.924 490.024C423 487.81 417.534 486.444 412.327 484.843C407.686 483.429 403.139 481.027 398.45 479.849C392.419 478.366 385.916 480.32 379.814 479.708C376.091 479.331 372.581 477.047 368.717 476.199C364.853 475.351 357.078 475.374 354.251 472.784C353.238 471.841 352.673 469.745 351.942 468.591C350.835 466.848 349.563 465.2 348.408 463.457C347.112 461.502 346.123 460.065 346.241 457.757C346.311 456.461 346.948 456.037 346.736 454.459C346.524 452.881 351.872 433.333 349.869 433.215C347.042 437.831 338.819 457.05 337.406 461.313C336.157 465.035 333.636 468.662 332.27 472.477C329.395 480.485 327.463 487.363 324.188 495.253C323.27 497.49 323.01 499.492 321.856 501.612C321.196 502.837 320.772 502.955 319.877 507.006H319.901Z" fill="#EEEDEE"/>
</svg>
