<svg width="357" height="492" viewBox="0 0 357 492" fill="none" xmlns="http://www.w3.org/2000/svg">
<g clip-path="url(#clip0_104_20)">
<path d="M129.123 165.643C128.689 164.838 128.73 164.958 123.938 157.479C122.777 155.669 115.27 143.94 110.977 137.071C104.467 126.662 100.138 119.745 94.9281 109.933C90.8754 102.298 88.0009 96.1225 85.4995 88.8635C82.998 81.6045 82.295 77.3609 81.9732 74.9094C81.1529 68.6235 81.4005 62.768 81.4267 62.2242C81.5152 60.3534 81.7173 57.5754 81.8999 52.545C82.006 49.5475 82.0625 47.701 81.4614 45.3199C80.835 42.8523 80.3446 40.9164 78.5388 39.4733C76.2933 37.6833 73.4531 37.7948 72.7445 37.8179C71.3834 37.8717 70.3518 38.2201 70.0951 38.3138C68.9127 38.7361 68.1321 39.3024 67.6109 39.6922C67.129 40.0473 65.8961 40.9814 64.933 42.477C63.3391 44.9493 63.4054 47.5492 63.44 49.1503C63.4574 49.8777 63.5407 51.1043 64.4312 54.4451C65.4363 58.2027 66.4926 60.9644 66.6359 61.3395C68.8267 67.0856 68.6653 67.7369 70.7149 73.3633C72.318 77.7764 73.8669 81.0212 77.221 88.5865C78.3419 91.1077 82.1216 99.5797 87.8631 111.256C94.9468 125.658 98.4887 132.86 103.525 141.206C106.969 146.909 108.95 149.681 114.059 158.415C118.068 165.282 120.55 169.896 122.827 175.955C125.718 183.634 126.097 187.811 126.188 189.027C126.289 190.396 126.615 195.56 124.968 202.043C124.136 205.313 122.928 210.088 119.167 215.003C115.864 219.329 112.225 221.618 109.726 223.164C108.382 223.991 102.703 227.392 94.3258 228.787C86.7823 230.044 80.9695 229.022 79.7002 228.785C76.8592 228.257 72.5896 227.129 67.9463 224.591C63.536 222.174 60.793 219.582 58.3463 217.254C56.0772 215.094 52.0548 211.235 48.8033 205.34C48.2226 204.289 47.2738 201.808 45.3851 196.846C44.6122 194.817 44.2583 193.805 44.7243 193.316C46.008 191.971 51.0428 195.33 52.4501 195.523C52.7685 195.564 51.6662 194.51 50.7124 193.565C49.6664 192.519 47.2839 189.85 46.4967 178.37C46.104 172.707 45.6474 169.194 46.6681 164.637C47.4146 161.3 47.4432 159.012 49.238 156.392L51.7508 152.725C52.2389 152.012 52.5424 150.997 52.3035 150.795C51.6982 150.296 46.6449 154.357 43.0276 159.838C40.5634 163.569 39.4681 166.898 38.4977 169.82C36.6204 175.515 36.1687 180.084 36.0645 181.236C35.5071 187.488 36.3252 192.249 37.1066 196.569C37.7161 199.971 38.3421 203.462 40.1373 207.876C42.546 213.809 45.5903 217.816 46.8656 219.404C50.6779 224.143 54.454 226.834 57.8445 229.222C61.8446 232.036 66.5802 235.36 73.0737 237.332C81.9897 240.038 89.558 238.768 95.0946 237.777C103.107 236.341 114.959 234.223 124.517 224.048C135.554 212.3 136.033 197.77 136.175 193.551C136.635 179.746 131.059 169.199 129.123 165.643ZM75.1653 55.6325C74.8704 55.9617 74.3531 56.4696 73.5642 56.8456C73.0945 57.0706 72.4812 57.3589 71.798 57.1762C71.5292 57.1078 71.1965 56.9418 70.7497 56.4591C70.4297 56.1171 69.7876 55.3239 69.2058 53.0946C69.0091 52.3367 68.7986 51.5541 68.7102 50.4472C68.6684 49.98 68.5824 48.5438 68.9325 46.752C69.0359 46.2302 69.1565 45.6048 69.4852 44.8217C69.8775 43.8897 70.1703 43.159 70.9211 42.7261C71.5565 42.3606 72.2083 42.3756 72.6873 42.3955C73.0554 42.4088 73.8745 42.4382 74.6188 42.9473C75.0591 43.2485 75.2129 43.6308 75.8323 44.5469C76.3132 45.2607 76.8841 46.1129 77.211 47.029C77.8289 48.7675 77.4497 50.3548 77.1539 51.6067C76.9847 52.3143 76.5341 54.1066 75.1653 55.6325Z" fill="#B0BCC4"/>
<path d="M70.1047 41.4803C68.1408 44.515 66.642 46.8599 66.9815 50.5778C67.2611 53.7314 68.0163 58.3031 70.9805 59.8308C78.1014 63.494 81.2546 50.0158 79.1212 45.6016C77.5253 42.3016 73.4643 41.1163 70.1842 41.4654C72.6648 40.8001 76.0074 41.5171 78.4283 42.2421C79.4191 44.605 80.6437 46.0199 80.5724 48.7643C80.5146 51.1408 79.5606 53.0274 78.9697 55.1931C77.5325 60.5041 77.4972 64.4657 78.2471 69.8879C78.6009 72.4613 78.1611 74.7997 78.5116 77.3556C78.9055 80.2412 80.0718 82.6626 80.8461 85.2852C82.796 91.8437 84.3476 97.8374 87.1801 104.13C89.685 109.699 94.2788 113.095 97.1404 118.469C99.6076 123.104 101.852 127.918 105.073 132.083C107.821 135.633 111.296 139.595 112.785 143.837C110.936 143.188 110.038 140.835 108.937 139.297C107.24 136.92 105.223 134.74 103.451 132.404C99.9368 127.792 97.063 122.694 93.9158 117.895C90.5751 112.793 87.2019 107.469 85.0275 101.811C83.6807 98.3276 83.3412 94.6097 81.9618 91.1961C80.2471 86.9684 80.0505 82.1094 78.1669 78.0047C76.6864 74.7835 74.7874 71.9147 72.9149 69.041C71.0424 66.1673 70.8606 62.8035 69.6284 59.7368C68.8301 57.7672 67.212 56.2525 66.5274 54.2067C64.7602 48.9659 65.254 42.7172 70.1136 41.4786L70.1047 41.4803Z" fill="#A2A2A2"/>
<path d="M42.4476 198.538C41.4581 193.252 39.7849 187.683 39.4146 182.336C39.1156 178.053 40.3349 172.701 41.8273 168.612C42.6208 166.454 43.5608 162.296 45.2078 160.791C44.6148 166.364 41.524 171.875 41.3985 177.699C41.3056 181.89 43.3332 187.448 46.505 190.133C40.8831 191.743 43.8199 199.423 45.2291 202.849C46.4332 205.766 48.4163 208.107 49.6011 211.018C51.3792 215.389 54.0274 218.94 57.582 222.01C60.068 224.157 62.5784 226.044 65.1914 228.039C67.2389 229.601 68.5836 231.56 71.1032 232.422C64.3708 232.933 58.2518 226.37 55.132 221.081C53.0318 217.528 50.7757 214.607 48.3896 211.236C46.5766 208.68 45.9027 206.057 44.5451 203.297C43.569 201.305 42.7599 200.206 42.4476 198.538Z" fill="#A2A2A2"/>
<path d="M70.8923 232.178C74.9153 232.037 78.8873 234.7 82.9702 234.977C87.4052 235.28 92.2278 233.893 96.7582 233.045C105.757 231.36 112.727 228.941 119.409 222.986C126.569 216.604 129.647 208.73 130.044 199.037C130.442 189.345 132.348 177.507 126.827 168.274C121.305 159.041 116.214 151.573 111.829 142.995C110.734 146.862 115.842 151.195 118.195 154.198C121.127 157.942 123.63 162.332 125.572 166.408C130.248 176.201 133.321 185.536 132.129 196.062C131.118 205.066 131.599 213.443 124.923 221.287C119.978 227.1 108.362 232.288 101.237 234.8C92.1908 237.992 77.8647 239.687 70.8923 232.178Z" fill="#A2A2A2"/>
<path opacity="0.8" d="M49.2924 193.109C48.2303 189.828 44.9033 186.021 43.3543 183.068C42.8587 180.421 42.3142 178.586 42.1979 176.891C42.0662 175.016 42.7546 172.101 43.1787 170.314C44.0246 166.776 44.9411 164.64 45.7793 161.012C46.1592 159.379 48.2272 152.946 49.295 151.814C49.4261 153.881 45.033 158.686 44.8009 160.912C44.6834 161.994 45.2667 163.547 45.2789 164.687C45.2911 165.826 45.1101 166.91 45.0015 167.99C44.5264 173.021 44.8402 177.529 45.8346 182.841C46.099 184.253 46.2976 185.705 46.6326 187.104C46.9675 188.502 47.5666 189.212 49.2836 193.111L49.2924 193.109Z" fill="white"/>
<path opacity="0.7" d="M69.119 229.242C71.3362 228.927 74.5388 230.556 76.7203 230.979C79.6805 231.557 82.1645 231.741 85.2107 231.362C90.8901 230.646 96.9213 231.956 102.267 229.896C112.097 226.11 126.459 214.69 128.422 203.891C129.467 198.142 128.359 191.59 127.973 185.817C127.603 189.357 129.063 192.957 128.388 196.627C127.713 200.297 126.363 203.39 125.341 206.815C123.504 212.968 120.85 218.078 116.693 222.829C112.825 227.262 106.608 229.549 101.356 231.473C96.1034 233.397 91.6839 232.982 86.4525 232.527C83.4232 232.263 80.9727 232.357 77.8544 232.447C76.0811 232.496 70.8136 231.263 69.1174 229.233L69.119 229.242Z" fill="white"/>
<path d="M69.9003 56.91C71.0844 57.62 72.3717 58.2467 73.8014 57.7781C75.0593 57.3691 75.4427 56.4387 76.1088 55.3093C77.5724 52.8249 78.7732 50.6455 78.0592 47.7101C77.6636 46.0853 76.765 45.0935 75.9614 43.682C76.4527 44.8414 77.6468 45.312 78.0873 46.4444C78.5995 47.7643 78.3124 49.1607 78.1794 50.5009C77.9976 52.3617 77.4249 53.2087 76.6808 54.8003C76.2174 55.7914 76.1397 56.7924 75.5322 57.7464C74.6656 59.1234 73.7345 59.3251 72.1548 59.5295C71.0804 57.7942 69.4311 56.943 68.6919 54.8984C67.9527 52.8537 67.6 50.1887 67.835 48.0257C67.994 46.5802 68.5304 45.2466 68.7579 43.8249C68.1344 45.9145 67.1086 49.3216 67.5487 51.4771C67.9888 53.6325 69.2109 55.6689 69.9003 56.91Z" fill="white"/>
<path d="M66.6886 41.7462C67.8548 40.3587 70.1721 39.5047 71.8677 39.1873C74.1197 38.7658 76.4208 39.632 78.2139 40.9587C78.7551 41.3597 79.5804 42.3013 79.8141 42.9152C79.0248 41.9212 77.8607 40.8787 76.8803 40.0849C76.3534 39.6629 76.0473 39.1996 75.4099 39.0175C74.9375 38.8867 74.3124 38.5744 73.8554 38.4773C73.2086 38.3426 72.3884 38.6971 71.7211 38.7946C71.0538 38.8921 70.4754 38.7812 69.8312 39.0022C68.587 39.4361 67.8461 40.068 66.8628 40.9189C66.1324 41.558 64.8773 43.0078 64.9977 44.0904C65.726 43.196 66.1018 42.0295 66.6853 41.7285L66.6886 41.7462Z" fill="white"/>
<path d="M127.782 184.209C126.848 179.223 125.545 175.877 122.682 171.764C121.318 169.8 120.089 168.459 119.468 166.41C118.629 163.636 118.138 161.745 116.363 159.054C113.216 154.3 110.089 148.537 107.748 143.258C105.839 138.966 102.977 135.592 100.721 131.548C99.4936 129.339 98.0022 128.404 96.5835 126.441C95.3761 124.776 94.5735 122.442 93.7431 120.496C93.1997 122.671 97.445 126.453 98.7153 128.161C100.682 130.807 102.26 132.986 103.31 136.105C104.984 141.09 107.935 145.771 111.337 149.683C114.959 153.846 117.173 159.423 119.881 164.077C122.091 167.874 125.92 169.97 126.804 174.445C127.193 176.427 128.982 183.445 127.799 184.206L127.782 184.209Z" fill="white"/>
<path d="M65.4847 55.0438C65.9247 57.4915 67.4773 59.7309 68.0795 62.3127C68.7571 65.2001 69.7554 68.0913 70.8972 70.773C73.7616 77.48 75.6141 84.349 79.2143 90.6899C81.0574 93.9436 82.5311 97.5679 83.9111 100.936C83.4379 96.2108 81.4878 92.7761 79.2063 88.7915C77.5887 85.9614 78.0683 82.1267 76.8019 78.9751C76.0141 77.0127 74.688 75.3976 73.7544 73.5355C72.6179 71.273 71.615 68.8941 70.6076 66.5891C69.6002 64.2841 68.5764 61.8909 67.7115 59.4679C66.8465 57.0449 65.4065 54.8209 64.7734 52.1719" fill="white"/>
<path d="M105.499 130.322C105.069 128.22 103.124 126.812 102.394 124.82C101.575 122.59 100.426 121.142 99.0919 119.191C96.7643 115.79 94.5736 112.145 92.3996 108.442C90.9778 106.022 90.065 103.344 88.8916 100.787C87.9686 98.7854 86.8916 96.6944 86.1689 94.5919C85.3746 92.3019 85.1847 89.8713 84.498 87.5702C84.1309 86.3419 83.3802 85.2128 82.8768 84.0374C81.9748 81.9045 81.2776 79.5963 80.8333 77.2225C80.5822 75.8811 80.3046 74.5447 80.08 73.1984C79.6577 70.6012 80.5072 67.9121 80.362 65.2813C80.2043 62.388 80.2597 59.3634 79.4761 56.4959C79.0783 57.4472 79.6357 58.8135 79.6717 59.8845C79.7158 61.292 79.543 62.7127 79.6677 64.16C79.8428 66.2188 79.6775 68.1679 79.8235 70.1683C80.0123 72.6904 79.5669 75.1943 79.7966 77.6905C80.0262 80.1868 80.8253 83.0879 81.725 85.4039C82.1908 86.6229 82.9884 87.661 83.5272 88.8297C84.0659 89.9985 84.2336 91.3829 84.8689 92.5792C85.3079 93.4104 85.9975 94.0668 86.3939 94.9151C87.017 96.2417 86.8967 97.6982 87.1786 99.1069C87.4204 100.349 87.9338 101.432 88.5316 102.525C89.4432 104.172 90.6197 105.77 91.4231 107.474C91.8472 108.372 91.7948 109.459 92.1653 110.413C92.9355 112.379 94.8089 114.33 96.2813 115.799C97.7538 117.267 98.1045 119.239 99.5515 120.767C100.6 121.877 100.966 122.22 101.529 123.813C101.885 124.833 102.407 125.914 103.199 126.579" fill="white"/>
<path d="M36.2177 184.495C36.5268 185.853 36.4616 187.263 36.6454 188.635C36.8984 190.524 37.3524 192.412 37.7026 194.283C38.3931 197.972 38.3474 201.78 39.8675 205.213C41.6942 209.356 43.6737 212.41 45.196 214.683C46.5054 216.648 46.5114 216.875 47.7479 218.891C48.7048 220.438 50.2572 221.992 51.6751 223.17C52.7703 224.089 53.8084 225.484 55.0322 226.259C55.6231 226.633 56.154 226.734 56.6826 227.165C57.2111 227.596 57.6247 228.487 58.3963 228.214C58.1879 226.564 57.0345 226.359 55.7025 225.494C54.5681 224.757 53.9123 223.939 53.0986 222.913C50.805 220.036 48.437 216.908 46.5221 213.759C45.6518 212.332 45.3727 210.695 44.5526 209.195C43.4017 207.1 42.2612 205.011 41.0678 202.933C39.6482 200.477 38.8119 197.035 38.2932 194.264L37.2227 188.545C37.0162 187.442 37.0585 185.178 36.2354 184.492L36.2177 184.495Z" fill="white"/>
<path d="M334.933 324.234L330.872 317.578L319.122 304.277L296.36 282.735L279.976 269.58L252.428 247.18L224.307 227.965L197.489 210.635L179.662 201.833L171.543 199.38L168.5 199.822L164.165 205.62L164.606 208.662L168.091 214.878L166.361 220.819L150.589 240.669L147.698 242.124L120.878 221.168L106.239 212.938L92.6247 211.797L80.0264 214.128L66.711 222.247L56.4412 233.55L48.0587 250.784L43.2956 268.016L43.3016 282.501L45.6308 295.09L51.4448 310.279L63.3391 328.21L74.8538 341.82L68.331 350.531L66.992 357.148L68.5932 364.676L71.0653 371.045L80.6421 383.629L97.6099 400.831L120.752 420.84L147.917 441.147L183.573 462.377L196.182 467.278L206.176 468.421L215.155 466.092L220.363 462.76L235.264 444.068L273.306 392.054L310.486 344.813L320.899 330.908L326.844 332.635L331.334 331.475L334.951 324.231L334.933 324.234ZM77.3842 325.161L68.3922 313.016L61.5727 301.587L56.9251 287.258L55.4667 273.511L56.4692 262.508L61.9597 246.72L71.0702 234.547L79.4653 228.171L86.8459 225.556L95.3946 223.81L103.944 225.68L110.177 229.437L139.459 253.138L82.3253 330.657L77.3931 325.159L77.3842 325.161Z" fill="#F9F9F9"/>
<path d="M170.529 218.523L187.522 234.833L208.336 254.173L252.082 287.47L286.601 312.685L307.756 325.102L320.892 330.918L326.828 332.647L331.317 331.478L334.933 324.234L330.864 317.588L311.748 297.309L296.353 282.745L274.007 264.742L258.649 251.843L242.527 240.429L224.31 227.983L209.928 218.683L197.491 210.644L186.149 205.04L179.664 201.842L171.553 199.387L168.51 199.829L164.173 205.619L164.606 208.661L168.091 214.878L170.529 218.523Z" fill="#CBCBCB"/>
<path d="M172.857 204.889L178.802 206.616L190.397 211.671L205.037 219.9L224.455 232.615L240.12 244.324L256.636 256.668L273.036 268.934L288.115 280.196L297.192 286.982L306.513 295.759L319.194 308.858L326.23 317.735L330.429 322.685L330.176 325.582L322.325 322.95L306.097 314.434L286.669 301.721L264.925 287.277L242.254 270.321L222.306 253.605L205.348 240.019L193.311 228.306L185.048 221.231L177.646 212.989L173.699 208.604L172.857 204.889Z" fill="#F9F9F9"/>
<path d="M142.244 248.581C136.813 244.811 131.572 240.933 126.3 236.942C121.028 232.951 115.992 227.975 110.367 224.196C104.742 220.418 98.0959 218.118 90.8892 219.074C84.4928 219.915 78.2716 223.939 73.4115 227.908C68.5514 231.878 64.1818 237.345 60.9172 242.66C59.1598 245.529 57.4455 248.48 55.9849 251.567C54.7144 254.252 54.6824 256.816 53.8533 259.565C51.8239 266.302 50.2203 272.092 51.3416 279.107C51.9003 282.629 53.0662 285.927 53.3616 289.507C53.7278 294.051 56.0163 298.463 57.5091 302.678C58.5763 305.693 60.3369 308.213 61.4588 311.228C62.7256 314.626 64.7977 317.882 67.2101 320.564C71.5378 325.371 76.2056 329.749 80.4047 334.553C81.4037 335.69 82.4271 336.567 83.7016 337.516C79.9835 333.426 76.4566 328.844 73.2304 324.305C69.5938 319.186 65.8191 314.549 62.8505 308.994C60.0629 303.771 57.9659 297.989 55.8462 292.33C53.4993 286.092 53.1301 278.261 53.3062 271.633C53.4824 265.005 54.2968 257.637 57.6032 251.373C59.3249 248.119 61.6586 244.96 63.5866 241.832C65.022 239.49 66.7544 237.074 68.6759 235.033C73.3438 230.086 78.9118 225.454 85.422 223.121C91.5905 220.916 100.917 220.54 106.619 223.61C112.586 226.822 117.96 232.091 122.922 236.67C127.636 241.003 133.082 243.628 138.301 246.753C139.341 247.38 140.525 248.382 142.255 248.588L142.244 248.581Z" fill="#E3E3E3"/>
<path d="M72.0294 358.27C79.1153 368.827 83.1057 379.059 91.9274 388.194C101.134 397.724 110.77 407.502 121.739 415.706C143.239 431.776 164.209 447.506 187.683 459.224C191.584 461.17 199.623 461.437 204.287 461.057C211.616 460.462 215.225 454.351 220.818 450.436C216.786 451.164 212.891 452.77 208.622 452.719C203.976 452.658 200.062 450.842 195.467 449.976C183.773 447.762 171.312 444.678 161.576 436.81C152.077 429.135 142.859 420.612 134.152 412.286C123.04 401.661 108.804 395.484 98.4081 383.848C95.4121 380.491 88.9073 374.063 89.4426 369.012C89.642 367.148 92.3724 364.253 93.201 362.527C95.2333 358.246 97.1525 353.85 99.5441 349.584C109.236 332.315 121.336 315.847 134.208 300.769C144.546 288.658 164.175 279.449 180.152 281.545C185.4 282.234 183.724 281.434 187.59 278.993C190.263 277.305 193.387 277.488 196.484 277.237C205.182 276.531 209.954 276.825 215.986 282.875C218.743 285.638 221.156 288.127 224.453 290.36C238.26 299.713 253.261 310.606 267.986 317.148C274.118 319.873 280.947 321.682 287.508 324.308C293.704 326.792 298.853 330.715 304.857 332.514C306.571 333.024 309.727 333.721 310.562 333.885C310.34 333.725 310.118 333.566 309.898 333.415C310.71 333.409 311.608 333.223 312.291 332.967C307.512 328.236 299.008 326.073 292.986 323.054C283.938 318.519 274.605 314.319 265.822 309.25C247.126 298.437 230.362 282.568 214.253 268.393C207.347 262.315 199.645 255.984 194.064 248.68C190.651 244.222 186.47 241.224 182.681 237.193C179.54 233.844 173.576 224.639 168.203 224.403C161.005 224.088 156.279 241.322 152.655 245.937C137.796 264.858 128.671 277.637 118.937 290.237C106.031 306.939 98.1265 325.508 84.7014 341C79.8456 346.604 73.6507 352.477 72.0432 358.295L72.0294 358.27Z" fill="#F2F2F2"/>
<path d="M68.9295 353.68C69.4207 362.896 73.7483 370.535 78.6455 377.994C84.0821 386.283 91.0809 392.664 98.4647 399.685C102.291 403.325 104.86 407.53 108.913 410.772C114.243 415.026 120.059 419.381 125.78 423.38C138.82 432.493 152.341 441.388 165.721 449.972C174.677 455.722 183.194 461.133 194.128 463.973C200.296 465.576 201.74 468.065 208.183 468.156C201.592 468.056 196.303 468.315 190.797 466.003C180.302 461.601 173.035 456.376 163.261 450.844C150.806 443.786 138.768 435.243 127.12 426.636C116.162 418.54 104.936 409.398 95.3722 400.108C91.1259 395.98 87.6476 391.169 83.2312 387.402C78.8147 383.634 76.6321 380.617 73.5285 376.001C70.8402 371.992 67.3417 366.683 66.2989 361.991C65.4165 358.01 66.6874 353.177 68.9958 349.64C68.3855 352.092 68.9703 353.947 68.9207 353.682L68.9295 353.68Z" fill="#B2B2B2"/>
<path d="M180.183 215.994C183.854 218.759 186.273 222.791 189.573 225.918C193.004 229.158 196.811 231.916 199.754 235.53C202.83 239.311 208.024 241.764 211.654 245.094C215.505 248.621 219.421 251.815 223.656 254.959C232.51 261.531 240.508 269.342 249.296 275.908C260 283.915 270.849 292.16 281.96 299.661C284.639 301.47 287.6 302.834 290.417 304.408C293.235 305.981 295.605 308.095 298.341 309.674C303.453 312.617 308.654 314.713 313.544 317.497C314.466 318.027 315.44 318.64 316.246 319.284C315.677 314.631 312.503 312.768 309.329 309.873C307.864 308.54 307.195 307.021 305.394 306.043C302.535 304.487 300.423 302.873 298.072 300.572C295.071 297.627 291.403 296.587 287.898 294.512C286.201 293.505 284.598 292.317 282.95 291.228C280.872 289.845 278.53 289.004 276.497 287.567C271.344 283.919 267.234 279.053 262.148 275.274C258.931 272.88 257.338 270.283 254.316 267.615C251.116 264.78 245.968 263.205 242.588 260.677C237.899 257.161 232.937 251.751 227.384 249.53C227.478 249.594 227.574 249.668 227.669 249.732C224.344 247.304 221.692 244.028 218.507 241.418C216.833 240.042 215.024 238.828 213.359 237.45C211.306 235.761 209.114 234.061 207.314 232.115C204.71 229.286 201.754 225.848 198.04 224.47C196.744 223.991 195.236 223.99 193.992 223.401C192.918 222.89 191.95 222.012 190.937 221.388C189.222 220.33 187.477 219.606 185.806 218.439C184.682 217.663 181.928 214.964 180.157 215.999L180.183 215.994Z" fill="#F2F2F2"/>
<path d="M171.265 204.592C170.457 207.84 172.45 212.29 174.085 215.062C175.822 217.997 179 220.079 181.858 222.211C186.161 225.424 191.037 228.421 194.833 232.149C196.29 233.584 196.573 234.701 197.554 236.38C198.75 238.422 200.743 239.647 202.395 241.292C206.913 245.799 212.146 249.533 217.333 253.412C223.796 258.249 229.807 263.7 236.36 268.574C239.567 270.961 242.072 273.99 245.081 276.587C248.33 279.395 252.246 281.32 255.774 283.71C261.114 287.332 266.308 291.247 271.489 295.145C274.223 297.2 277.403 298.468 280.064 300.619C282.305 302.437 284.034 304.543 286.389 306.285C287.982 307.467 289.736 308.828 291.645 309.211C294.162 309.717 296.97 308.945 299.026 311.09C296.474 315.038 287.638 308.755 285.434 307.14C279.988 303.145 274.936 298.665 269.504 294.603C257.727 285.793 244.288 279.823 232.542 271.034C227.493 267.257 223.119 262.495 218.581 258.174C216.234 255.938 214.759 253.674 212.054 251.97C209.505 250.365 207.216 248.638 204.927 246.71C200.448 242.954 197.006 238.529 192.308 235.015C188.226 231.961 185.159 228.663 181.624 225.159C177.822 221.404 173.773 218.034 171.182 213.276C170.57 212.158 168.258 203.566 171.273 204.582L171.265 204.592Z" fill="#9E9E9E"/>
<path d="M257.052 253.074C263.348 255.165 268.227 259.888 272.687 264.378C276.855 268.576 281.992 272.19 286.085 276.375C291.658 282.072 299.294 285.511 304.882 291.096C309.987 296.196 313.272 302.414 318.242 307.429C322.883 312.105 326.313 318.907 331.577 322.808C331.853 318.372 325.743 313.369 322.94 310.313C320.908 308.099 319.736 305.451 317.822 303.188C315.318 300.213 312.399 297.508 309.371 295.005C306.973 293.034 304.355 291.259 301.869 289.404C298.245 286.694 295.501 283.755 292.13 280.787C284.803 274.313 276.446 268.835 268.571 262.947C262.799 258.63 257.532 253.688 251.65 249.363C251.458 249.07 251.887 249.41 252.027 249.329" fill="#9E9E9E"/>
<path d="M331.469 323.794C331.567 332.864 320.921 325.312 317.222 323.666C309.208 320.115 302.813 313.54 294.883 310.046C287.471 306.784 280.588 301.899 273.999 296.976C268.281 292.703 262.1 289.028 256.244 284.653C252.386 281.767 248.816 278.663 245.361 275.492C242.823 273.163 237.325 270.648 235.854 267.818C238.603 268.445 241.514 272.129 243.675 273.908C246.919 276.589 250.429 279.028 253.809 281.556C259.877 286.092 266.474 289.15 272.483 293.615C276.741 296.782 280.615 300.432 285.253 303.089C289.204 305.346 292.939 308.601 297.029 310.476C298.699 311.241 300.539 311.453 302.168 312.391C309.39 316.547 315.21 323.075 323.269 325.01C325.69 325.589 329.85 326.573 330.61 323.261C331.371 319.949 327.591 316.802 326.623 314.216C330.263 316.475 330.667 320.437 331.467 323.785L331.469 323.794Z" fill="white"/>
<path d="M176.624 216.276C174.163 214.554 170.246 210.766 170.551 207.466C170.771 205.123 173.092 202.826 175.445 203.043C178.085 203.279 180.484 205.205 182.69 206.491C185.279 208.016 187.991 209.17 190.746 210.363C193.501 211.555 196.605 213.047 199.042 214.984C195.669 212.592 194.189 208.832 189.812 207.77C188.022 207.338 186.338 207.47 184.699 206.772C183.06 206.074 181.858 204.975 180.312 204.141C177.396 202.577 174.121 201.144 171.186 203.338C167.281 206.261 170.78 210.739 172.887 214.181C174.587 216.968 178.384 220.842 181.38 221.414C179.616 219.023 177.236 216.518 176.632 216.266L176.624 216.276Z" fill="#F9F9F9"/>
<path d="M180.683 223.737C186.268 227.396 189.709 234.305 194.615 238.685C198.06 241.757 202.255 243.804 205.847 246.73C212.936 252.518 218.814 259.456 225.272 265.782C227.979 268.427 231.27 269.939 234.942 270.904C225.875 264.902 220.387 254.969 210.409 249.959C202.711 246.093 197.17 238.709 190.605 233.233C187.032 230.258 183.926 227.195 180.69 223.727L180.683 223.737Z" fill="#666666"/>
<path d="M59.3902 230.303L69.8331 236.185L78.865 228.621L65.7561 223.293L59.3902 230.303Z" fill="#B0BBC4"/>
<path d="M74.2131 234.79C72.6081 233.785 70.5881 232.418 69.5838 231.985C69.0475 231.757 68.4459 231.668 67.8979 231.524C67.111 231.325 66.3656 230.907 65.6101 230.583C64.6163 230.157 61.2026 229.206 60.7761 227.66C60.5739 226.922 62.2662 226.441 62.9633 226.356C63.2998 226.786 63.9515 227.093 64.3608 227.473C64.8121 227.882 65.301 228.101 65.8766 228.295C67.2435 228.761 68.3211 229.39 69.4593 230.246C69.4278 230.224 69.4675 230.29 69.4273 230.27C70.5076 230.963 71.5545 231.233 72.2381 231.662C72.9217 232.091 73.6677 232.463 74.4436 232.701C74.2896 232.904 75.0963 234.625 74.2131 234.79Z" fill="#A2A2A2"/>
<path opacity="0.7" d="M76.1062 230.83C75.0028 230.991 73.9785 229.767 72.9388 229.487C71.8991 229.206 71.3302 229.048 70.5412 228.3C70.3757 228.149 69.7549 227.909 69.5613 227.753C69.2909 227.53 68.7865 227.423 68.4643 227.264C67.8198 226.946 67.2537 226.559 66.6523 226.179C65.8445 225.672 64.9473 225.274 64.087 224.878C63.4861 224.597 62.7848 224.318 62.1369 224.128C61.6259 223.987 61.0277 223.77 60.6211 223.453C60.9536 224.058 61.2009 224.158 61.5418 224.368C61.9667 224.635 62.4843 224.812 62.9522 225.017C63.9035 225.46 64.888 225.787 65.8211 226.279C66.6841 226.739 67.4499 227.363 68.2814 227.801C68.9204 228.138 69.4561 228.412 70.0161 228.864C70.6302 229.362 70.943 229.568 71.6437 230.186C71.5642 230.201 71.8517 230.32 71.8076 230.329C73.3349 231.212 74.0202 231.504 75.3815 232.135C75.4236 231.725 75.7407 231.026 76.1045 230.821L76.1062 230.83Z" fill="white"/>
<path d="M57.3207 227.851C57.7724 228.652 59.4459 229.682 60.204 230.215C61.0338 230.791 62.054 231.504 63.0059 231.901C63.9577 232.299 65.009 232.495 66.0018 232.866C67.0911 233.265 68.061 234.051 68.9774 234.748C69.4574 235.114 70.0677 235.493 70.6084 235.794C71.2314 236.143 71.9621 236.043 72.6348 236.219C71.5317 235.795 70.3177 235.511 69.235 235.001C68.3047 234.572 67.45 234.011 66.5468 233.531C64.4864 232.437 62.3964 231.038 60.4664 229.664C59.5196 229.001 58.8362 227.987 58.0479 227.194C57.9529 227.321 57.7479 227.789 57.7495 227.944C57.9846 228.028 57.3925 227.892 57.3191 227.842L57.3207 227.851Z" fill="white"/>
<path d="M150.456 316.698C149.026 315.706 147.951 314.449 147.229 312.928C146.515 311.412 146.476 309.788 147.112 308.056C147.168 307.934 147.196 307.873 147.196 307.873C147.479 307.481 147.984 307.549 148.71 308.075C149.337 308.528 149.569 308.957 149.407 309.361C148.451 311.848 149.094 313.904 151.336 315.528C152.247 316.189 153.35 316.576 154.646 316.689C155.947 316.796 156.974 316.33 157.727 315.291C158.248 314.572 158.209 313.681 157.612 312.619C157.169 311.821 156.471 310.995 155.516 310.14C154.892 309.579 154.275 308.97 153.667 308.312C153.058 307.654 152.561 306.947 152.176 306.19C151.305 304.441 151.388 302.851 152.424 301.421C153.476 299.969 154.927 299.441 156.778 299.838C158.636 300.239 160.166 300.876 161.369 301.747C162.6 302.64 163.577 303.771 164.3 305.14C165.022 306.51 165.104 307.948 164.545 309.453C164.501 309.574 164.464 309.655 164.433 309.698C164.149 310.089 163.652 310.027 162.94 309.511C162.306 309.053 162.071 308.621 162.233 308.218C163.072 306.145 162.496 304.387 160.503 302.943C159.663 302.335 158.644 301.944 157.446 301.77C156.259 301.595 155.311 301.998 154.599 302.98C154.099 303.67 154.19 304.594 154.872 305.75C155.385 306.599 156.152 307.481 157.173 308.394C157.819 308.97 158.462 309.61 159.103 310.313C159.744 311.016 160.223 311.771 160.541 312.576C161.118 314.025 160.92 315.423 159.945 316.768C158.796 318.355 157.258 318.972 155.332 318.619C153.414 318.271 151.788 317.631 150.456 316.698ZM167.75 311.141C167.017 310.61 166.914 309.981 167.44 309.255C167.971 308.522 168.603 308.421 169.336 308.952C170.062 309.478 170.16 310.108 169.628 310.841C169.102 311.567 168.476 311.667 167.75 311.141ZM159.149 323.013C158.423 322.487 158.205 322.024 158.494 321.626L165.548 311.889C165.836 311.491 166.344 311.554 167.07 312.08C167.789 312.601 168.004 313.061 167.715 313.459L160.661 323.196C160.372 323.595 159.868 323.533 159.149 323.013ZM171.277 331.799C170.559 331.279 170.344 330.819 170.632 330.42L174.639 324.89C175.242 324.057 175.6 323.084 175.711 321.972C175.823 320.859 175.388 319.946 174.406 319.235C173.352 318.472 172.267 318.337 171.15 318.83C170.038 319.316 169.16 320.004 168.516 320.893L164.718 326.135C164.429 326.534 163.925 326.473 163.206 325.952C162.48 325.426 162.262 324.964 162.55 324.565L169.597 314.839C169.886 314.441 170.393 314.504 171.119 315.03C171.838 315.551 172.053 316.011 171.764 316.409L171.3 317.05C172.686 316.784 174.056 317.141 175.408 318.121C176.831 319.152 177.669 320.454 177.92 322.025C178.183 323.594 177.814 325.069 176.814 326.45L172.8 331.99C172.511 332.389 172.003 332.325 171.277 331.799ZM185.363 340.963C184.167 342.614 182.722 343.402 181.03 343.326C179.345 343.255 177.758 342.681 176.271 341.603C175.402 340.974 174.558 340.14 173.737 339.1C172.917 338.061 172.517 336.995 172.537 335.903C172.539 335.796 172.566 335.706 172.617 335.635C172.901 335.244 173.406 335.311 174.132 335.837C174.637 336.203 174.885 336.573 174.875 336.946C174.861 337.609 175.096 338.251 175.579 338.872C176.07 339.499 176.578 340.003 177.105 340.384C179.461 342.091 181.495 341.763 183.207 339.4L183.609 338.845C182.219 339.086 180.826 338.701 179.431 337.69C175.794 335.055 175.296 331.916 177.936 328.272C180.576 324.628 183.718 324.126 187.362 326.766C188.722 327.751 189.52 328.964 189.756 330.405L190.228 329.754C190.517 329.355 191.021 329.416 191.739 329.937C192.451 330.453 192.663 330.91 192.374 331.308L185.363 340.963ZM180.297 336.495C181.422 337.309 182.598 337.439 183.824 336.885C185.051 336.33 186.01 335.576 186.701 334.622C187.392 333.668 187.81 332.522 187.955 331.184C188.107 329.85 187.62 328.776 186.496 327.961C185.378 327.152 184.206 327.024 182.98 327.579C181.753 328.134 180.794 328.888 180.103 329.842C179.412 330.796 178.991 331.939 178.839 333.273C178.694 334.611 179.18 335.685 180.297 336.495ZM187.836 343.796C187.11 343.27 186.892 342.808 187.18 342.409L197.181 328.605C197.47 328.206 197.978 328.27 198.704 328.796C199.422 329.317 199.637 329.777 199.349 330.175L189.348 343.979C189.059 344.378 188.555 344.317 187.836 343.796ZM196.014 349.721C194.398 348.55 193.383 347.083 192.969 345.317C192.56 343.545 192.962 341.822 194.173 340.15C195.406 338.449 196.943 337.511 198.784 337.336C200.638 337.16 202.386 337.667 204.031 338.858C205.596 339.993 206.646 341.383 207.18 343.028C207.718 344.667 207.395 346.304 206.209 347.941C205.879 348.397 205.354 348.364 204.635 347.843L196.276 341.787C195.527 342.851 195.156 344.036 195.164 345.344C195.171 346.652 195.744 347.719 196.883 348.544C197.702 349.137 198.62 349.465 199.637 349.529C200.71 349.591 201.511 349.324 202.039 348.73C202.343 348.386 202.829 348.456 203.498 348.941C204.231 349.472 204.456 349.933 204.173 350.325C204.028 350.524 203.792 350.722 203.465 350.919C202.748 351.355 201.844 351.546 200.753 351.494C199.117 351.415 197.537 350.824 196.014 349.721ZM204.384 345.854C205.718 343.532 205.314 341.595 203.172 340.043C201.265 338.661 199.295 338.878 197.263 340.695L204.384 345.854ZM217.803 348.836C218.522 349.357 218.737 349.817 218.448 350.215L214.441 355.745C213.838 356.578 213.48 357.551 213.369 358.664C213.257 359.777 213.692 360.689 214.675 361.401C215.728 362.164 216.811 362.302 217.922 361.816C219.039 361.323 219.92 360.632 220.565 359.742L224.363 354.5C224.651 354.102 225.155 354.163 225.874 354.684C226.6 355.21 226.819 355.672 226.53 356.07L219.483 365.796C219.195 366.195 218.687 366.131 217.961 365.605C217.242 365.085 217.027 364.625 217.316 364.226L217.78 363.586C216.394 363.851 215.025 363.494 213.672 362.514C212.249 361.483 211.406 360.183 211.142 358.614C210.891 357.043 211.266 355.567 212.266 354.186L216.281 348.645C216.569 348.246 217.077 348.31 217.803 348.836ZM225.48 371.069C224.427 370.306 223.609 369.36 223.026 368.233C222.455 367.103 222.395 365.898 222.845 364.617C222.878 364.511 222.91 364.437 222.941 364.394C223.225 364.003 223.726 364.068 224.445 364.588C225.078 365.047 225.317 365.475 225.16 365.871C224.529 367.52 224.919 368.855 226.328 369.876C226.919 370.304 227.624 370.544 228.444 370.595C229.277 370.645 229.935 370.335 230.42 369.666C230.724 369.246 230.665 368.677 230.241 367.958C229.956 367.468 229.505 366.93 228.888 366.342C228.376 365.852 227.881 365.358 227.405 364.861C226.937 364.37 226.575 363.782 226.322 363.099C225.86 361.864 225.967 360.78 226.642 359.848C227.436 358.751 228.536 358.365 229.941 358.688C231.358 359.009 232.518 359.497 233.422 360.152C234.347 360.823 235.094 361.679 235.664 362.721C236.24 363.768 236.313 364.857 235.884 365.99C235.859 366.069 235.826 366.137 235.784 366.194C235.521 366.557 235.023 366.489 234.288 365.99C233.655 365.531 233.419 365.099 233.581 364.696C234.134 363.349 233.791 362.227 232.553 361.329C232.019 360.943 231.373 360.703 230.616 360.61C229.863 360.51 229.263 360.769 228.814 361.389C228.515 361.801 228.609 362.391 229.097 363.156C229.43 363.669 229.881 364.208 230.45 364.771C230.957 365.269 231.432 365.76 231.874 366.243C232.322 366.719 232.678 367.292 232.942 367.961C233.415 369.15 233.309 370.218 232.623 371.165C231.767 372.346 230.606 372.802 229.141 372.533C227.675 372.263 226.455 371.775 225.48 371.069ZM237.032 379.438C235.416 378.268 234.401 376.8 233.987 375.034C233.578 373.262 233.979 371.54 235.191 369.867C236.424 368.166 237.96 367.228 239.802 367.053C241.655 366.877 243.404 367.384 245.048 368.575C246.614 369.71 247.664 371.1 248.197 372.745C248.736 374.384 248.412 376.021 247.226 377.658C246.896 378.114 246.372 378.081 245.653 377.56L237.294 371.504C236.545 372.568 236.174 373.754 236.181 375.061C236.189 376.369 236.762 377.436 237.901 378.261C238.719 378.854 239.637 379.182 240.655 379.246C241.728 379.308 242.529 379.041 243.057 378.447C243.361 378.103 243.847 378.173 244.516 378.658C245.249 379.189 245.474 379.65 245.19 380.042C245.046 380.241 244.81 380.439 244.483 380.636C243.766 381.072 242.862 381.263 241.771 381.211C240.135 381.133 238.555 380.542 237.032 379.438ZM245.401 375.571C246.736 373.249 246.332 371.313 244.19 369.76C242.282 368.378 240.312 368.596 238.28 370.412L245.401 375.571ZM150.763 357.688C149.71 356.924 148.892 355.979 148.309 354.851C147.738 353.721 147.678 352.516 148.128 351.236C148.161 351.13 148.193 351.056 148.224 351.013C148.508 350.621 149.009 350.686 149.728 351.207C150.361 351.666 150.6 352.094 150.443 352.49C149.812 354.139 150.202 355.474 151.611 356.495C152.202 356.923 152.907 357.163 153.727 357.214C154.56 357.264 155.218 356.954 155.703 356.285C156.007 355.865 155.948 355.295 155.525 354.576C155.239 354.087 154.788 353.549 154.171 352.961C153.659 352.47 153.164 351.976 152.689 351.48C152.22 350.988 151.859 350.401 151.605 349.718C151.143 348.482 151.25 347.398 151.925 346.466C152.72 345.37 153.819 344.983 155.224 345.307C156.641 345.628 157.801 346.116 158.705 346.771C159.63 347.441 160.378 348.297 160.947 349.339C161.523 350.386 161.597 351.476 161.167 352.608C161.142 352.688 161.109 352.756 161.068 352.813C160.805 353.176 160.306 353.107 159.572 352.608C158.938 352.149 158.702 351.718 158.865 351.314C159.417 349.967 159.074 348.845 157.836 347.948C157.302 347.561 156.656 347.321 155.899 347.228C155.147 347.128 154.546 347.388 154.097 348.007C153.798 348.42 153.893 349.009 154.38 349.775C154.714 350.288 155.165 350.826 155.733 351.39C156.241 351.888 156.715 352.378 157.158 352.862C157.605 353.338 157.961 353.91 158.225 354.579C158.698 355.768 158.592 356.837 157.906 357.783C157.05 358.965 155.889 359.421 154.424 359.151C152.959 358.882 151.738 358.394 150.763 357.688ZM166.104 352.131C166.823 352.652 167.038 353.111 166.749 353.51L162.742 359.04C162.139 359.873 161.781 360.846 161.67 361.959C161.558 363.072 161.993 363.984 162.975 364.696C164.029 365.459 165.111 365.597 166.223 365.111C167.34 364.618 168.221 363.927 168.866 363.037L172.663 357.795C172.952 357.396 173.456 357.458 174.175 357.978C174.901 358.504 175.119 358.967 174.831 359.365L167.784 369.091C167.495 369.49 166.988 369.426 166.262 368.9C165.543 368.379 165.328 367.92 165.617 367.521L166.081 366.88C164.695 367.146 163.326 366.789 161.973 365.809C160.55 364.778 159.706 363.478 159.443 361.908C159.192 360.337 159.567 358.862 160.567 357.481L164.582 351.94C164.87 351.541 165.378 351.605 166.104 352.131ZM174.646 374.99C170.838 372.232 170.244 369.044 172.863 365.429C174.111 363.706 175.64 362.757 177.45 362.581C179.259 362.406 181 362.924 182.673 364.135C183.726 364.899 184.587 365.935 185.256 367.244C185.932 368.558 185.964 369.846 185.354 371.108C185.306 371.204 185.272 371.266 185.252 371.295C184.968 371.686 184.467 371.621 183.748 371.101C183.079 370.616 182.851 370.174 183.064 369.775C183.968 368.063 183.548 366.576 181.804 365.313C180.594 364.436 179.355 364.228 178.088 364.688C176.827 365.142 175.799 365.916 175.004 367.013C174.238 368.085 173.833 369.273 173.79 370.577C173.751 371.873 174.337 372.96 175.547 373.836C177.27 375.084 178.841 375.034 180.262 373.687C180.577 373.372 181.065 373.455 181.727 373.935C182.453 374.46 182.675 374.919 182.391 375.311C182.412 375.282 182.346 375.343 182.194 375.493C181.138 376.411 179.88 376.747 178.418 376.502C176.957 376.258 175.699 375.754 174.646 374.99ZM190.703 386.624C190.148 386.221 189.847 385.819 189.802 385.417L188.795 377.46L186.461 377.625L184.079 380.913C183.79 381.312 183.283 381.248 182.557 380.722C181.831 380.196 181.612 379.734 181.901 379.335L191.902 365.531C192.191 365.132 192.698 365.196 193.424 365.722C194.15 366.248 194.369 366.71 194.08 367.109L187.83 375.735L197.3 375.091C197.591 375.063 197.922 375.183 198.292 375.451C198.477 375.585 198.622 375.723 198.726 375.863C198.987 376.193 199.047 376.454 198.908 376.646C198.851 376.725 198.746 376.773 198.591 376.791L191.331 377.262L192.513 386.551C192.532 386.706 192.51 386.826 192.448 386.911C192.247 387.189 191.852 387.201 191.265 386.949C191.075 386.866 190.888 386.758 190.703 386.624ZM197.61 391.628C196.557 390.865 195.739 389.919 195.156 388.791C194.585 387.662 194.525 386.457 194.975 385.176C195.008 385.07 195.04 384.996 195.071 384.953C195.355 384.562 195.856 384.626 196.575 385.147C197.208 385.606 197.447 386.034 197.29 386.43C196.659 388.079 197.049 389.414 198.458 390.435C199.049 390.863 199.754 391.103 200.574 391.154C201.407 391.204 202.065 390.894 202.55 390.225C202.854 389.805 202.795 389.236 202.371 388.517C202.086 388.027 201.635 387.489 201.018 386.901C200.506 386.411 200.011 385.917 199.536 385.42C199.067 384.929 198.705 384.341 198.452 383.658C197.99 382.423 198.097 381.339 198.772 380.406C199.566 379.31 200.666 378.924 202.071 379.247C203.488 379.568 204.648 380.056 205.552 380.711C206.477 381.381 207.225 382.238 207.794 383.279C208.37 384.327 208.443 385.416 208.014 386.548C207.989 386.628 207.956 386.696 207.914 386.753C207.651 387.116 207.153 387.048 206.418 386.548C205.785 386.089 205.549 385.658 205.711 385.255C206.264 383.908 205.921 382.786 204.683 381.888C204.149 381.502 203.503 381.262 202.746 381.169C201.993 381.069 201.393 381.328 200.944 381.948C200.645 382.36 200.739 382.949 201.227 383.715C201.56 384.228 202.011 384.766 202.58 385.33C203.087 385.828 203.562 386.319 204.004 386.802C204.452 387.278 204.808 387.85 205.072 388.519C205.545 389.709 205.439 390.777 204.753 391.724C203.897 392.905 202.736 393.361 201.271 393.092C199.806 392.822 198.585 392.334 197.61 391.628Z" fill="black"/>
</g>
<defs>
<clipPath id="clip0_104_20">
<rect width="279" height="448" fill="white" transform="translate(0 51.3359) rotate(-10.603)"/>
</clipPath>
</defs>
</svg>
