<?xml version="1.0" encoding="UTF-8"?><svg id="Layer_2" xmlns="http://www.w3.org/2000/svg" viewBox="0 0 553.21 793.71"><defs><style>.cls-1{fill:#ad6647;}.cls-2{fill:#c06d51;}.cls-3{fill:#a35f46;}.cls-4{fill:#af644e;}.cls-5{fill:#965440;}.cls-6{fill:#2d1613;}.cls-7{fill:#c56e57;}.cls-8{fill:#9e5038;}.cls-9{fill:#8c8465;}.cls-10{fill:#82795e;}.cls-11{fill:#402211;}.cls-12{fill:#f2673b;}.cls-13{fill:#a15843;}.cls-14{fill:#2c1511;}</style></defs><g id="Layer_2-2"><path class="cls-1" d="M50.44,14.19C83.25-2.64,118.2,7.55,118.2,7.55c33.32,7.39,39.88,20.92,50.05,35.44,20.15,28.76,25.17,40.72,29.37,46.9,6.66,9.81,8.91,48.48,11.32,48.39,1.9-.07,24.02-10.5,27.78-18.54,16.78-12.57,23.17-11.49,37.18-13.67,5.78-.9,12.52-10.24,69.42,22,4.91,2.78,10.17,7.55,39.07,26.09,45.3,29.06,19.4,12.4,58.04,36.5,25.19,15.71,55.71,32.11,96.56,76.08,10.64,11.45,16.26,12.94,16.22,24.85-.07,20.78-4.99,30-12.95,37.79-20.96,20.5-89.67,40.54-130.9,37.13-8.73-.72-16.36-2.34-21.88,2.53-12.1,10.66-1,40.97,5.05,58.92,0,0,12.28,36.4,32.82,148.13,12.36,67.23,18.54,100.84,4.21,126.4-46.78,83.38-260.8,73.3-307.21,0-4.86-7.68-10.71-20.52-11.78-22.87-6.39-14.03-24.98-55.92-26.09-111.94-.78-39.33,7.68-54.15-5.05-74.91-9.39-15.31-23.19-22.26-26.93-24.41-8.97-5.14-15.31-13.18-19.68-23.66-6.85-16.41,1-30.98,1.26-57.59.2-20.88-8.06-52.19-6.27-77.43,2.76-38.77,11-73.26,10.2-117.23-.5-27.35-32.01-70.2-33.67-102.68C2.28,49.61,31.61,23.85,50.44,14.19Z"/><path class="cls-9" d="M203.6,135.95c2.72-31.22,4.09-46.82,15.15-60.6,17.79-22.16,46.12-25.52,58.08-26.93,9.89-1.17,35.49-4.21,59.76,10.94,17.95,11.2,26.85,27.16,32.82,37.88,1.57,2.81,3.49,6.52,13.47,35.35,7.54,21.79,15.47,45.79,17.68,69.02.37,3.93,1.08,13.09-2.53,23.57-1.48,4.29-3.23,9.2-7.57,13.47-8.23,8.07-17.92,6.13-18.52,9.26-.95,5.05,26.65,7.07,42.76,26.12,11.07,13.1,26.25,17.57,36.36,42.06,21.55,52.21,33.79,87.71,36.26,96.25.95,3.28,6.39,27.81,14.18,74.44,1.31,7.82,1.23,15.97-3.7,30.13-1.84,5.27-2.94,11.4-11.93,18.01-15.06,11.09-36.15,5.74-48.82,2.53-26.88-6.82-30.25-21.52-35.61-16.65-3.44,3.12,3.5,25.49,5.61,31.71,7.23,21.33,14.54,32.88,21.04,65.65,5.47,27.6,22.9,98.56,7.82,128.87-34.56,69.43-263.03,56.18-281.96-5.05-4.03-13.03,6-13.75,21.88-74.07,17.52-66.56,5.53-66.56,21.04-101.84,4.58-10.43,11.94-24.78,5.89-32.83-4.98-6.62-13.99-2.24-30.3-7.57-14.39-4.71-33.32-16.61-35.35-31.98-.88-6.65,2.12-8.54,8.42-25.25,7.21-19.12,4.32-19.39,10.94-38.72,8.59-25.06,14.55-27.82,17.67-46.29,2.19-12.92-.08-15.39.84-26.93,3.83-48,49.66-88.37,49.66-88.37,0,0,8.54-3.8,8.42-6.73-.11-2.51-6.53-3.5-10.1-5.05-11.87-5.16-13.64-25.88-15.15-46.29-3.27-44.08-4.9-66.12-4.21-74.07Z"/><circle class="cls-12" cx="296.8" cy="500.58" r="39.35"/><circle class="cls-11" cx="269.93" cy="487.65" r="2.62"/><circle class="cls-11" cx="281.31" cy="489" r="2.62"/><circle class="cls-11" cx="297.82" cy="490.27" r="2.62"/><circle class="cls-11" cx="314.82" cy="489" r="2.62"/><circle class="cls-11" cx="261.04" cy="482.36" r="2.62"/><path class="cls-2" d="M270.33,543.01c-3.77-.18-9.49-1.17-12.95-2.67-9.2-4-22.84-6.61-30.72-10.23-10.72-4.93-9.6-18.38-1.92-25.84,3.38-3.29,2.69-1.71,7.39-5.83l11.28,5.68c.78.63,5.08.2,6.03-.13,3.39-1.15,6.77-2.29,10.16-3.44,2.87-.97,24.83-4.1,27.81-3.36,2.98.74.91,4.8-1.9,7.08-1.71,1.39-16.65,4.76-16.39,6.91,2.6-.6,5.42.19,8.02-.41,3.64-.84,14.72,1.22,18.46-.61,4.51-2.2,22.68-4.13,22.36-.57-.47,3.23-27.08,10.97-29.74,12.37,1.92-1.66,9.34-.58,17.44-4.27,7.97-3.63,15.13-6.24,17.41-5.52,4.32,1.36-3.73,8.18-10.19,11.95-4.58,2.68-14.09,5.36-14.9,5.43,7.38-.68,22.55-8.11,27.38-8.53.8.26,1.83.09,2.42.67,2.07,2.03-12.87,12.31-15.58,13.36-5.25,2.02-7.38,1.97-14.29,3.61l9.02-1.39c1.24,0,3.24-.42,4.77-.59,1.62-.18,2.28-1.03,3.54-1.34-1.74,1.06-2.25,3.9-4.16,4.67-.76.31-1.86.96-2.67,1.16-.82.21-1.97.79-2.78,1.05-1.49.47-2.4,1.01-3.91,1.45-.53.15-1.07.25-1.58.43-3.35.39-7.41.56-11.99.12l-17.83-1.21Z"/><path class="cls-10" d="M249.44,543.49c-4.31,8.92-40.03-.42-44.51-1.57-14.5-3.7-11.07-9.87-37.8-18.89-11.43-3.86-17.44-5.59-23.95-11.72-2.68-2.52-7.46-7.13-9.41-14.43-2.05-7.66-6.94-19.29-5.53-27.08,5.38-29.79-1.42-8.73,6.39-29.93,5.57-15.11,19.06-32.1,23.53-41.9,3.31-7.24,6.74-8.5,8.98-17.96.98-4.15,1.48-7.59,2.57-18.04,2.15-20.75,5.19-25.78,5.97-31.04,3.25-22.02,16.91-37.25,23.95-45.09,8.03-8.95,15.14-16.88,26.51-18.94,11.46-2.2,42.83-11.39,43.8-6.1,4.86,26.56-27.88,51.58-39.2,113.97-7.19,39.67-1.63,56.49-12.85,67.99-5.22,5.35.25,14.08,1.06,20.67,2.36,19.18,20.03,22.47,22.06,36.6.3,2.09-2.19,1.11-3.78,5.59-1.83,5.14-1.04,11.8-.66,15.46,1.32,12.74,15.22,17.53,12.87,22.4Z"/><path class="cls-3" d="M103.92,165.98c1.22-.2,3.1.16,3.92,1.09,4.18,4.72,1.03,5.27,3.37,12.26,1.48,4.44.23,10.05,3.78,13.09,2.27,1.94,6.8,5.36,9.6,6.4,2.8,1.03,12.42-3.49,13.08-.58.41,1.83,1.04,4.45-.47,5.57-12.2,9.06,4.23,13.57,12.93,17.8,2.74,1.34,8.6.63,13.52,1.09,13.54,1.28,19.46-15.93,17.79-29.43-4.39,1.9-8.22,9.29-11.51,12.77-6.19,6.53-15.33,3.59-24.32,3.72,4.12-1.2,3.15-1.81,5.68-3.28,2.53-1.46,5.45-2.06,8.15-3.16,5.19-2.12,13.03-8,15.49-13.88-4.09-.11-10.14,4.15-14.2,4.69-1.73.23-3.72.71-4.45,2.3-.49,1.07-.39,2.58-1.43,3.11-.72.37-1.57.03-2.35-.15-2.89-.68-6.15,1.18-7.04,4.02-1.21-6.11-1.07-3.65-.12-8.79.58-3.12,3.95-5.15,4.66-8.25-4.03-.23-6.87,3-10.9,2.77-1.65-.09-4.62-.89-6.03-1.76-2.23-1.37-2.99-6.91-4.13-9.27-1.23-2.56-3.02-4.8-4.79-7.02-4.18-5.23-8.52-10.6-14.4-13.8-12.16-6.63-27.93-2.05-38.41,7.01-2.17,1.88-15.67,9.1-16.65,11.79l35.07,26.78c-.47-3.25-12.07-12.66-6.77-22.11,6.43-11.47,16.27-14.05,20.93-14.8Z"/><path class="cls-13" d="M151.97,181.62c-1.64,1.09-3.61,1.53-5.57,1.46-.6-.02-1.47.43-1.54-.16,3.46-1.47,7.18-4.04,10.86-3.28.85.18,1.84.67,1.84,1.54,0,.61-.89,1.21-1.48,1.39s-.84,0-1.45-.08c-1.36-.19-2.72-.37-4.08-.56"/><path class="cls-13" d="M139.9,123.32c-4.26,2.39-8.01,5.56-11.74,8.71-1.56,1.32-3.14,2.66-4.31,4.33-1.96,2.8-2.61,6.47-1.8,9.79.81,3.32,3.04,6.26,6,7.99,3.59,2.09,7.91,2.37,12.06,2.6,1.56.09,3.14.17,4.67-.15,2.01-.42,3.81-1.52,5.57-2.59,6.79-4.16,13.87-8.62,17.74-15.57,1.22-2.2,1.98-5.18.48-7.1-.15-.19-.43-.22-.64-.09-1.66,1.1-6.07,2.21-7.29,3.56-6.52,7.24-11.38,10.59-22.19,10.65-.38,0-1.72-.11-1.69-.49.26-3.63-.5-6.29,1.89-8.65,4.5-4.46,3.54-4.72,9.58-6.64,4.35-1.38,15.1-5.77,18.85-8.08.43-.26.2-.92-.3-.89-2.02.13-4.78-.14-5.73-.15-2.51-.02-4.91-.31-7.37-.66-4.79-.68-9.62,1.11-13.77,3.44Z"/><path class="cls-5" d="M166.97,238.64c-6.13.41-5.18-.88-11.12-2.44-11.76-3.09-14.82-5.83-26.58-8.92-6.46-1.7-12.99-3.43-18.81-6.7-9.41-5.3-16.16-14.15-23.66-21.92-7.49-7.77-28.5-37.82-33.55-18.6,2.98,7.83,15.22,17.19,21.46,22.77,6.25,5.58,6.92,10.13,10.66,17.63,3.74,7.5-4.81,15.33-10.66,21.32-2.93,2.99.12,12.65-.45,16.8,7.17,7.09,30.88-12.81,40.38-9.44,12.7,4.51,32.23,18.16,45.65,19.31,13.42,1.15,18.09,1.69,28.55-6.8,6.09-4.95,12.7-36.29,5.51-32.54-19.7,10.27-16.73,8.83-27.4,9.54Z"/><path class="cls-14" d="M131.89,94.77c-17.83-3.27-54.16,10.87-62.73-5.28-6.59-12.42-21.72-51.28-19.83-65.21.53-3.86-1.02-1.64,3.63-9.72.98-1.7,3.64-6.25,7.8-9.47C70.37-2.34,100.19.11,107.4,1.69c32.26,7.07,44.35,13.68,62.7,41.14,18.35,27.46,34.05,46.67,38.11,76.76,1.22,9.06.7,21.07.36,30.21-.22,5.92-1.28,8.14-.56,14.03,1.95,15.96.81,32.44,2.76,48.4,1.14,9.33,1.7,19.19,6.41,27.32,15.77,27.19,27.77,17.97,27.41,21.26-1.97,17.6-19.06,22.69-27.89,27.09-1.4.7-16.13,4.56-21.74-.35-15.2-13.3-12.76-33.86-6.12-56.87,2.8-9.7,2.49-5.41,3.89-15.41,1.01-7.28,8.29-17.85,8.8-33.59.54-16.7-4.72-40.85-14.33-57.68-12.7-22.24-10.67-10.27-38.74-29.24h-16.57Z"/><path class="cls-4" d="M15.77,571.78c-1.93-4.45-3.9-11.64-3.86-16.51.1-12.97-4.23-30.25-3.88-41.48.49-15.28,19.39-21.93,33.95-17.48,6.1,1.87,4.1,2.08,11.04,4.66.67.25,1.11.92,1.06,1.63l-1.09,15.15c-.41,1.27,2.67,5.98,3.66,6.88,3.51,3.23,7.02,6.46,10.53,9.68,2.97,2.74,19.91,26.22,20.63,30.09.71,3.87-5.98,3.88-10.7,1.99-1.97-.79-8.78-8.18-13.77-12.26-1.33-1.09-3.21.35-2.5,1.91.72,1.6,1.45,3.2,2.61,4.53,3.24,3.7,6.85,17.7,11.5,20.94,5.59,3.9,18.71,23.72,13.7,25.46-4.65,1.36-30.53-24.76-33.97-27,3.36,1.24,6.18,10.43,15.87,17.6,9.53,7.05,17.21,13.77,17.56,16.83.65,5.78-13.25.52-22.1-4.7-6.28-3.7-15.41-13.09-15.98-13.98,5.1,7.97,23.4,20.77,27.21,26.27.13.19.19.4.24.62.21.97.83,1.93.43,2.85-1.56,3.59-24.14-7.58-27.13-10.09-5.78-4.86-6.94-7.35-13.17-14.35l7.02,9.48c.05.07.07.14.13.2,2.12,2.39,2.5,3.34,4.13,4.46.83.57,1.57,1.59,1.95,1.96,1.04,1.01,1.12,4-.3,3.72-1.21-.24-3.7-1.19-7.14-3.84-.88-.68-2.38-1.58-3.11-2.39-.76-.83-2.21-1.8-3.03-2.58-1.51-1.44-2.76-2.18-4.22-3.66-.47-.47-.88-1-1.37-1.45-.09-.08-.17-.17-.24-.27-2.43-3.62-4.97-8.15-7-13.61l-8.67-21.29Z"/><path class="cls-8" d="M90.06,256.82c-13.08,5.9-32.4,28.23-17.8,48.66,4.53,6.35,9.76,12.18,14.19,18.6,12.07,17.48,8.42,38.11,14.36,56.14,6.83,20.72,10.19,25.34,7.02,48.02,0,.05-.01.1,0,.15.09,7.64.44,12.45.08,13.66-3.78,26.56-4.65,43.95-25.35,61.2-.54.45-15.72,26.42-16.36,26.72-4.73,2.22-15.19-6.02-18.26-9.2-4.05-4.2-4.23-7.55-8.98-10.93-15.07-10.73-12.25-9.26-25.25-6.45-.64.14-8.88,7.29-9.47,7.01-4.23-1.95-4.74-6.14-3.87-9.82,3.04-12.89,21.9-43.17,18.71-54.26-.55-1.9-.84-3.87-.7-5.85.87-12.13,10.38-29.88,11.99-41.85,3.73-27.83-13.37-30.47-10.3-69.33.59-7.48,3.19-14.24,3.9-21.71,1.36-14.13,5.68-27.94,10.45-41.38,3.82-10.76,13.91-18.04,25.33-18.36l16.63-.46c3.81-.11,7.3,2.12,8.82,5.61l10.23-.35"/><path class="cls-6" d="M67.28,179.02c.78,1.89,2.24,4.31,4.19,7.04,8.78,12.35,27.42,31.27,37.56,38.44,10.3,7.28-6.94,31.64-11.73,36.31-21.13,20.61-28.31-2.96-36.38,11.92-5.46,10.08-17.75,10.29-23.47,10.44-3.4.09-7.95-5.25-8.58-7.33-2.93-9.62-.31-13.42-1.56-21.12-3.31-20.52,2.43-30.03.43-52.4-3.25-36.45-25.1-70.86-25.39-109.69-.22-30.03,14.72-53.02,35.68-74.54,7.84-8.04,16.96-10.5,27.44-15.17-4.21.28-12.02,30.09-11.52,34.12,1.67,13.32,6.61,23.49,9.44,36.78,1.26,5.92,11.9,22.75,9.26,28.02-12.86,25.72-14.72,27.01-15.77,33.4-3.84,23.49,5.64,32.27,10.37,43.77Z"/><path class="cls-7" d="M301.96,387.63c-.54.55-1.34,3.57-1.47,4.35-.34,1.92-1.18,3.16-.85,4.18s-4.32,16.42-3.45,17c1.54,1.02,3.91-2.91,5.61-3.58,2.25-.88,6.06-17.91,7.46-19.99,1.53-2.28,5.32-12.33,5.57-15.12-2.77-.1-3.99,3.81-6.06,6.31-1.65,1.98-2.5,2.45-6.79,6.85Z"/><path class="cls-7" d="M296.51,407.06c-3.44,8.72-5.14,10.88-6.87,18.23-.89,3.8-.67,28.99,3.24,28.76,1.12-.07,1.71-1.29,2.63-1.88,3.24-5.4,6.43-28.14,11.33-36.43-.54.91-4.8,13.3-5.27,20.57-.66,10.26.92,25.04,5.78,21.84,2.57-1.69,5.11-11.57,7.09-23.26,2.02-11.88,8.95-18.55,8.54-22.11-.45,4.08-12.07,38.96-8.76,42.5,3.81,3.69,15.58-16.97,16.54-23.71l9.68-20.85c-2.09,8.26-.77,6.72-5.21,18.29-3.12,8.14-7.74,12.99-1.89,13.32,2.8.16,9.03-6.48,15.02-19.29,3.47-7.43,8.19-14.58,10.59-16.01,4.1-2.44,13.04-12.87,14.33-17.46.36-1.29,3.17-6.16,4.49-6.37l15.14-6.33c-1.09-8.76.17-6.55-.97-13.16-2.6-15-17.06-28.86-30.92-22.4-10.18,4.74-23.64,16.41-35.26,22.18-4.36,2.16-9.89,7.16-12.99,10.89l-16.26,32.7"/><path class="cls-2" d="M345.3,452.82c-.52,0-.55.17-2.83,1.21-.64.29-.7.05-2.47,1.46-.58.46-10.15,5.22-10.06,5.94.16,1.27,3.17.73,4.25,1.32,1.42.78,11.66-4.98,13.32-5.2,1.81-.23,8.53-2.83,10.04-3.97-1.16-1.5-2.97-.51-5.84-.76-1.72-.15-1.33-.02-6.4,0Z"/><path class="cls-2" d="M333.14,458.81c-5.89,2.17-7.72,2.26-12.17,4.7-2.3,1.26-14.88,12.87-13.06,14.82.52.56,1.4.31,2.09.53,4.13-.76,16.97-9.46,23.28-10.66-.69.13-8.79,3.55-12.65,6.62-5.45,4.33-12.2,11.91-8.47,13.01,1.97.58,8.05-2.59,14.8-6.88,6.86-4.36,13.25-3.76,14.86-5.59-2.25,1.63-24.88,11.42-25.21,14.78-.19,3.69,15.34.45,19.16-2.12l14.72-4.42c-5.07,2.67-3.72,2.66-11.48,5.6-5.46,2.07-9.92,1.86-7.53,5.08,1.15,1.55,7.21,1.79,16.27-.9,5.25-1.56,10.92-2.34,12.68-1.74,3.02,1.04,12.17.98,15.05-.43.81-.4,4.48-1.14,5.17-.54l9.8,5.07c3.93-4.57,3.37-2.9,6.2-6.52,6.42-8.21,7.08-22.14-2.22-26.48-6.83-3.19-18.58-4.95-26.56-8.43-2.99-1.31-7.92-1.93-11.16-1.86l-23.56,6.37"/><path class="cls-10" d="M386.5,480.71c-3.44,6.83-14.11,11.51-14.34,19.15-.19,6.2,4.74,14.96,7.57,20.48.77,1.49,3.79,4.53,5.05,5.63,1.14.99,5.61,2.51,7.01,3.06,5.19,2.04,8.95.6,14.14,2.64,12.14,4.76,24.32,9.54,37.02,12.5,13.21,3.08,28.29,3.78,39.16-4.34,3.52-2.63,6.39-6.05,8.85-9.7,8.5-12.6,12.3-28.29,10.51-43.39-.88-7.42-3.06-14.64-4.09-22.05-.97-6.94-.94-13.99-2.03-20.92-1.68-10.71-6.01-20.84-8.06-31.48-.89-4.62-1.36-9.37-3.17-13.71-4.27-10.24-9.98-19.34-11.53-30.33-.34-2.42-25.54-55.93-49.48-89.62-16.81-23.66-46.32-25.33-47.23-26.74-8.73,5.06,18.24,35.73,11.7,43.41-4.31,5.05,17.39,49.38,18.8,59.48.62,4.45,8.28-7.65,8.7,4.77.16,4.65-8.66,30.65-7.57,35.18,3.81,15.94-5.5,26.32-1.68,42.26,1.29,5.4,2.16,15.88,2.21,21.43.01,1.58-.11,3.27-1.04,4.55-1.03,1.41,9.45-13.03,7.74-12.66-6.37,1.41-2.52,10.45-9.08,9.84-3.06-.29-6.4-5.93-9.5-6.33-1.13-.14-6.75.37-7.65,1.31-1.29,1.37-3.12,2.31-2.38,3.95,2.68,5.92,3.14,16.1.37,21.59Z"/><path class="cls-1" d="M415.51,380.74c-7.18,1.98-16.45,10.28-28.24,4.13-4.61-2.41,3.05-2.31-.74-18.08-2.37-9.86-14.94-15.28-15.86-15.64-10.94-4.27-16.34-3.6-21.7-3.92-4.84-.29,3.26-12.11,4.54-13.86,1.39-1.9,2.84-3.75,4.36-5.54,4.91-5.79,10.47-11.02,16.43-15.71,5.66-4.45,11.68-8.44,17.9-12.06,5.69-3.32,11.56-6.34,17.49-9.2,2.66-1.28,5.33-2.53,8.01-3.77,1.26-.58,2.54-1.12,3.78-1.75,1.58-.8,1.79-2.73,2.17-4.31.11-.47.36-1,.17-1.45-.83-1.9-1.93-1.82-1.54-2.53.89,1.04,3.31,2.03,4.26,3.02.95.98,1.75,2.23,1.74,3.6,0,1.79-1.43,3.35-3.11,3.98s-3.54.52-5.31.22c-.16-.03-.37-.12-.34-.28.01-.06-1.1-.84-1.04-.86,3.86-1.01,2.99-1.53,4.33-2.03,1.48-.54,2.92-1.34,4.34-2.03,10.74-5.17,16.71-9.09,12.83-13.89-7.71-9.54,13.47-3.67,15.05-6.27,15.76-25.94,92.15,11.28,95.99,33.92,3.34,19.7-19.02,50.98-45.91,61.03-3.56,1.33-23.42,5.17-63.15,12.84"/></g></svg>