<svg width="786" height="218" viewBox="0 0 786 218" fill="none" xmlns="http://www.w3.org/2000/svg">
<path d="M12.8117 176.535V40.3351H65.6117C93.0117 40.3351 112.612 57.9351 112.612 84.5352C112.612 112.935 93.0117 129.935 64.6117 129.935H41.2117V176.535H12.8117ZM41.0117 105.935H62.4117C76.2117 105.935 84.0117 97.9352 84.0117 85.5352C84.0117 73.5351 76.6117 65.3351 62.2117 65.3351H41.0117V105.935ZM171.293 179.735C140.493 179.735 119.293 157.335 119.293 126.335C119.293 95.3352 140.493 72.7351 171.293 72.7351C202.093 72.7351 223.293 95.1352 223.293 126.135C223.293 157.135 202.093 179.735 171.293 179.735ZM171.293 155.535C186.893 155.535 196.693 142.535 196.693 126.135C196.693 109.935 186.893 96.9351 171.293 96.9351C155.493 96.9351 145.893 109.935 145.893 126.335C145.893 142.535 155.493 155.535 171.293 155.535ZM239.909 176.535V76.1351H266.309C266.309 81.5352 266.309 85.9352 265.909 91.3352L267.309 91.5352C272.909 80.1352 282.709 75.3351 293.309 75.3351C295.109 75.3351 296.909 75.5352 298.909 75.9352V100.535C295.509 100.535 292.509 100.535 289.309 100.535C274.709 100.535 266.909 109.535 266.909 124.535V176.535H239.909ZM320.607 176.535V100.135H306.007V76.1351H320.607V48.9352H347.807V76.1351H369.607V100.135H347.807V176.535H320.607ZM394.445 176.535V99.9352H379.445V76.1351H394.445V70.7351C394.445 42.1351 411.045 28.3351 434.045 28.3351C439.245 28.3351 443.445 28.9351 448.045 30.5352L447.445 52.9352C443.845 51.9352 440.845 51.7352 437.445 51.7352C427.845 51.7352 421.245 57.7351 421.245 69.9351V76.1351H447.245V99.9352H421.245V176.535H394.445ZM503.91 179.735C473.11 179.735 451.91 157.335 451.91 126.335C451.91 95.3352 473.11 72.7351 503.91 72.7351C534.71 72.7351 555.91 95.1352 555.91 126.135C555.91 157.135 534.71 179.735 503.91 179.735ZM503.91 155.535C519.51 155.535 529.31 142.535 529.31 126.135C529.31 109.935 519.51 96.9351 503.91 96.9351C488.11 96.9351 478.51 109.935 478.51 126.335C478.51 142.535 488.11 155.535 503.91 155.535ZM572.526 176.535V31.3352H599.526V176.535H572.526ZM621.549 176.535V76.1351H648.549V176.535H621.549ZM634.949 64.5352C625.549 64.5352 618.549 58.3352 618.549 49.1352C618.549 39.9352 625.349 33.7351 634.949 33.7351C644.549 33.7351 651.349 39.9352 651.349 49.1352C651.349 58.3352 644.549 64.5352 634.949 64.5352ZM717.191 179.735C686.391 179.735 665.191 157.335 665.191 126.335C665.191 95.3352 686.391 72.7351 717.191 72.7351C747.991 72.7351 769.191 95.1352 769.191 126.135C769.191 157.135 747.991 179.735 717.191 179.735ZM717.191 155.535C732.791 155.535 742.591 142.535 742.591 126.135C742.591 109.935 732.791 96.9351 717.191 96.9351C701.391 96.9351 691.791 109.935 691.791 126.335C691.791 142.535 701.391 155.535 717.191 155.535Z" fill="black"/>
<path d="M26.5313 28.5352H23.7953L15.5633 16.0792V28.5352H12.8273V11.8312H15.5633L23.7953 24.2632V11.8312H26.5313V28.5352ZM29.2122 21.8632C29.2122 20.5352 29.4842 19.3592 30.0282 18.3352C30.5882 17.3112 31.3402 16.5192 32.2842 15.9592C33.2442 15.3832 34.3002 15.0952 35.4522 15.0952C36.4922 15.0952 37.3962 15.3032 38.1642 15.7192C38.9482 16.1192 39.5722 16.6232 40.0362 17.2312V15.3112H42.7962V28.5352H40.0362V26.5672C39.5722 27.1912 38.9402 27.7112 38.1402 28.1272C37.3402 28.5432 36.4282 28.7512 35.4042 28.7512C34.2682 28.7512 33.2282 28.4632 32.2842 27.8872C31.3402 27.2952 30.5882 26.4792 30.0282 25.4392C29.4842 24.3832 29.2122 23.1912 29.2122 21.8632ZM40.0362 21.9112C40.0362 20.9992 39.8442 20.2072 39.4602 19.5352C39.0922 18.8632 38.6042 18.3512 37.9962 17.9992C37.3882 17.6472 36.7322 17.4712 36.0282 17.4712C35.3242 17.4712 34.6682 17.6472 34.0602 17.9992C33.4522 18.3352 32.9562 18.8392 32.5722 19.5112C32.2042 20.1672 32.0202 20.9512 32.0202 21.8632C32.0202 22.7752 32.2042 23.5752 32.5722 24.2632C32.9562 24.9512 33.4522 25.4792 34.0602 25.8472C34.6842 26.1992 35.3402 26.3752 36.0282 26.3752C36.7322 26.3752 37.3882 26.1992 37.9962 25.8472C38.6042 25.4952 39.0922 24.9832 39.4602 24.3112C39.8442 23.6232 40.0362 22.8232 40.0362 21.9112ZM53.0618 15.0952C54.1018 15.0952 55.0298 15.3112 55.8458 15.7432C56.6778 16.1752 57.3258 16.8152 57.7898 17.6632C58.2538 18.5112 58.4858 19.5352 58.4858 20.7352V28.5352H55.7738V21.1432C55.7738 19.9592 55.4778 19.0552 54.8858 18.4312C54.2938 17.7912 53.4858 17.4712 52.4618 17.4712C51.4378 17.4712 50.6218 17.7912 50.0138 18.4312C49.4218 19.0552 49.1258 19.9592 49.1258 21.1432V28.5352H46.3898V15.3112H49.1258V16.8232C49.5738 16.2792 50.1418 15.8552 50.8298 15.5512C51.5338 15.2472 52.2778 15.0952 53.0618 15.0952ZM68.6478 15.0952C69.6878 15.0952 70.6158 15.3112 71.4318 15.7432C72.2638 16.1752 72.9118 16.8152 73.3758 17.6632C73.8398 18.5112 74.0718 19.5352 74.0718 20.7352V28.5352H71.3598V21.1432C71.3598 19.9592 71.0638 19.0552 70.4718 18.4312C69.8798 17.7912 69.0718 17.4712 68.0478 17.4712C67.0238 17.4712 66.2078 17.7912 65.5998 18.4312C65.0078 19.0552 64.7118 19.9592 64.7118 21.1432V28.5352H61.9758V15.3112H64.7118V16.8232C65.1598 16.2792 65.7278 15.8552 66.4158 15.5512C67.1198 15.2472 67.8638 15.0952 68.6478 15.0952ZM76.6497 21.8632C76.6497 20.5352 76.9217 19.3592 77.4657 18.3352C78.0257 17.3112 78.7777 16.5192 79.7217 15.9592C80.6817 15.3832 81.7377 15.0952 82.8897 15.0952C83.9297 15.0952 84.8337 15.3032 85.6017 15.7192C86.3857 16.1192 87.0097 16.6232 87.4737 17.2312V15.3112H90.2337V28.5352H87.4737V26.5672C87.0097 27.1912 86.3777 27.7112 85.5777 28.1272C84.7777 28.5432 83.8657 28.7512 82.8417 28.7512C81.7057 28.7512 80.6657 28.4632 79.7217 27.8872C78.7777 27.2952 78.0257 26.4792 77.4657 25.4392C76.9217 24.3832 76.6497 23.1912 76.6497 21.8632ZM87.4737 21.9112C87.4737 20.9992 87.2817 20.2072 86.8977 19.5352C86.5297 18.8632 86.0417 18.3512 85.4337 17.9992C84.8257 17.6472 84.1697 17.4712 83.4657 17.4712C82.7617 17.4712 82.1057 17.6472 81.4977 17.9992C80.8897 18.3352 80.3937 18.8392 80.0097 19.5112C79.6417 20.1672 79.4577 20.9512 79.4577 21.8632C79.4577 22.7752 79.6417 23.5752 80.0097 24.2632C80.3937 24.9512 80.8897 25.4792 81.4977 25.8472C82.1217 26.1992 82.7777 26.3752 83.4657 26.3752C84.1697 26.3752 84.8257 26.1992 85.4337 25.8472C86.0417 25.4952 86.5297 24.9832 86.8977 24.3112C87.2817 23.6232 87.4737 22.8232 87.4737 21.9112ZM110.118 25.1272H103.134L101.934 28.5352H99.0777L105.054 11.8312H108.222L114.198 28.5352H111.318L110.118 25.1272ZM109.35 22.8952L106.638 15.1432L103.902 22.8952H109.35ZM123.468 15.0952C124.508 15.0952 125.436 15.3112 126.252 15.7432C127.084 16.1752 127.732 16.8152 128.196 17.6632C128.66 18.5112 128.892 19.5352 128.892 20.7352V28.5352H126.18V21.1432C126.18 19.9592 125.884 19.0552 125.292 18.4312C124.7 17.7912 123.892 17.4712 122.868 17.4712C121.844 17.4712 121.028 17.7912 120.42 18.4312C119.828 19.0552 119.532 19.9592 119.532 21.1432V28.5352H116.796V15.3112H119.532V16.8232C119.98 16.2792 120.548 15.8552 121.236 15.5512C121.94 15.2472 122.684 15.0952 123.468 15.0952ZM137.614 21.9352L143.71 28.5352H140.014L135.118 22.8472V28.5352H132.382V10.7752H135.118V21.0952L139.918 15.3112H143.71L137.614 21.9352ZM157.791 21.5992C157.791 22.0952 157.759 22.5432 157.695 22.9432H147.591C147.671 23.9992 148.063 24.8472 148.767 25.4872C149.471 26.1272 150.335 26.4472 151.359 26.4472C152.831 26.4472 153.871 25.8312 154.479 24.5992H157.431C157.031 25.8152 156.303 26.8152 155.247 27.5992C154.207 28.3672 152.911 28.7512 151.359 28.7512C150.095 28.7512 148.959 28.4712 147.951 27.9112C146.959 27.3352 146.175 26.5352 145.599 25.5112C145.039 24.4712 144.759 23.2712 144.759 21.9112C144.759 20.5512 145.031 19.3592 145.575 18.3352C146.135 17.2952 146.911 16.4952 147.903 15.9352C148.911 15.3752 150.063 15.0952 151.359 15.0952C152.607 15.0952 153.719 15.3672 154.695 15.9112C155.671 16.4552 156.431 17.2232 156.975 18.2152C157.519 19.1912 157.791 20.3192 157.791 21.5992ZM154.935 20.7352C154.919 19.7272 154.559 18.9192 153.855 18.3112C153.151 17.7032 152.279 17.3992 151.239 17.3992C150.295 17.3992 149.487 17.7032 148.815 18.3112C148.143 18.9032 147.743 19.7112 147.615 20.7352H154.935ZM163.22 17.2312C163.62 16.5592 164.148 16.0392 164.804 15.6712C165.476 15.2872 166.268 15.0952 167.18 15.0952V17.9272H166.484C165.412 17.9272 164.596 18.1992 164.036 18.7432C163.492 19.2872 163.22 20.2312 163.22 21.5752V28.5352H160.484V15.3112H163.22V17.2312ZM189.249 11.8552V28.5352H186.513V21.2392H178.665V28.5352H175.929V11.8552H178.665V19.0072H186.513V11.8552H189.249ZM203.843 17.3272C204.915 18.5592 205.451 20.0872 205.451 21.9112C205.451 23.2552 205.147 24.4472 204.539 25.4872C203.931 26.5272 203.099 27.3352 202.043 27.9112C201.003 28.4712 199.851 28.7512 198.587 28.7512C197.051 28.7512 195.715 28.3352 194.579 27.5032L193.619 28.5352H191.723L193.547 26.5432C192.491 25.3112 191.963 23.7672 191.963 21.9112C191.963 20.5672 192.259 19.3752 192.851 18.3352C193.443 17.2952 194.251 16.4952 195.275 15.9352C196.299 15.3752 197.443 15.0952 198.707 15.0952C200.275 15.0952 201.643 15.5192 202.811 16.3672L203.795 15.3112H205.691L203.843 17.3272ZM194.747 21.9112C194.747 22.9192 194.955 23.7992 195.371 24.5512L201.083 18.2872C200.395 17.7432 199.587 17.4712 198.659 17.4712C197.955 17.4712 197.299 17.6392 196.691 17.9752C196.099 18.3112 195.627 18.8152 195.275 19.4872C194.923 20.1432 194.747 20.9512 194.747 21.9112ZM202.643 21.9112C202.643 20.9192 202.435 20.0632 202.019 19.3432L196.283 25.6312C196.923 26.1272 197.691 26.3752 198.587 26.3752C199.291 26.3752 199.947 26.2072 200.555 25.8712C201.179 25.5352 201.683 25.0312 202.067 24.3592C202.451 23.6872 202.643 22.8712 202.643 21.9112ZM220.275 21.5992C220.275 22.0952 220.243 22.5432 220.179 22.9432H210.075C210.155 23.9992 210.547 24.8472 211.251 25.4872C211.955 26.1272 212.819 26.4472 213.843 26.4472C215.315 26.4472 216.355 25.8312 216.963 24.5992H219.915C219.515 25.8152 218.787 26.8152 217.731 27.5992C216.691 28.3672 215.395 28.7512 213.843 28.7512C212.579 28.7512 211.443 28.4712 210.435 27.9112C209.443 27.3352 208.659 26.5352 208.083 25.5112C207.523 24.4712 207.243 23.2712 207.243 21.9112C207.243 20.5512 207.515 19.3592 208.059 18.3352C208.619 17.2952 209.395 16.4952 210.387 15.9352C211.395 15.3752 212.547 15.0952 213.843 15.0952C215.091 15.0952 216.203 15.3672 217.179 15.9112C218.155 16.4552 218.915 17.2232 219.459 18.2152C220.003 19.1912 220.275 20.3192 220.275 21.5992ZM217.419 20.7352C217.403 19.7272 217.043 18.9192 216.339 18.3112C215.635 17.7032 214.763 17.3992 213.723 17.3992C212.779 17.3992 211.971 17.7032 211.299 18.3112C210.627 18.9032 210.227 19.7112 210.099 20.7352H217.419ZM228.296 15.0952C229.32 15.0952 230.224 15.3032 231.008 15.7192C231.808 16.1192 232.432 16.6232 232.88 17.2312V15.3112H235.64V28.7512C235.64 29.9672 235.384 31.0472 234.872 31.9912C234.36 32.9512 233.616 33.7032 232.64 34.2472C231.68 34.7912 230.528 35.0632 229.184 35.0632C227.392 35.0632 225.904 34.6392 224.72 33.7912C223.536 32.9592 222.864 31.8232 222.704 30.3832H225.416C225.624 31.0712 226.064 31.6232 226.736 32.0392C227.424 32.4712 228.24 32.6872 229.184 32.6872C230.288 32.6872 231.176 32.3512 231.848 31.6792C232.536 31.0072 232.88 30.0312 232.88 28.7512V26.5432C232.416 27.1672 231.784 27.6952 230.984 28.1272C230.2 28.5432 229.304 28.7512 228.296 28.7512C227.144 28.7512 226.088 28.4632 225.128 27.8872C224.184 27.2952 223.432 26.4792 222.872 25.4392C222.328 24.3832 222.056 23.1912 222.056 21.8632C222.056 20.5352 222.328 19.3592 222.872 18.3352C223.432 17.3112 224.184 16.5192 225.128 15.9592C226.088 15.3832 227.144 15.0952 228.296 15.0952ZM232.88 21.9112C232.88 20.9992 232.688 20.2072 232.304 19.5352C231.936 18.8632 231.448 18.3512 230.84 17.9992C230.232 17.6472 229.576 17.4712 228.872 17.4712C228.168 17.4712 227.512 17.6472 226.904 17.9992C226.296 18.3352 225.8 18.8392 225.416 19.5112C225.048 20.1672 224.864 20.9512 224.864 21.8632C224.864 22.7752 225.048 23.5752 225.416 24.2632C225.8 24.9512 226.296 25.4792 226.904 25.8472C227.528 26.1992 228.184 26.3752 228.872 26.3752C229.576 26.3752 230.232 26.1992 230.84 25.8472C231.448 25.4952 231.936 24.9832 232.304 24.3112C232.688 23.6232 232.88 22.8232 232.88 21.9112Z" fill="black"/>
<path d="M556.126 193.418V209.906H555.046V195.674L548.71 209.906H547.846L541.486 195.674V209.906H540.406V193.418H541.558L548.278 208.49L554.998 193.418H556.126ZM571.109 196.874V209.906H570.029V207.074C569.661 208.066 569.045 208.826 568.181 209.354C567.333 209.866 566.357 210.122 565.253 210.122C563.701 210.122 562.429 209.65 561.437 208.706C560.461 207.746 559.973 206.33 559.973 204.458V196.874H561.029V204.386C561.029 205.938 561.421 207.13 562.205 207.962C562.989 208.778 564.053 209.186 565.397 209.186C566.805 209.186 567.925 208.738 568.757 207.842C569.605 206.946 570.029 205.618 570.029 203.858V196.874H571.109ZM576.126 192.146V209.906H575.046V192.146H576.126ZM581.693 197.81V206.426C581.693 207.386 581.869 208.05 582.221 208.418C582.573 208.77 583.197 208.946 584.093 208.946H585.557V209.906H583.925C582.789 209.906 581.949 209.642 581.405 209.114C580.877 208.57 580.613 207.674 580.613 206.426V197.81H578.645V196.874H580.613V193.562H581.693V196.874H585.557V197.81H581.693ZM588.958 193.97C588.702 193.97 588.486 193.89 588.31 193.73C588.134 193.554 588.046 193.322 588.046 193.034C588.046 192.762 588.134 192.538 588.31 192.362C588.486 192.186 588.702 192.098 588.958 192.098C589.214 192.098 589.43 192.186 589.605 192.362C589.782 192.538 589.87 192.762 589.87 193.034C589.87 193.322 589.782 193.554 589.605 193.73C589.43 193.89 589.214 193.97 588.958 193.97ZM589.486 196.874V209.906H588.406V196.874H589.486ZM608.853 196.61C610.341 196.61 611.557 197.09 612.501 198.05C613.445 198.994 613.917 200.402 613.917 202.274V209.906H612.861V202.346C612.861 200.794 612.485 199.61 611.733 198.794C610.997 197.962 609.981 197.546 608.685 197.546C607.341 197.546 606.261 198.01 605.445 198.938C604.629 199.866 604.221 201.21 604.221 202.97V209.906H603.165V202.346C603.165 200.794 602.789 199.61 602.037 198.794C601.301 197.962 600.285 197.546 598.989 197.546C597.645 197.546 596.565 198.01 595.749 198.938C594.933 199.866 594.525 201.21 594.525 202.97V209.906H593.445V196.874H594.525V199.706C594.893 198.682 595.485 197.914 596.301 197.402C597.133 196.874 598.085 196.61 599.157 196.61C600.341 196.61 601.357 196.922 602.205 197.546C603.069 198.154 603.661 199.058 603.981 200.258C604.285 199.058 604.877 198.154 605.757 197.546C606.637 196.922 607.669 196.61 608.853 196.61ZM629.485 202.514C629.485 203.09 629.469 203.522 629.437 203.81H618.181C618.213 204.978 618.469 205.962 618.949 206.762C619.429 207.562 620.061 208.162 620.845 208.562C621.629 208.962 622.485 209.162 623.413 209.162C624.693 209.162 625.765 208.85 626.629 208.226C627.493 207.586 628.037 206.722 628.261 205.634H629.389C629.133 206.962 628.477 208.042 627.421 208.874C626.365 209.69 625.029 210.098 623.413 210.098C622.197 210.098 621.109 209.826 620.149 209.282C619.189 208.738 618.437 207.962 617.893 206.954C617.349 205.93 617.077 204.738 617.077 203.378C617.077 202.018 617.341 200.834 617.869 199.826C618.413 198.818 619.165 198.05 620.125 197.522C621.085 196.978 622.181 196.706 623.413 196.706C624.661 196.706 625.741 196.978 626.653 197.522C627.581 198.05 628.285 198.762 628.765 199.658C629.245 200.538 629.485 201.49 629.485 202.514ZM628.405 202.922C628.453 201.77 628.245 200.794 627.781 199.994C627.333 199.194 626.717 198.602 625.933 198.218C625.149 197.818 624.301 197.618 623.389 197.618C622.477 197.618 621.629 197.818 620.845 198.218C620.077 198.602 619.445 199.194 618.949 199.994C618.469 200.794 618.213 201.77 618.181 202.922H628.405ZM632.077 203.378C632.077 202.034 632.341 200.858 632.869 199.85C633.413 198.842 634.157 198.066 635.101 197.522C636.061 196.978 637.149 196.706 638.365 196.706C639.693 196.706 640.845 197.042 641.821 197.714C642.797 198.37 643.485 199.226 643.885 200.282V192.146H644.965V209.906H643.885V206.45C643.501 207.522 642.829 208.402 641.869 209.09C640.909 209.762 639.741 210.098 638.365 210.098C637.149 210.098 636.061 209.826 635.101 209.282C634.157 208.722 633.413 207.938 632.869 206.93C632.341 205.906 632.077 204.722 632.077 203.378ZM643.885 203.378C643.885 202.242 643.645 201.242 643.165 200.378C642.701 199.498 642.061 198.826 641.245 198.362C640.429 197.882 639.517 197.642 638.509 197.642C637.453 197.642 636.525 197.874 635.725 198.338C634.925 198.786 634.301 199.442 633.853 200.306C633.405 201.17 633.181 202.194 633.181 203.378C633.181 204.562 633.405 205.586 633.853 206.45C634.301 207.314 634.925 207.978 635.725 208.442C636.541 208.906 637.469 209.138 638.509 209.138C639.517 209.138 640.429 208.906 641.245 208.442C642.077 207.962 642.725 207.29 643.189 206.426C643.653 205.546 643.885 204.53 643.885 203.378ZM649.45 193.97C649.194 193.97 648.978 193.89 648.802 193.73C648.626 193.554 648.538 193.322 648.538 193.034C648.538 192.762 648.626 192.538 648.802 192.362C648.978 192.186 649.194 192.098 649.45 192.098C649.706 192.098 649.922 192.186 650.098 192.362C650.274 192.538 650.362 192.762 650.362 193.034C650.362 193.322 650.274 193.554 650.098 193.73C649.922 193.89 649.706 193.97 649.45 193.97ZM649.978 196.874V209.906H648.898V196.874H649.978ZM665.673 202.514C665.673 203.09 665.657 203.522 665.625 203.81H654.369C654.401 204.978 654.657 205.962 655.137 206.762C655.617 207.562 656.249 208.162 657.033 208.562C657.817 208.962 658.673 209.162 659.601 209.162C660.881 209.162 661.953 208.85 662.817 208.226C663.681 207.586 664.225 206.722 664.449 205.634H665.577C665.321 206.962 664.665 208.042 663.609 208.874C662.553 209.69 661.217 210.098 659.601 210.098C658.385 210.098 657.297 209.826 656.337 209.282C655.377 208.738 654.625 207.962 654.081 206.954C653.537 205.93 653.265 204.738 653.265 203.378C653.265 202.018 653.529 200.834 654.057 199.826C654.601 198.818 655.353 198.05 656.313 197.522C657.273 196.978 658.369 196.706 659.601 196.706C660.849 196.706 661.929 196.978 662.841 197.522C663.769 198.05 664.473 198.762 664.953 199.658C665.433 200.538 665.673 201.49 665.673 202.514ZM664.593 202.922C664.641 201.77 664.433 200.794 663.969 199.994C663.521 199.194 662.905 198.602 662.121 198.218C661.337 197.818 660.489 197.618 659.577 197.618C658.665 197.618 657.817 197.818 657.033 198.218C656.265 198.602 655.633 199.194 655.137 199.994C654.657 200.794 654.401 201.77 654.369 202.922H664.593ZM668.265 203.378C668.265 202.034 668.529 200.858 669.057 199.85C669.601 198.842 670.345 198.066 671.289 197.522C672.249 196.978 673.337 196.706 674.553 196.706C675.881 196.706 677.033 197.042 678.009 197.714C678.985 198.37 679.673 199.226 680.073 200.282V192.146H681.153V209.906H680.073V206.45C679.689 207.522 679.017 208.402 678.057 209.09C677.097 209.762 675.929 210.098 674.553 210.098C673.337 210.098 672.249 209.826 671.289 209.282C670.345 208.722 669.601 207.938 669.057 206.93C668.529 205.906 668.265 204.722 668.265 203.378ZM680.073 203.378C680.073 202.242 679.833 201.242 679.353 200.378C678.889 199.498 678.249 198.826 677.433 198.362C676.617 197.882 675.705 197.642 674.697 197.642C673.641 197.642 672.713 197.874 671.913 198.338C671.113 198.786 670.489 199.442 670.041 200.306C669.593 201.17 669.369 202.194 669.369 203.378C669.369 204.562 669.593 205.586 670.041 206.45C670.489 207.314 671.113 207.978 671.913 208.442C672.729 208.906 673.657 209.138 674.697 209.138C675.705 209.138 676.617 208.906 677.433 208.442C678.265 207.962 678.913 207.29 679.377 206.426C679.841 205.546 680.073 204.53 680.073 203.378ZM696.821 202.514C696.821 203.09 696.805 203.522 696.773 203.81H685.517C685.549 204.978 685.805 205.962 686.285 206.762C686.765 207.562 687.397 208.162 688.181 208.562C688.965 208.962 689.821 209.162 690.749 209.162C692.029 209.162 693.101 208.85 693.965 208.226C694.829 207.586 695.373 206.722 695.597 205.634H696.725C696.469 206.962 695.813 208.042 694.757 208.874C693.701 209.69 692.365 210.098 690.749 210.098C689.533 210.098 688.445 209.826 687.485 209.282C686.525 208.738 685.773 207.962 685.229 206.954C684.685 205.93 684.413 204.738 684.413 203.378C684.413 202.018 684.677 200.834 685.205 199.826C685.749 198.818 686.501 198.05 687.461 197.522C688.421 196.978 689.517 196.706 690.749 196.706C691.997 196.706 693.077 196.978 693.989 197.522C694.917 198.05 695.621 198.762 696.101 199.658C696.581 200.538 696.821 201.49 696.821 202.514ZM695.741 202.922C695.789 201.77 695.581 200.794 695.117 199.994C694.669 199.194 694.053 198.602 693.269 198.218C692.485 197.818 691.637 197.618 690.725 197.618C689.813 197.618 688.965 197.818 688.181 198.218C687.413 198.602 686.781 199.194 686.285 199.994C685.805 200.794 685.549 201.77 685.517 202.922H695.741ZM704.429 210.098C702.973 210.098 701.781 209.778 700.853 209.138C699.941 208.498 699.429 207.586 699.317 206.402H700.421C700.501 207.25 700.885 207.922 701.573 208.418C702.277 208.914 703.229 209.162 704.429 209.162C705.421 209.162 706.205 208.914 706.781 208.418C707.373 207.906 707.669 207.282 707.669 206.546C707.669 206.034 707.509 205.618 707.189 205.298C706.885 204.962 706.501 204.706 706.037 204.53C705.573 204.354 704.941 204.162 704.141 203.954C703.181 203.698 702.405 203.45 701.813 203.21C701.221 202.954 700.717 202.578 700.301 202.082C699.885 201.586 699.677 200.922 699.677 200.09C699.677 199.482 699.861 198.922 700.229 198.41C700.597 197.882 701.109 197.466 701.765 197.162C702.421 196.858 703.165 196.706 703.997 196.706C705.357 196.706 706.453 197.05 707.285 197.738C708.133 198.41 708.589 199.346 708.653 200.546H707.573C707.525 199.682 707.189 198.978 706.565 198.434C705.941 197.89 705.077 197.618 703.973 197.618C703.045 197.618 702.277 197.858 701.669 198.338C701.061 198.818 700.757 199.402 700.757 200.09C700.757 200.698 700.925 201.194 701.261 201.578C701.613 201.946 702.037 202.234 702.533 202.442C703.045 202.634 703.717 202.842 704.549 203.066C705.461 203.306 706.189 203.546 706.733 203.786C707.293 204.01 707.765 204.346 708.149 204.794C708.533 205.226 708.725 205.81 708.725 206.546C708.725 207.218 708.541 207.826 708.173 208.37C707.805 208.914 707.293 209.338 706.637 209.642C705.981 209.946 705.245 210.098 704.429 210.098ZM712.567 193.97C712.311 193.97 712.095 193.89 711.919 193.73C711.743 193.554 711.655 193.322 711.655 193.034C711.655 192.762 711.743 192.538 711.919 192.362C712.095 192.186 712.311 192.098 712.567 192.098C712.823 192.098 713.039 192.186 713.215 192.362C713.391 192.538 713.479 192.762 713.479 193.034C713.479 193.322 713.391 193.554 713.215 193.73C713.039 193.89 712.823 193.97 712.567 193.97ZM713.095 196.874V209.906H712.015V196.874H713.095ZM722.67 196.706C724.046 196.706 725.214 197.042 726.174 197.714C727.134 198.37 727.806 199.218 728.19 200.258V196.874H729.27V210.314C729.27 211.514 729.006 212.562 728.478 213.458C727.95 214.37 727.238 215.066 726.342 215.546C725.446 216.042 724.446 216.29 723.342 216.29C721.71 216.29 720.358 215.898 719.286 215.114C718.214 214.33 717.51 213.274 717.174 211.946H718.254C718.574 212.986 719.174 213.81 720.054 214.418C720.934 215.042 722.03 215.354 723.342 215.354C724.254 215.354 725.078 215.146 725.814 214.73C726.55 214.33 727.126 213.746 727.542 212.978C727.974 212.226 728.19 211.338 728.19 210.314V206.498C727.806 207.538 727.126 208.402 726.15 209.09C725.19 209.762 724.03 210.098 722.67 210.098C721.454 210.098 720.366 209.826 719.406 209.282C718.462 208.722 717.718 207.938 717.174 206.93C716.646 205.906 716.382 204.722 716.382 203.378C716.382 202.034 716.646 200.858 717.174 199.85C717.718 198.842 718.462 198.066 719.406 197.522C720.366 196.978 721.454 196.706 722.67 196.706ZM728.19 203.378C728.19 202.242 727.95 201.242 727.47 200.378C727.006 199.498 726.366 198.826 725.55 198.362C724.734 197.882 723.822 197.642 722.814 197.642C721.758 197.642 720.83 197.874 720.03 198.338C719.23 198.786 718.606 199.442 718.158 200.306C717.71 201.17 717.486 202.194 717.486 203.378C717.486 204.562 717.71 205.586 718.158 206.45C718.606 207.314 719.23 207.978 720.03 208.442C720.846 208.906 721.774 209.138 722.814 209.138C723.822 209.138 724.734 208.906 725.55 208.442C726.382 207.962 727.03 207.29 727.494 206.426C727.958 205.546 728.19 204.53 728.19 203.378ZM739.082 196.61C740.634 196.61 741.898 197.09 742.874 198.05C743.85 198.994 744.338 200.402 744.338 202.274V209.906H743.282V202.346C743.282 200.794 742.89 199.61 742.106 198.794C741.322 197.962 740.258 197.546 738.914 197.546C737.506 197.546 736.378 197.994 735.53 198.89C734.698 199.786 734.282 201.114 734.282 202.874V209.906H733.202V196.874H734.282V199.634C734.65 198.658 735.258 197.914 736.106 197.402C736.97 196.874 737.962 196.61 739.082 196.61ZM759.892 202.514C759.892 203.09 759.876 203.522 759.844 203.81H748.588C748.62 204.978 748.876 205.962 749.355 206.762C749.836 207.562 750.468 208.162 751.252 208.562C752.036 208.962 752.892 209.162 753.82 209.162C755.1 209.162 756.172 208.85 757.036 208.226C757.9 207.586 758.444 206.722 758.668 205.634H759.796C759.54 206.962 758.884 208.042 757.828 208.874C756.772 209.69 755.436 210.098 753.82 210.098C752.604 210.098 751.516 209.826 750.556 209.282C749.596 208.738 748.844 207.962 748.3 206.954C747.756 205.93 747.484 204.738 747.484 203.378C747.484 202.018 747.748 200.834 748.276 199.826C748.82 198.818 749.572 198.05 750.532 197.522C751.492 196.978 752.588 196.706 753.82 196.706C755.068 196.706 756.148 196.978 757.06 197.522C757.988 198.05 758.692 198.762 759.172 199.658C759.652 200.538 759.892 201.49 759.892 202.514ZM758.812 202.922C758.86 201.77 758.652 200.794 758.188 199.994C757.74 199.194 757.124 198.602 756.34 198.218C755.556 197.818 754.708 197.618 753.796 197.618C752.884 197.618 752.036 197.818 751.252 198.218C750.484 198.602 749.852 199.194 749.355 199.994C748.876 200.794 748.62 201.77 748.588 202.922H758.812ZM764.236 199.562C764.556 198.602 765.124 197.874 765.94 197.378C766.756 196.866 767.796 196.61 769.06 196.61V197.738H768.7C767.42 197.738 766.356 198.106 765.508 198.842C764.66 199.562 764.236 200.746 764.236 202.394V209.906H763.156V196.874H764.236V199.562Z" fill="black"/>
</svg>
