<svg width="757" height="153" viewBox="0 0 757 153" fill="none" xmlns="http://www.w3.org/2000/svg">
<path d="M0.0988287 148.814V12.6144H52.8988C80.2988 12.6144 99.8988 30.2144 99.8988 56.8145C99.8988 85.2144 80.2988 102.214 51.8988 102.214H28.4988V148.814H0.0988287ZM28.2988 78.2145H49.6988C63.4988 78.2145 71.2988 70.2145 71.2988 57.8145C71.2988 45.8144 63.8988 37.6144 49.4988 37.6144H28.2988V78.2145ZM158.58 152.014C127.78 152.014 106.58 129.614 106.58 98.6144C106.58 67.6144 127.78 45.0144 158.58 45.0144C189.38 45.0144 210.58 67.4145 210.58 98.4145C210.58 129.414 189.38 152.014 158.58 152.014ZM158.58 127.814C174.18 127.814 183.98 114.814 183.98 98.4145C183.98 82.2145 174.18 69.2144 158.58 69.2144C142.78 69.2144 133.18 82.2145 133.18 98.6144C133.18 114.814 142.78 127.814 158.58 127.814ZM227.196 148.814V48.4144H253.596C253.596 53.8144 253.596 58.2145 253.196 63.6144L254.596 63.8145C260.196 52.4144 269.996 47.6144 280.596 47.6144C282.396 47.6144 284.196 47.8145 286.196 48.2144V72.8144C282.796 72.8144 279.796 72.8144 276.596 72.8144C261.996 72.8144 254.196 81.8145 254.196 96.8144V148.814H227.196ZM307.894 148.814V72.4144H293.294V48.4144H307.894V21.2145H335.094V48.4144H356.894V72.4144H335.094V148.814H307.894ZM381.732 148.814V72.2144H366.732V48.4144H381.732V43.0144C381.732 14.4144 398.332 0.614442 421.332 0.614442C426.532 0.614442 430.732 1.21445 435.332 2.81445L434.732 25.2144C431.132 24.2144 428.132 24.0145 424.732 24.0145C415.132 24.0145 408.532 30.0144 408.532 42.2144V48.4144H434.532V72.2144H408.532V148.814H381.732ZM491.197 152.014C460.397 152.014 439.197 129.614 439.197 98.6144C439.197 67.6144 460.397 45.0144 491.197 45.0144C521.997 45.0144 543.197 67.4145 543.197 98.4145C543.197 129.414 521.997 152.014 491.197 152.014ZM491.197 127.814C506.797 127.814 516.597 114.814 516.597 98.4145C516.597 82.2145 506.797 69.2144 491.197 69.2144C475.397 69.2144 465.797 82.2145 465.797 98.6144C465.797 114.814 475.397 127.814 491.197 127.814ZM559.813 148.814V3.61445H586.813V148.814H559.813ZM608.836 148.814V48.4144H635.836V148.814H608.836ZM622.236 36.8145C612.836 36.8145 605.836 30.6144 605.836 21.4144C605.836 12.2144 612.636 6.01444 622.236 6.01444C631.836 6.01444 638.636 12.2144 638.636 21.4144C638.636 30.6144 631.836 36.8145 622.236 36.8145ZM704.479 152.014C673.679 152.014 652.479 129.614 652.479 98.6144C652.479 67.6144 673.679 45.0144 704.479 45.0144C735.279 45.0144 756.479 67.4145 756.479 98.4145C756.479 129.414 735.279 152.014 704.479 152.014ZM704.479 127.814C720.079 127.814 729.879 114.814 729.879 98.4145C729.879 82.2145 720.079 69.2144 704.479 69.2144C688.679 69.2144 679.079 82.2145 679.079 98.6144C679.079 114.814 688.679 127.814 704.479 127.814Z" fill="black"/>
</svg>
