<svg width="788" height="635" viewBox="0 0 788 635" fill="none" xmlns="http://www.w3.org/2000/svg">
<path fill-rule="evenodd" clip-rule="evenodd" d="M368.241 620.549C380.149 617.034 392.013 613.533 405.293 610.923C414.286 609.155 424.166 607.365 434.584 605.478C491.937 595.089 565.598 581.746 597.313 552.84C607.144 543.88 619.387 536.52 632.1 528.879C667.848 507.39 707.312 483.668 707.312 415.834C707.312 369.938 728.938 351.824 749.769 334.375C770.676 316.863 790.783 300.021 787.425 256.438C781.38 177.988 747.224 109.267 645.259 76.9269C543.295 44.5863 265.795 -40.5771 127.294 22.9227C-11.2061 86.4225 -31.2062 323.923 40.7931 422.923C68.0755 460.436 77.2664 493.994 85.1507 522.782C98.0734 569.965 107.486 604.332 187.294 622.288C286.621 644.637 327.693 632.516 368.241 620.549ZM364.465 561.098C374.42 558.437 385.707 555.42 400.795 552.923L401.627 552.785C453.504 544.199 499.528 536.582 526.295 511.922C532.949 505.792 541.082 500.477 549.555 494.939C575.348 478.081 604.295 459.162 604.295 408.922C604.295 375.588 618.966 363.74 633.053 352.364C647.172 340.962 660.705 330.034 658.295 298.422C653.954 241.483 613.93 186.326 564.86 170.595C515.791 154.864 306.932 92.3252 219.79 132.881C132.647 173.437 95.6782 344.42 147.114 416.576C166.775 444.158 172.51 466.511 177.294 485.156C185.025 515.288 190.271 535.736 247.795 552.922C317.33 573.697 335.112 568.944 364.465 561.098Z" fill="black"/>
</svg>
