<svg width="804" height="153" viewBox="0 0 804 153" fill="none" xmlns="http://www.w3.org/2000/svg">
<path d="M0.792188 148.947V12.7473H53.5922C80.9922 12.7473 100.592 30.3473 100.592 56.9473C100.592 85.3473 80.9922 102.347 52.5922 102.347H29.1922V148.947H0.792188ZM28.9922 78.3473H50.3922C64.1922 78.3473 71.9922 70.3473 71.9922 57.9473C71.9922 45.9473 64.5922 37.7473 50.1922 37.7473H28.9922V78.3473ZM159.273 152.147C128.473 152.147 107.273 129.747 107.273 98.7473C107.273 67.7473 128.473 45.1473 159.273 45.1473C190.073 45.1473 211.273 67.5473 211.273 98.5473C211.273 129.547 190.073 152.147 159.273 152.147ZM159.273 127.947C174.873 127.947 184.673 114.947 184.673 98.5473C184.673 82.3473 174.873 69.3473 159.273 69.3473C143.473 69.3473 133.873 82.3473 133.873 98.7473C133.873 114.947 143.473 127.947 159.273 127.947ZM227.889 148.947V48.5473H254.289C254.289 53.9473 254.289 58.3473 253.889 63.7473L255.289 63.9473C260.889 52.5473 270.689 47.7473 281.289 47.7473C283.089 47.7473 284.889 47.9473 286.889 48.3473V72.9473C283.489 72.9473 280.489 72.9473 277.289 72.9473C262.689 72.9473 254.889 81.9473 254.889 96.9473V148.947H227.889ZM308.588 148.947V72.5473H293.988V48.5473H308.588V21.3473H335.788V48.5473H357.588V72.5473H335.788V148.947H308.588ZM382.425 148.947V72.3473H367.425V48.5473H382.425V43.1473C382.425 14.5473 399.025 0.747254 422.025 0.747254C427.225 0.747254 431.425 1.34726 436.025 2.94726L435.425 25.3473C431.825 24.3473 428.825 24.1473 425.425 24.1473C415.825 24.1473 409.225 30.1473 409.225 42.3473V48.5473H435.225V72.3473H409.225V148.947H382.425ZM491.891 152.147C461.091 152.147 439.891 129.747 439.891 98.7473C439.891 67.7473 461.091 45.1473 491.891 45.1473C522.691 45.1473 543.891 67.5473 543.891 98.5473C543.891 129.547 522.691 152.147 491.891 152.147ZM491.891 127.947C507.491 127.947 517.291 114.947 517.291 98.5473C517.291 82.3473 507.491 69.3473 491.891 69.3473C476.091 69.3473 466.491 82.3473 466.491 98.7473C466.491 114.947 476.091 127.947 491.891 127.947ZM560.506 148.947V3.74726H587.506V148.947H560.506ZM609.53 148.947V48.5473H636.53V148.947H609.53ZM622.93 36.9473C613.53 36.9473 606.53 30.7473 606.53 21.5473C606.53 12.3473 613.33 6.14726 622.93 6.14726C632.53 6.14726 639.33 12.3473 639.33 21.5473C639.33 30.7473 632.53 36.9473 622.93 36.9473ZM705.172 152.147C674.372 152.147 653.172 129.747 653.172 98.7473C653.172 67.7473 674.372 45.1473 705.172 45.1473C735.972 45.1473 757.172 67.5473 757.172 98.5473C757.172 129.547 735.972 152.147 705.172 152.147ZM705.172 127.947C720.772 127.947 730.572 114.947 730.572 98.5473C730.572 82.3473 720.772 69.3473 705.172 69.3473C689.372 69.3473 679.772 82.3473 679.772 98.7473C679.772 114.947 689.372 127.947 705.172 127.947ZM786.03 150.947C775.83 150.947 768.63 143.947 768.63 133.947C768.63 123.947 776.03 116.947 786.03 116.947C796.23 116.947 803.63 123.947 803.63 133.947C803.63 143.947 796.43 150.947 786.03 150.947Z" fill="black"/>
</svg>
